<svg width="60" height="61" viewBox="0 0 60 61" fill="none" xmlns="http://www.w3.org/2000/svg">
<path d="M58 30.135C58 45.682 45.4555 58.27 30 58.27C14.5445 58.27 2 45.682 2 30.135C2 14.588 14.5445 2 30 2C45.4555 2 58 14.588 58 30.135Z" fill="white" stroke="#E3711D" stroke-width="4"/>
<path d="M37.0832 12.4558H40.6865C41.5796 12.4558 42.3874 12.9888 42.7421 13.8122L42.9724 14.3468H44.0598C45.9045 14.3468 47.3998 15.8488 47.3998 17.7018V30.0394C47.3998 31.3556 46.3376 32.4226 45.0273 32.4226H33.0439C31.7336 32.4226 30.6714 31.3556 30.6714 30.0394V18.8966C30.6714 15.3394 33.542 12.4558 37.0832 12.4558Z" fill="#475D6D"/>
<path d="M44.0599 14.3468H42.9725L42.7423 13.8122C42.3876 12.9888 41.5799 12.4558 40.6867 12.4558H38.8203C39.7134 12.4558 40.5212 12.9888 40.8759 13.8122L41.1062 14.3468H42.1936C44.0383 14.3468 45.5336 15.8488 45.5336 17.7018V30.0394C45.5336 31.3556 44.4714 32.4226 43.1611 32.4226H45.0275C46.3378 32.4226 47.4 31.3556 47.4 30.0394V17.7018C47.3999 15.8489 45.9046 14.3468 44.0599 14.3468Z" fill="#2C3F4F"/>
<path d="M25.8732 14.369L19.0395 12.7361C18.3111 12.562 17.5448 12.78 17.0154 13.3118L15.0721 15.2638H14.2486C13.0574 15.2638 12.0918 16.2337 12.0918 17.4302C12.0918 17.4302 11.983 20.0883 12.0918 20.9653C12.221 22.0073 13.1178 25.037 13.1178 25.037H27.6928L30.424 14.1795C30.564 13.6225 29.92 13.2052 29.4725 13.563C28.4597 14.3727 27.1325 14.6699 25.8732 14.369Z" fill="#F9DC6A"/>
<path d="M29.4724 13.563C29.1881 13.7903 28.8784 13.9756 28.553 14.1203C28.5499 14.14 28.548 14.1594 28.543 14.1795L25.8118 25.0369H27.6927L30.4239 14.1795C30.5638 13.6226 29.9198 13.2052 29.4724 13.563Z" fill="#E5AC51"/>
<path d="M46.9358 38.1869V45.4906H33.7452V38.6686H14.1436V34.2847H43.0511C45.1963 34.2847 46.9358 36.0312 46.9358 38.1869Z" fill="#2BB4F3"/>
<path d="M43.0509 34.2844H41.3879C43.5335 34.2844 45.2727 36.0315 45.2727 38.1867V45.4908H46.9357V38.1866C46.9357 36.0315 45.1964 34.2844 43.0509 34.2844Z" fill="#1687C4"/>
<path d="M30.4426 38.6686V38.1867C30.4426 36.0316 28.7035 34.2846 26.5581 34.2844H18.5271C16.3818 34.2845 14.6426 36.0316 14.6426 38.1867V38.6686H30.4426Z" fill="#1687C4"/>
<path d="M36.6953 30.3635V35.1026C36.6953 36.4011 39.0359 37.7113 39.0359 37.7113C39.0359 37.7113 41.3764 36.401 41.3764 35.1026V30.3635H36.6953Z" fill="#F2A077"/>
<path d="M47.2139 24.7049V25.3971C47.2139 26.2052 46.5625 26.8605 45.7579 26.8605H45.2638C45.0663 30.6781 41.5414 33.3293 38.0829 32.7246H38.0821C35.1957 32.2797 32.9616 29.8466 32.8077 26.8605H32.3136C31.509 26.8605 30.8567 26.2052 30.8567 25.3971V24.7049C30.8567 23.8967 31.509 23.2414 32.3136 23.2414H32.7983V20.0656C32.7983 19.9805 32.8 19.8964 32.8043 19.8131C33.6593 19.9788 34.5424 20.0647 35.4453 20.0647C38.1966 20.0647 40.7615 19.2643 42.922 17.8816C43.3956 17.5793 43.8505 17.2486 44.2831 16.8914C44.8922 17.7561 45.2723 18.8791 45.2723 20.0656V23.2414H45.7579C46.5625 23.2414 47.2139 23.8967 47.2139 24.7049Z" fill="#FFCCAA"/>
<path d="M45.758 23.2414H45.2724V21.9449H45.2717C45.2715 19.7923 45.2713 19.961 45.2707 19.9307C45.2429 18.7892 44.8661 17.7188 44.2832 16.8914C43.8506 17.2486 43.3957 17.5793 42.9221 17.8816C43.2068 18.5523 43.365 19.2901 43.365 20.0656V23.2414L43.3556 26.8605C43.2701 28.5137 42.5476 29.9986 41.4285 31.0696C40.5273 31.9327 39.3697 32.5253 38.083 32.7246C41.2388 33.2764 44.4493 31.1171 45.1373 27.8347C45.1374 27.8345 45.1374 27.8343 45.1374 27.8341C45.1701 27.6781 45.1973 27.5196 45.2183 27.3587C45.2189 27.3539 45.2194 27.3489 45.2201 27.3441C45.2288 27.2759 45.2363 27.2072 45.2429 27.1383C45.2445 27.121 45.2462 27.1038 45.2478 27.0864C45.2543 27.0115 45.26 26.9364 45.2639 26.8605H45.2724H45.758C46.5625 26.8605 47.2141 26.2052 47.2141 25.3971V24.7049C47.214 23.8967 46.5625 23.2414 45.758 23.2414Z" fill="#F2A077"/>
<path d="M39.0358 29.1556C38.2212 29.1556 37.4544 28.8367 36.8767 28.2579C36.5845 27.9645 36.3591 27.6228 36.2062 27.2419C36.0972 26.9707 36.2278 26.662 36.4979 26.5525C36.768 26.4431 37.0753 26.5743 37.1842 26.8456C37.2839 27.0937 37.4312 27.3167 37.622 27.5084C38.0001 27.8873 38.5024 28.0962 39.0358 28.0962C39.8538 28.0962 40.5807 27.605 40.8876 26.8447C40.9972 26.5737 41.3045 26.443 41.5746 26.553C41.8445 26.6629 41.9745 26.9719 41.8651 27.2429C41.3958 28.4048 40.2853 29.1556 39.0358 29.1556Z" fill="#475D6D"/>
<path d="M35.9136 24.1773C35.6223 24.1773 35.3862 23.9401 35.3862 23.6475V23.3449C35.3862 23.0524 35.6223 22.8152 35.9136 22.8152C36.2049 22.8152 36.4409 23.0524 36.4409 23.3449V23.6475C36.4409 23.9401 36.2048 24.1773 35.9136 24.1773Z" fill="#475D6D"/>
<path d="M42.158 24.1773C41.8667 24.1773 41.6306 23.9401 41.6306 23.6475V23.3449C41.6306 23.0524 41.8667 22.8152 42.158 22.8152C42.4493 22.8152 42.6853 23.0524 42.6853 23.3449V23.6475C42.6853 23.9401 42.4493 24.1773 42.158 24.1773Z" fill="#475D6D"/>
<path d="M28.3053 38.1869V45.4906H12.5054V38.1869C12.5054 36.0313 14.2442 34.2847 16.3901 34.2847H24.4205C26.5657 34.2847 28.3053 36.0312 28.3053 38.1869Z" fill="#FF5A59"/>
<path d="M24.4205 34.2844H22.7576C24.9031 34.2844 26.6423 36.0315 26.6423 38.1867V45.4908H28.3053V38.1866C28.3053 36.0315 26.566 34.2844 24.4205 34.2844Z" fill="#CE3A4C"/>
<path d="M18.0647 30.3635V35.1026C18.0647 36.4011 19.1126 37.4537 20.4053 37.4537C21.698 37.4537 22.7458 36.401 22.7458 35.1026V30.3635H18.0647Z" fill="#F2A077"/>
<path d="M28.5841 24.7048V25.397C28.5841 26.2051 27.9317 26.8604 27.1272 26.8604H26.633C26.5678 28.0719 26.1522 29.2114 25.5652 30.0509C25.5652 30.0518 25.5644 30.0518 25.5644 30.0526C24.3906 31.866 21.9739 33.1073 19.4522 32.7244H19.4513C16.5649 32.2795 14.3309 29.8465 14.177 26.8604H13.6828C12.8783 26.8604 12.2268 26.2051 12.2268 25.3969V24.7047C12.2268 23.8966 12.8783 23.2413 13.6828 23.2413H14.1685V20.9379C15.8416 20.8246 16.3828 20.3093 16.3828 18.6526C16.3828 18.6526 18.5117 22.4615 24.7342 21.3261C25.3318 21.217 25.967 21.0624 26.6425 20.8546V23.2412H27.1272C27.9317 23.2413 28.5841 23.8966 28.5841 24.7048Z" fill="#FFCCAA"/>
<path d="M27.1274 23.2416H26.6427V22.8039V20.855C25.9673 21.0628 25.332 21.2174 24.7344 21.3265V23.2417L24.725 26.8608C24.6395 28.514 23.917 29.9989 22.7979 31.0698C21.8967 31.9329 20.74 32.5255 19.4524 32.7248C21.9733 33.1075 24.3951 31.8597 25.5646 30.053C25.5646 30.0522 25.5654 30.0522 25.5654 30.0513C25.9421 29.5696 26.3449 28.6644 26.5326 27.6707H26.5361C26.5695 27.4893 26.5952 27.3048 26.6132 27.1183C26.6139 27.1109 26.6148 27.1035 26.6155 27.096C26.6228 27.018 26.629 26.9396 26.6333 26.8608H26.6427H27.1274C27.9319 26.8608 28.5843 26.2055 28.5843 25.3974V24.7052C28.5843 23.8969 27.9319 23.2416 27.1274 23.2416Z" fill="#F2A077"/>
<path d="M20.4052 29.1554C19.5906 29.1554 18.8238 28.8366 18.2461 28.2578C17.9541 27.9644 17.7286 27.6228 17.5756 27.2419C17.4666 26.9706 17.5972 26.6619 17.8672 26.5524C18.1373 26.4427 18.4446 26.5741 18.5536 26.8453C18.6533 27.0935 18.8006 27.3165 18.9914 27.5082C19.3696 27.8871 19.8718 28.096 20.4052 28.096C21.2232 28.096 21.9501 27.6047 22.2571 26.8445C22.3667 26.5734 22.6739 26.4428 22.9441 26.5527C23.2139 26.6627 23.344 26.9716 23.2345 27.2427C22.7653 28.4046 21.6547 29.1554 20.4052 29.1554Z" fill="#475D6D"/>
<path d="M17.283 24.1773C16.9917 24.1773 16.7556 23.9401 16.7556 23.6475V23.3449C16.7556 23.0524 16.9917 22.8152 17.283 22.8152C17.5743 22.8152 17.8103 23.0524 17.8103 23.3449V23.6475C17.8103 23.9401 17.5743 24.1773 17.283 24.1773Z" fill="#475D6D"/>
<path d="M23.5273 24.1773C23.236 24.1773 23 23.9401 23 23.6475V23.3449C23 23.0524 23.236 22.8152 23.5273 22.8152C23.8186 22.8152 24.0547 23.0524 24.0547 23.3449V23.6475C24.0547 23.9401 23.8186 24.1773 23.5273 24.1773Z" fill="#475D6D"/>
<path d="M14.077 39.3027H12.754C12.0062 39.3027 11.3999 38.6937 11.3999 37.9424V34.9735C11.3999 34.2222 12.0062 33.6133 12.754 33.6133H14.077C14.6265 33.6133 15.0719 34.0607 15.0719 34.6126V38.3033C15.072 38.8553 14.6265 39.3027 14.077 39.3027Z" fill="#FFCCAA"/>
<path d="M26.2231 40.2846V44.4863H25.1685V40.2846C25.1685 39.9922 25.4047 39.7549 25.6958 39.7549C25.9869 39.7549 26.2231 39.9922 26.2231 40.2846Z" fill="#CE3A4C"/>
<path d="M15.6418 40.2846V44.4863H14.5872V40.2846C14.5872 39.9922 14.8234 39.7549 15.1145 39.7549C15.4056 39.7549 15.6418 39.9922 15.6418 40.2846Z" fill="#CE3A4C"/>
<path d="M44.854 40.2846V44.4863H43.7993V40.2846C43.7993 39.9922 44.0349 39.7549 44.3267 39.7549C44.6178 39.7549 44.854 39.9922 44.854 40.2846Z" fill="#1687C4"/>
</svg>
