<svg width="60" height="61" viewBox="0 0 60 61" fill="none" xmlns="http://www.w3.org/2000/svg">
<path d="M58 30.135C58 45.682 45.4555 58.27 30 58.27C14.5445 58.27 2 45.682 2 30.135C2 14.588 14.5445 2 30 2C45.4555 2 58 14.588 58 30.135Z" fill="white" stroke="#E3711D" stroke-width="4"/>
<path d="M38.3999 35.2954C38.3999 36.2277 39.1537 36.9905 40.0874 36.9905V37.5555C40.0874 38.1714 39.5812 38.6856 38.9624 38.6856H38.3999H25.4624C24.8437 38.6856 24.3374 38.1714 24.3374 37.5555V27.385V14.9543C24.3374 14.3327 24.8437 13.8242 25.4624 13.8242H38.9624C39.5812 13.8242 40.0874 14.3327 40.0874 14.9543V23.3563V23.4297C39.1537 23.4297 38.3999 24.1869 38.3999 25.1248C38.3999 26.0571 39.1537 26.8199 40.0874 26.8199C39.1537 26.8199 38.3999 27.5771 38.3999 28.515C38.3999 29.4473 39.1537 30.2101 40.0874 30.2101C39.1537 30.2101 38.3999 30.9673 38.3999 31.9052C38.3999 32.8375 39.1537 33.6003 40.0874 33.6003C39.1537 33.6003 38.3999 34.3574 38.3999 35.2954Z" fill="#5D9CEC"/>
<path d="M36.1499 30.7752V29.6452C36.1499 27.4591 34.3837 25.69 32.2124 25.69C32.6793 25.69 33.0562 25.3114 33.0562 24.8424C33.0562 24.3734 32.6793 23.9949 32.2124 23.9949C31.7455 23.9949 31.3687 24.3734 31.3687 24.8424C31.3687 25.3114 31.7455 25.69 32.2124 25.69C30.0412 25.69 28.2749 27.4591 28.2749 29.6452V30.7752H36.1499Z" fill="#CCD1D9"/>
<path d="M40.0874 26.8201H40.6499H40.6949C41.6062 26.837 42.3374 27.5942 42.3374 28.5095C42.3374 29.4475 41.5837 30.2046 40.6499 30.2046H40.0874V30.2103C39.1537 30.2103 38.3999 29.4475 38.3999 28.5152C38.3999 27.5772 39.1537 26.8201 40.0874 26.8201Z" fill="#EAC6BB"/>
<path d="M40.6499 26.8199H40.0874C39.1537 26.8199 38.3999 26.0571 38.3999 25.1248C38.3999 24.1868 39.1537 23.4297 40.0874 23.4297H40.6499C41.5837 23.4297 42.3374 24.1868 42.3374 25.1248C42.3374 26.0401 41.6062 26.7973 40.6949 26.8199C40.678 26.8199 40.6668 26.8199 40.6499 26.8199Z" fill="#EAC6BB"/>
<path d="M40.0874 30.2046H40.6499C41.5837 30.2046 42.3374 30.9674 42.3374 31.8997C42.3374 32.7811 41.6737 33.4987 40.8243 33.5829V33.6112C40.768 33.6061 40.7062 33.6004 40.6499 33.6004H40.0874C39.1537 33.6004 38.3999 32.8376 38.3999 31.9053C38.3999 30.9674 39.1537 30.2102 40.0874 30.2102V30.2046Z" fill="#EAC6BB"/>
<path d="M40.0874 36.9905C39.1537 36.9905 38.3999 36.2277 38.3999 35.2954C38.3999 34.3575 39.1537 33.6003 40.0874 33.6003H40.6499C40.7062 33.6003 40.768 33.606 40.8243 33.6116C41.6737 33.6964 42.3374 34.414 42.3374 35.2954C42.3374 36.2277 41.5837 36.9905 40.6499 36.9905H40.0874Z" fill="#EAC6BB"/>
<path d="M36.1499 29.0802V30.2103H28.2749V29.0802C28.2749 26.8935 30.0412 25.125 32.2124 25.125C34.3837 25.125 36.1499 26.8935 36.1499 29.0802Z" fill="#E6E9ED"/>
<path d="M32.2124 36.9906C32.8312 36.9906 33.3374 36.4821 33.3374 35.8605C33.3374 35.2333 32.8312 34.7305 32.2124 34.7305C31.5937 34.7305 31.0874 35.2333 31.0874 35.8605C31.0874 36.4821 31.5937 36.9906 32.2124 36.9906Z" fill="black"/>
<path d="M32.2124 34.7305C32.8312 34.7305 33.3374 35.2333 33.3374 35.8605C33.3374 36.4821 32.8312 36.9906 32.2124 36.9906C31.5937 36.9906 31.0874 36.4821 31.0874 35.8605C31.0874 35.2333 31.5937 34.7305 32.2124 34.7305Z" fill="#4A89DC"/>
<path d="M38.3999 38.6857L31.6499 46.2006L20.9624 42.4657V23.9949C22.8299 23.9949 24.3374 25.5092 24.3374 27.3851V37.5556C24.3374 38.1715 24.8437 38.6857 25.4624 38.6857H38.3999Z" fill="#EAC6BB"/>
<path d="M19.8374 40.2676L20.9624 40.6574L31.6499 44.3923L32.7749 44.7878L31.6499 47.0479H16.4624L19.8374 40.2676Z" fill="#656D78"/>
<path d="M20.4164 44.2223C20.1053 44.2223 19.8511 43.9698 19.8511 43.6573C19.8511 43.3449 20.0997 43.0923 20.4102 43.0923H20.4164C20.7269 43.0923 20.9789 43.3449 20.9789 43.6573C20.9789 43.9698 20.7269 44.2223 20.4164 44.2223Z" fill="#FFCE54"/>
<path d="M30.5419 14.8412C30.2308 14.8412 29.9766 14.5887 29.9766 14.2762C29.9766 13.9638 30.2252 13.7112 30.5357 13.7112H30.5419C30.8524 13.7112 31.1044 13.9638 31.1044 14.2762C31.1044 14.5887 30.8524 14.8412 30.5419 14.8412Z" fill="#4A89DC"/>
<path d="M33.8999 14.8412H32.2124C31.9013 14.8412 31.6499 14.5887 31.6499 14.2762C31.6499 13.9638 31.9013 13.7112 32.2124 13.7112H33.8999C34.211 13.7112 34.4624 13.9638 34.4624 14.2762C34.4624 14.5887 34.211 14.8412 33.8999 14.8412Z" fill="#4A89DC"/>
<path d="M36.1495 30.7775H28.2756C27.9646 30.7775 27.7131 30.525 27.7131 30.2125C27.7131 29.9 27.9646 29.6475 28.2756 29.6475H36.1495C36.4606 29.6475 36.712 29.9 36.712 30.2125C36.712 30.525 36.4606 30.7775 36.1495 30.7775Z" fill="white"/>
<path d="M29.4006 23.997C29.0896 23.997 28.8381 23.7445 28.8381 23.432V20.6046C28.8381 20.2921 29.0896 20.0396 29.4006 20.0396C29.7117 20.0396 29.9631 20.2921 29.9631 20.6046V23.432C29.9631 23.7445 29.7117 23.997 29.4006 23.997Z" fill="#E6E9ED"/>
<path d="M35.0256 23.997C34.7146 23.997 34.4631 23.7445 34.4631 23.432V20.6046C34.4631 20.2921 34.7146 20.0396 35.0256 20.0396C35.3367 20.0396 35.5881 20.2921 35.5881 20.6046V23.432C35.5881 23.7445 35.3367 23.997 35.0256 23.997Z" fill="#E6E9ED"/>
<path d="M32.2124 22.2997C31.9013 22.2997 31.6499 22.0471 31.6499 21.7346V20.6046C31.6499 20.2921 31.9013 20.0396 32.2124 20.0396C32.5235 20.0396 32.7749 20.2921 32.7749 20.6046V21.7346C32.7749 22.0471 32.5235 22.2997 32.2124 22.2997Z" fill="#E6E9ED"/>
</svg>
