<svg width="32" height="32" xmlns="http://www.w3.org/2000/svg"><defs><radialGradient cx="26.563%" cy="107.702%" fx="26.563%" fy="107.702%" r="99.843%" gradientTransform="matrix(0 -.99264 1 0 -.811 1.34)" id="a"><stop stop-color="#FD5" offset="0%"/><stop stop-color="#FD5" offset="10%"/><stop stop-color="#FF543E" offset="50%"/><stop stop-color="#C837AB" offset="100%"/></radialGradient><radialGradient cx="-16.751%" cy="7.204%" fx="-16.751%" fy="7.204%" r="44.617%" gradientTransform="scale(1 .99264) rotate(78.762 -.168 .072)" id="b"><stop stop-color="#3771C8" offset="0%"/><stop stop-color="#3771C8" offset="12.8%"/><stop stop-color="#60F" stop-opacity="0" offset="100%"/></radialGradient></defs><g fill="none"><path d="M15.886 0C9.256 0 7.317.007 6.94.038c-1.36.114-2.207.33-3.13.793a6.342 6.342 0 0 0-1.824 1.346C.978 3.231.367 4.527.146 6.069c-.107.748-.138.901-.145 4.723-.002 1.274 0 2.951 0 5.2 0 6.676.008 8.628.04 9.007.11 1.334.317 2.174.757 3.092a6.702 6.702 0 0 0 4.335 3.57c.655.169 1.378.262 2.306.307.394.017 4.402.03 8.413.03s8.022-.006 8.406-.025c1.075-.051 1.699-.136 2.389-.315a6.66 6.66 0 0 0 4.336-3.577c.43-.896.65-1.767.748-3.032.022-.276.03-4.671.03-9.06 0-4.391-.009-8.779-.03-9.054-.1-1.285-.32-2.15-.764-3.063a6.34 6.34 0 0 0-1.36-1.876C28.557.985 27.272.369 25.741.146 24.999.04 24.85.007 21.055 0h-5.169z" fill="url(#a)"/><path d="M15.886 0C9.256 0 7.317.007 6.94.038c-1.36.114-2.207.33-3.13.793a6.342 6.342 0 0 0-1.824 1.346C.978 3.231.367 4.527.146 6.069c-.107.748-.138.901-.145 4.723-.002 1.274 0 2.951 0 5.2 0 6.676.008 8.628.04 9.007.11 1.334.317 2.174.757 3.092a6.702 6.702 0 0 0 4.335 3.57c.655.169 1.378.262 2.306.307.394.017 4.402.03 8.413.03s8.022-.006 8.406-.025c1.075-.051 1.699-.136 2.389-.315a6.66 6.66 0 0 0 4.336-3.577c.43-.896.65-1.767.748-3.032.022-.276.03-4.671.03-9.06 0-4.391-.009-8.779-.03-9.054-.1-1.285-.32-2.15-.764-3.063a6.34 6.34 0 0 0-1.36-1.876C28.557.985 27.272.369 25.741.146 24.999.04 24.85.007 21.055 0h-5.169z" fill="url(#b)"/><path d="M15.879 4.185c-3.185 0-3.584.014-4.835.071-1.248.058-2.1.257-2.846.549a5.737 5.737 0 0 0-2.077 1.362A5.805 5.805 0 0 0 4.768 8.26c-.29.752-.489 1.61-.545 2.868-.056 1.26-.07 1.663-.07 4.872 0 3.209.014 3.61.07 4.87.058 1.258.256 2.117.545 2.868.3.777.7 1.437 1.353 2.093a5.737 5.737 0 0 0 2.076 1.364c.746.292 1.598.491 2.846.549 1.25.057 1.65.071 4.834.071 3.185 0 3.583-.014 4.834-.071 1.248-.058 2.101-.257 2.847-.549a5.732 5.732 0 0 0 2.076-1.364 5.805 5.805 0 0 0 1.353-2.092c.288-.752.486-1.61.545-2.868.056-1.26.07-1.662.07-4.871 0-3.209-.014-3.612-.07-4.872-.059-1.258-.257-2.116-.545-2.868a5.804 5.804 0 0 0-1.353-2.093 5.726 5.726 0 0 0-2.076-1.362c-.748-.292-1.6-.491-2.849-.549-1.25-.057-1.648-.071-4.834-.071h.004zm-1.052 2.129h1.052c3.13 0 3.502.011 4.738.068 1.143.052 1.763.245 2.177.407.547.214.937.47 1.347.883.41.414.665.808.878 1.36.16.415.351 1.04.403 2.192.057 1.246.069 1.62.069 4.773 0 3.154-.012 3.528-.069 4.773-.052 1.152-.243 1.777-.403 2.193a3.656 3.656 0 0 1-.878 1.358c-.41.413-.8.67-1.347.883-.413.163-1.034.355-2.177.408-1.236.056-1.608.068-4.738.068-3.131 0-3.502-.012-4.738-.068-1.143-.054-1.764-.246-2.177-.408a3.63 3.63 0 0 1-1.349-.884 3.665 3.665 0 0 1-.877-1.358c-.16-.416-.352-1.04-.404-2.193-.056-1.245-.067-1.62-.067-4.775 0-3.155.01-3.527.067-4.773.052-1.152.243-1.777.404-2.193.212-.552.467-.946.877-1.36.41-.413.801-.669 1.349-.883.413-.163 1.034-.355 2.177-.408 1.082-.049 1.5-.064 3.686-.066v.003zm7.31 1.962c-.776 0-1.406.634-1.406 1.417s.63 1.418 1.407 1.418c.776 0 1.407-.635 1.407-1.418 0-.783-.63-1.418-1.407-1.418zM15.88 9.932c-3.325 0-6.022 2.717-6.022 6.068 0 3.35 2.697 6.066 6.022 6.066s6.02-2.715 6.02-6.066c0-3.35-2.695-6.068-6.02-6.068zm0 2.13c2.158 0 3.908 1.763 3.908 3.938 0 2.175-1.75 3.938-3.908 3.938-2.159 0-3.909-1.763-3.909-3.938 0-2.175 1.75-3.938 3.909-3.938z" fill="#FFF"/></g></svg>