<svg width="32" height="32" xmlns="http://www.w3.org/2000/svg"><g fill="none"><path d="M11.094 0h9.812C29.866 0 32 2.134 32 11.094v9.812C32 29.866 29.866 32 20.906 32h-9.812C2.134 32 0 29.866 0 20.906v-9.812C0 2.134 2.134 0 11.094 0z" fill="#5181B8"/><path d="M26.206 11.024c.148-.494 0-.857-.705-.857h-2.335c-.595 0-.868.313-1.015.66 0 0-1.188 2.892-2.869 4.77-.543.545-.79.717-1.087.717-.148 0-.363-.172-.363-.667v-4.623c0-.593-.171-.857-.666-.857h-3.667c-.371 0-.594.274-.594.537 0 .561.84.691.927 2.274v3.436c0 .753-.136.889-.432.889-.792 0-2.715-2.905-3.857-6.229-.223-.647-.448-.907-1.044-.907H6.167c-.666 0-.8.313-.8.66 0 .618.79 3.683 3.683 7.736 1.928 2.77 4.645 4.27 7.117 4.27 1.483 0 1.666-.332 1.666-.907v-2.092c0-.667.14-.8.61-.8.347 0 .94.172 2.324 1.508 1.583 1.581 1.843 2.291 2.734 2.291h2.332c.668 0 1-.332.808-.99-.21-.657-.966-1.608-1.968-2.736-.544-.642-1.36-1.334-1.607-1.68-.346-.445-.247-.643 0-1.038 0 0 2.843-4.005 3.14-5.365z" fill="#FFF"/></g></svg>