<svg width="32" height="23" xmlns="http://www.w3.org/2000/svg"><g fill="none"><path d="M31.28 3.499A4.001 4.001 0 0 0 28.465.684C25.965 0 15.969 0 15.969 0S5.972 0 3.472.658C2.131 1.026 1.026 2.13.658 3.499 0 5.999 0 11.181 0 11.181s0 5.209.658 7.682a4.002 4.002 0 0 0 2.815 2.815c2.525.684 12.496.684 12.496.684s9.997 0 12.496-.658a4.001 4.001 0 0 0 2.815-2.815c.658-2.5.658-7.682.658-7.682s.026-5.209-.658-7.708z" fill="red"/><path fill="#FFF" d="M12.7855751 15.968811L21.0986842 11.1807993 12.7855751 6.39278752z"/></g></svg>