<svg width="60" height="61" viewBox="0 0 60 61" fill="none" xmlns="http://www.w3.org/2000/svg">
<path d="M58 30.135C58 45.682 45.4555 58.27 30 58.27C14.5445 58.27 2 45.682 2 30.135C2 14.588 14.5445 2 30 2C45.4555 2 58 14.588 58 30.135Z" fill="white" stroke="#E3711D" stroke-width="4"/>
<path d="M47.4001 22.9752C47.4001 17.9423 42.2854 13.8621 35.9767 13.8621C29.6675 13.8621 24.5532 17.9423 24.5532 22.9752C24.5532 27.4717 28.6353 31.2073 34.0046 31.9527H33.9883C34.2701 33.6912 33.7502 35.5371 32.428 36.8779C35.2651 36.8779 37.607 34.7315 37.9627 31.953H37.9465C43.3165 31.2082 47.4001 27.4723 47.4001 22.9752Z" fill="#FFD24D"/>
<path d="M31.9497 23.7784C32.3915 23.7784 32.7497 23.4186 32.7497 22.9748C32.7497 22.5309 32.3915 22.1711 31.9497 22.1711C31.5078 22.1711 31.1497 22.5309 31.1497 22.9748C31.1497 23.4186 31.5078 23.7784 31.9497 23.7784Z" fill="#F14742"/>
<path d="M40.0031 23.7784C40.445 23.7784 40.8032 23.4186 40.8032 22.9748C40.8032 22.5309 40.445 22.1711 40.0031 22.1711C39.5613 22.1711 39.2031 22.5309 39.2031 22.9748C39.2031 23.4186 39.5613 23.7784 40.0031 23.7784Z" fill="#F14742"/>
<path d="M35.9768 23.7784C36.4186 23.7784 36.7768 23.4186 36.7768 22.9748C36.7768 22.5309 36.4186 22.1711 35.9768 22.1711C35.5349 22.1711 35.1768 22.5309 35.1768 22.9748C35.1768 23.4186 35.5349 23.7784 35.9768 23.7784Z" fill="#F14742"/>
<path d="M36.0091 42.9436C34.2802 41.2069 32.4284 39.745 32.4284 39.745L29.7304 42.4552L18.9347 31.6109L21.6328 28.9007C21.6328 28.9007 20.1774 27.0406 18.4485 25.3039C16.7195 23.5672 14.8677 22.1052 14.8677 22.1052C14.8677 22.1052 11.635 25.0926 11.4175 27.4621C11.1266 30.6336 14.4687 36.3998 19.7158 41.6706C24.963 46.9413 30.7034 50.2984 33.8607 50.0063C36.2194 49.7878 39.1935 46.5405 39.1935 46.5405C39.1935 46.5405 37.7381 44.6802 36.0091 42.9436Z" fill="#1B4145"/>
</svg>
