<svg width="60" height="61" viewBox="0 0 60 61" fill="none" xmlns="http://www.w3.org/2000/svg">
<path d="M58 30.135C58 45.682 45.4555 58.27 30 58.27C14.5445 58.27 2 45.682 2 30.135C2 14.588 14.5445 2 30 2C45.4555 2 58 14.588 58 30.135Z" fill="white" stroke="#E3711D" stroke-width="4"/>
<path d="M50.0007 30.1351C50.0007 30.6222 49.9836 31.1041 49.9492 31.5823C49.7258 34.7416 48.7745 37.6995 47.2636 40.2856C46.7903 41.0967 46.262 41.8708 45.6831 42.6037C45.2122 43.2009 44.7077 43.7708 44.173 44.3103C43.6097 44.8786 43.0122 45.4139 42.3844 45.9117C40.991 47.0171 39.4474 47.9396 37.7903 48.644C36.6742 49.1189 35.506 49.4944 34.2978 49.7602C33.2977 49.9797 32.2684 50.125 31.2179 50.1881C30.8154 50.2126 30.4098 50.2249 30.0006 50.2249C29.6734 50.2249 29.3475 50.2166 29.0243 50.2013C22.044 49.8641 16.0024 45.9332 12.6936 40.2096C10.981 37.2477 10.0007 33.806 10.0007 30.1351C10.0007 19.0394 18.955 10.0449 30.0006 10.0449C41.0465 10.0449 50.0007 19.0394 50.0007 30.1351Z" fill="#66BAED"/>
<path d="M25.7262 36.1185V49.765C19.4152 48.3849 14.2168 44.0125 11.678 38.2013V36.1185C11.678 33.656 13.3424 31.5837 15.6035 30.9771C15.6862 30.9541 15.7692 30.9335 15.8543 30.9155C16.0786 30.8664 16.3091 30.8327 16.5431 30.8137C16.686 30.8023 16.8306 30.7959 16.9768 30.7959H20.4274C20.8135 30.7959 21.1889 30.8367 21.5514 30.9155C21.5728 30.9194 21.5929 30.9246 21.6134 30.9296C21.6747 30.9433 21.7351 30.9581 21.7955 30.9746C21.798 30.9752 21.798 30.9752 21.8004 30.9762C22.3971 31.1362 22.9522 31.3986 23.4453 31.7428C24.8241 32.7039 25.7262 34.3053 25.7262 36.1185Z" fill="#3D4159"/>
<path d="M21.8131 30.9155L21.8003 30.9762L20.1099 38.8711C20.0226 38.8788 19.9347 38.8856 19.8468 38.8917C19.7232 38.8997 19.5987 38.9073 19.4736 38.9128C19.2179 38.9248 18.9609 38.9309 18.7027 38.9309C18.4375 38.9309 18.1745 38.9248 17.9126 38.9119C17.7942 38.9067 17.6758 38.9 17.5574 38.8911C17.4689 38.8849 17.381 38.8788 17.2931 38.8711L15.6036 30.9768L15.5908 30.9155H21.8131Z" fill="#F74F4F"/>
<path d="M20.1247 32.7163L18.7022 35.0078L17.2798 32.7163" fill="#DDE8ED"/>
<path d="M19.8468 38.8916C19.7232 38.8995 18.9609 42.9491 18.7024 42.9491C18.4372 42.9491 17.6758 38.8998 17.5574 38.8909L18.7024 34.4116L19.8468 38.8916Z" fill="#DDE8ED"/>
<path d="M18.7016 32.9749L16.3163 34.3066L15.5906 30.9158L17.0728 30.0391" fill="#DD3033"/>
<path d="M18.7017 32.9749L21.0872 34.3066L21.813 30.9158L20.3307 30.0391" fill="#DD3033"/>
<path d="M21.903 35.4911H22.6596L19.4131 43.9314L18.7741 45.5935L18.0654 43.8247L18.7176 41.5755L21.7953 30.9747L21.8133 30.9155L23.4451 31.4511L21.903 35.4911Z" fill="#2A2F4F"/>
<path d="M19.4131 43.9314L18.7741 45.5935L18.0655 43.8247L14.7259 35.4911H15.4833L13.9407 31.4511L15.5731 30.9155L15.5905 30.9747L18.7176 41.5755L19.4131 43.9314Z" fill="#2A2F4F"/>
<path d="M20.5924 28.7456V31.076C20.5924 31.9294 20.0324 32.6505 19.2609 32.8899C19.0845 32.9451 18.8962 32.9748 18.7018 32.9748C17.6578 32.9748 16.8115 32.1247 16.8115 31.076V28.7456H20.5924Z" fill="#EAB599"/>
<path d="M20.5925 30.9287V31.0762C20.5925 31.9296 20.0325 32.6506 19.261 32.89C18.5652 32.6751 18.0418 32.0672 17.9451 31.3235C18.0714 31.3312 18.1984 31.3352 18.3259 31.3352C18.6836 31.3352 19.0342 31.3067 19.3757 31.2503C19.7966 31.1825 20.2034 31.0737 20.5925 30.9287Z" fill="#F6CAAE"/>
<path d="M13.516 24.9264C13.516 25.8056 12.8769 26.5346 12.0398 26.6698C11.9483 26.6848 11.854 26.6925 11.7581 26.6925C10.7867 26.6925 10 25.9019 10 24.9264C10 23.951 10.7867 23.1604 11.7581 23.1604C11.854 23.1604 11.9483 23.1684 12.0398 23.1831C12.8769 23.3186 13.516 24.0473 13.516 24.9264Z" fill="#F6CAAE"/>
<path d="M13.516 24.9267C13.516 25.8059 12.877 26.5349 12.0399 26.6701C11.8876 26.1146 11.8064 25.53 11.8064 24.9267C11.8064 24.3234 11.8876 23.7388 12.0399 23.1833C12.877 23.3188 13.516 24.0475 13.516 24.9267Z" fill="#EAB599"/>
<path d="M12.3864 24.9264C12.3864 25.2749 12.105 25.5575 11.758 25.5575C11.411 25.5575 11.1296 25.2749 11.1296 24.9264C11.1296 24.5778 11.411 24.2952 11.758 24.2952C12.105 24.2952 12.3864 24.5778 12.3864 24.9264Z" fill="#EAB599"/>
<path d="M23.8877 24.9264C23.8877 25.8056 24.527 26.5346 25.3641 26.6698C25.4557 26.6848 25.5497 26.6925 25.6458 26.6925C26.6169 26.6925 27.4037 25.9019 27.4037 24.9264C27.4037 23.951 26.6169 23.1604 25.6458 23.1604C25.5497 23.1604 25.4557 23.1684 25.3641 23.1831C24.527 23.3186 23.8877 24.0473 23.8877 24.9264Z" fill="#F6CAAE"/>
<path d="M23.8877 24.9267C23.8877 25.8059 24.527 26.5349 25.3641 26.6701C25.5161 26.1146 25.5973 25.53 25.5973 24.9267C25.5973 24.3234 25.5161 23.7388 25.3641 23.1833C24.527 23.3188 23.8877 24.0475 23.8877 24.9267Z" fill="#EAB599"/>
<path d="M25.243 21.4862V23.9883C25.243 27.258 22.865 29.9703 19.7516 30.4737C19.7412 30.4752 19.7299 30.4771 19.7195 30.4789C19.3884 30.5322 19.0485 30.5583 18.7018 30.5583C15.0894 30.5583 12.1609 27.6166 12.1609 23.9883V21.4862C12.1609 20.722 12.2906 19.9878 12.5305 19.3057C13.4249 16.7485 15.8505 14.9153 18.7018 14.9153H18.7021C19.0485 14.9153 19.389 14.9423 19.7208 14.9947C22.8494 15.4861 25.243 18.2055 25.243 21.4862Z" fill="#EAB599"/>
<path d="M26.274 24.9264C26.274 25.2749 25.9929 25.5575 25.6459 25.5575C25.2986 25.5575 25.0176 25.2749 25.0176 24.9264C25.0176 24.5778 25.2986 24.2952 25.6459 24.2952C25.9929 24.2952 26.274 24.5778 26.274 24.9264Z" fill="#EAB599"/>
<path d="M25.243 21.4862V23.9882C25.243 27.2579 22.8651 29.9703 19.7516 30.4736C19.7413 30.4752 19.73 30.477 19.7196 30.4788C16.5909 29.9877 14.198 27.2683 14.198 23.9882V21.4862C14.198 18.2054 16.5915 15.4857 19.7208 14.9946C22.8495 15.486 25.243 18.2054 25.243 21.4862Z" fill="#F6CAAE"/>
<path d="M17.309 23.6051C17.309 24.0168 16.9767 24.3506 16.5668 24.3506C16.1573 24.3506 15.825 24.0168 15.825 23.6051C15.825 23.1937 16.1573 22.8599 16.5668 22.8599C16.9767 22.8599 17.309 23.1937 17.309 23.6051Z" fill="#3D4159"/>
<path d="M21.5791 23.6051C21.5791 24.0168 21.247 24.3506 20.8372 24.3506C20.4273 24.3506 20.095 24.0168 20.095 23.6051C20.095 23.1937 20.4273 22.8599 20.8372 22.8599C21.247 22.8599 21.5791 23.1937 21.5791 23.6051Z" fill="#3D4159"/>
<path d="M17.1577 23.4737C17.1577 23.6502 17.0155 23.7931 16.8397 23.7931C16.6642 23.7931 16.5217 23.6502 16.5217 23.4737C16.5217 23.2974 16.6642 23.1545 16.8397 23.1545C17.0155 23.1545 17.1577 23.2974 17.1577 23.4737Z" fill="white"/>
<path d="M21.4644 23.4737C21.4644 23.6502 21.3218 23.7931 21.1464 23.7931C20.9709 23.7931 20.8284 23.6502 20.8284 23.4737C20.8284 23.2974 20.9709 23.1545 21.1464 23.1545C21.3218 23.1545 21.4644 23.2974 21.4644 23.4737Z" fill="white"/>
<path d="M19.4441 25.19H17.96C17.7833 25.19 17.6399 25.0459 17.6399 24.8684C17.6399 24.691 17.7833 24.5469 17.96 24.5469H19.4441C19.6208 24.5469 19.7642 24.691 19.7642 24.8684C19.7642 25.0459 19.6208 25.19 19.4441 25.19Z" fill="#EAB599"/>
<path d="M18.7019 27.2241C18.1544 27.2241 17.6066 27.0862 17.1074 26.8106C16.9667 26.7327 16.9151 26.5549 16.9926 26.4136C17.0701 26.272 17.2468 26.2205 17.3878 26.2981C18.2109 26.7527 19.1936 26.7527 20.0166 26.2981C20.1573 26.2205 20.3343 26.272 20.4115 26.4136C20.489 26.5549 20.4378 26.7327 20.2968 26.8106C19.7975 27.0862 19.2497 27.2241 18.7019 27.2241Z" fill="#EAB599"/>
<path d="M25.243 19.2154V21.7782H24.0256V19.7712L15.2377 18.1308L13.3782 17.7835V21.7782H12.1609V19.2154C12.1609 16.2936 14.5184 13.9255 17.4264 13.9255H19.9771C20.0464 13.9255 20.1157 13.9265 20.1849 13.9301C22.9965 14.0387 25.243 16.3632 25.243 19.2154Z" fill="#E8C934"/>
<path d="M25.2428 19.2154V21.7782H24.0255V19.7712L15.2375 18.1308C15.7219 15.7949 17.7394 14.0246 20.1848 13.9302C22.9964 14.0387 25.2428 16.3633 25.2428 19.2154Z" fill="#FFE152"/>
<path d="M45.6827 42.6038C45.2118 43.201 44.7073 43.7708 44.1726 44.3104C42.3577 46.1414 40.1937 47.6223 37.7898 48.6441C36.6738 49.1189 35.5056 49.4944 34.2974 49.7602C33.2973 49.9797 32.268 50.125 31.2175 50.1882V49.0312C31.2175 45.7717 33.4215 43.0278 36.415 42.2234C36.5243 42.1949 36.6344 42.167 36.7464 42.143C37.0437 42.0784 37.3489 42.0333 37.6598 42.0079C37.8484 41.9922 38.0395 41.9849 38.2339 41.9849H42.8021C43.312 41.9849 43.8101 42.0388 44.2901 42.143C44.317 42.1489 44.3457 42.1547 44.3716 42.1611C44.4525 42.1792 44.5334 42.1998 44.6127 42.2218C44.6158 42.2218 44.6176 42.2218 44.6191 42.2227C44.9866 42.3218 45.3424 42.449 45.6827 42.6038Z" fill="#DD3033"/>
<path d="M45.6826 42.6038C42.8698 46.1693 38.8772 48.7532 34.2974 49.7602V49.0313C34.2974 45.7717 36.5014 43.0278 39.4949 42.2234C39.6044 42.1949 39.7146 42.167 39.8263 42.143C40.1235 42.0784 40.429 42.0333 40.74 42.0079C40.9292 41.9922 41.1202 41.9849 41.3137 41.9849H42.8021C43.312 41.9849 43.8101 42.0388 44.2901 42.143C44.317 42.1489 44.3457 42.1547 44.3716 42.1611C44.4525 42.1792 44.5333 42.1998 44.6127 42.2218C44.6157 42.2218 44.6176 42.2218 44.6191 42.2227C44.9865 42.3218 45.3424 42.449 45.6826 42.6038Z" fill="#F74F4F"/>
<path d="M44.6371 42.1431L44.6191 42.2228L44.1727 44.3104C42.3578 46.1414 40.1938 47.6224 37.7899 48.6441L36.415 42.2234L36.3979 42.1431H44.6371Z" fill="#F2F0EC"/>
<path d="M40.5172 44.8697L37.3586 46.6327L36.3979 42.1436L38.3605 40.9827" fill="#D8D5D0"/>
<path d="M44.6361 42.1439L44.1726 44.3103C43.6092 44.8786 43.0117 45.4139 42.3839 45.9117L40.5168 44.8694L42.6738 40.9827L44.6361 42.1439Z" fill="#D8D5D0"/>
<path d="M49.9488 29.6577V31.5823C49.7254 34.7416 48.7741 37.6995 47.2632 40.2856H31.0869V29.6577C31.0869 28.5787 31.2664 27.5199 31.6207 26.5138C32.9448 22.7288 36.5203 20.1841 40.5178 20.1841C41.0125 20.1841 41.5072 20.2227 41.9873 20.299C44.1833 20.6442 46.1978 21.7702 47.659 23.47C49.1358 25.1879 49.9488 27.3856 49.9488 29.6577Z" fill="#3D4159"/>
<path d="M34.9666 30.0731C34.9666 33.8326 37.1578 38.1816 38.3614 40.2858H31.0869V29.6583C31.0869 28.5786 31.2664 27.5207 31.6204 26.5137C32.9363 22.7505 36.4791 20.2141 40.4489 20.1855C37.5494 20.2582 34.9666 24.9307 34.9666 30.0731Z" fill="#2A2F4F"/>
<path d="M43.021 39.2698V42.3552C43.021 43.4849 42.2797 44.4398 41.2583 44.7567C41.0245 44.8297 40.7755 44.8689 40.5176 44.8689C39.1354 44.8689 38.0151 43.7436 38.0151 42.3552V39.2698H43.021Z" fill="#EAB599"/>
<path d="M43.0208 42.1604V42.3557C43.0208 43.4853 42.2796 44.4402 41.2581 44.7572C40.3368 44.4727 39.6437 43.668 39.5159 42.6831C39.6831 42.6935 39.8513 42.6987 40.02 42.6987C40.4937 42.6987 40.9578 42.661 41.4101 42.5862C41.9671 42.4964 42.5057 42.3523 43.0208 42.1604Z" fill="#F6CAAE"/>
<path d="M33.652 34.2131C33.652 35.377 32.8058 36.3421 31.6973 36.5211C31.5762 36.541 31.4517 36.5511 31.3244 36.5511C30.0384 36.5511 28.9968 35.5049 28.9968 34.2131C28.9968 32.9216 30.0384 31.875 31.3244 31.875C31.4514 31.875 31.5762 31.8851 31.6973 31.905C32.8058 32.0841 33.652 33.0491 33.652 34.2131Z" fill="#F6CAAE"/>
<path d="M33.6519 34.2131C33.6519 35.377 32.8057 36.3421 31.6973 36.5211C31.4959 35.786 31.3884 35.0119 31.3884 34.2131C31.3884 33.4142 31.4959 32.6404 31.6973 31.905C32.8057 32.0841 33.6519 33.0491 33.6519 34.2131Z" fill="#EAB599"/>
<path d="M32.1563 34.2131C32.1563 34.6748 31.7836 35.0488 31.3243 35.0488C30.8647 35.0488 30.4924 34.6748 30.4924 34.2131C30.4924 33.7517 30.8647 33.3774 31.3243 33.3774C31.7836 33.3774 32.1563 33.7517 32.1563 34.2131Z" fill="#EAB599"/>
<path d="M46.4946 31.2274V39.2646C45.2577 40.4503 43.672 41.2716 41.9075 41.557C41.8938 41.5594 41.8791 41.5619 41.8651 41.564C41.4268 41.6345 40.9767 41.6695 40.5174 41.6695C35.735 41.6695 31.8577 37.7747 31.8577 32.9705V29.6579C31.8577 29.2336 31.8876 28.8164 31.9462 28.4087C34.0067 29.897 36.9609 29.7502 38.8432 27.963C39.4664 27.3716 39.8994 26.6672 40.1445 25.9204C40.2809 27.2285 40.8766 28.5016 41.9322 29.504C43.1889 30.6959 44.8494 31.271 46.4946 31.2274Z" fill="#EAB599"/>
<path d="M46.4945 31.2274V39.2646C45.2577 40.4503 43.6719 41.2716 41.9074 41.557C41.8937 41.5594 41.879 41.5619 41.865 41.564C37.7228 40.9138 34.5544 37.3134 34.5544 32.9705V29.6579C34.5544 29.5696 34.556 29.4822 34.559 29.3946C36.0861 29.5518 37.6718 29.0751 38.8431 27.963C39.4666 27.3716 39.8996 26.6672 40.1444 25.9204C40.2808 27.2285 40.8765 28.5016 41.9321 29.504C43.1888 30.6959 44.8493 31.271 46.4945 31.2274Z" fill="#F6CAAE"/>
<path d="M31.406 28.3103L31.5037 28.0516C31.471 28.0222 31.438 27.9937 31.406 27.9636V28.3103Z" fill="#FFE152"/>
<path d="M45.1686 32.2363C45.1686 31.4383 44.5247 30.7915 43.7303 30.7915C42.9359 30.7915 42.292 31.4383 42.292 32.2363" fill="#EAB599"/>
<path d="M38.7443 32.2363C38.7443 31.4383 38.1004 30.7915 37.306 30.7915C36.5116 30.7915 35.8677 31.4383 35.8677 32.2363" fill="#EAB599"/>
<path d="M38.2888 32.851C38.2888 33.3961 37.8487 33.8378 37.3061 33.8378C36.7635 33.8378 36.3237 33.3961 36.3237 32.851C36.3237 32.306 36.7635 31.8643 37.3061 31.8643C37.8487 31.8643 38.2888 32.306 38.2888 32.851Z" fill="#3D4159"/>
<path d="M44.7128 32.851C44.7128 33.3961 44.273 33.8378 43.7304 33.8378C43.1878 33.8378 42.748 33.3961 42.748 32.851C42.748 32.306 43.1878 31.8643 43.7304 31.8643C44.273 31.8643 44.7128 32.306 44.7128 32.851Z" fill="#3D4159"/>
<path d="M41.5009 35.3357H39.5362C39.3021 35.3357 39.1123 35.1453 39.1123 34.9102C39.1123 34.675 39.3021 34.4844 39.5362 34.4844H41.5009C41.735 34.4844 41.9248 34.675 41.9248 34.9102C41.9248 35.1453 41.735 35.3357 41.5009 35.3357Z" fill="#EAB599"/>
<path d="M40.5185 38.0292C39.7931 38.0292 39.068 37.8468 38.407 37.4817C38.2205 37.3787 38.1525 37.1433 38.255 36.956C38.3576 36.7687 38.5919 36.7006 38.7781 36.8033C39.8679 37.4051 41.1689 37.4051 42.2587 36.8033C42.4451 36.7003 42.6792 36.7687 42.7817 36.956C42.8843 37.1433 42.8162 37.3787 42.6298 37.4817C41.9687 37.8468 41.2436 38.0292 40.5185 38.0292Z" fill="#EAB599"/>
<path d="M38.0883 32.6772C38.0883 32.9108 37.9 33.0999 37.6675 33.0999C37.4349 33.0999 37.2463 32.9108 37.2463 32.6772C37.2463 32.4436 37.4349 32.2542 37.6675 32.2542C37.9 32.2542 38.0883 32.4436 38.0883 32.6772Z" fill="white"/>
<path d="M44.5607 32.6772C44.5607 32.9108 44.3721 33.0999 44.1396 33.0999C43.9074 33.0999 43.7188 32.9108 43.7188 32.6772C43.7188 32.4436 43.9074 32.2542 44.1396 32.2542C44.3721 32.2542 44.5607 32.4436 44.5607 32.6772Z" fill="white"/>
<path d="M46.4122 35.2548C46.4122 35.8532 45.9294 36.3385 45.3337 36.3385C44.738 36.3385 44.2549 35.8532 44.2549 35.2548C44.2549 34.6564 44.738 34.1711 45.3337 34.1711C45.9294 34.1711 46.4122 34.6564 46.4122 35.2548Z" fill="#EAB599"/>
<path d="M36.7808 35.2548C36.7808 35.8532 36.298 36.3385 35.702 36.3385C35.1063 36.3385 34.6235 35.8532 34.6235 35.2548C34.6235 34.6564 35.1063 34.1711 35.702 34.1711C36.298 34.1711 36.7808 34.6564 36.7808 35.2548Z" fill="#EAB599"/>
<path d="M29.0238 37.196V50.2015C22.0435 49.8643 16.0019 45.9334 12.6931 40.2098V37.196H29.0238Z" fill="#F2F0EC"/>
<path d="M29.0241 48.2653L31.9626 43.3455L27.677 44.6983" fill="#F2F0EC"/>
<path d="M27.3064 10.5591H39.4699V19.743H27.3064V10.5591Z" fill="#F2F0EC"/>
<path d="M29.7554 19.1691L28.4492 22.2852L34.1637 19.0051L29.7554 19.1691Z" fill="#F2F0EC"/>
<path d="M31.9703 15.1511C31.9703 15.6266 31.5867 16.0119 31.1133 16.0119C30.6397 16.0119 30.2561 15.6266 30.2561 15.1511C30.2561 14.6757 30.6397 14.29 31.1133 14.29C31.5867 14.29 31.9703 14.6757 31.9703 15.1511Z" fill="#3D4159"/>
<path d="M34.2452 15.1511C34.2452 15.6266 33.8616 16.0119 33.3879 16.0119C32.9146 16.0119 32.531 15.6266 32.531 15.1511C32.531 14.6757 32.9146 14.29 33.3879 14.29C33.8616 14.29 34.2452 14.6757 34.2452 15.1511Z" fill="#3D4159"/>
<path d="M36.5201 15.1511C36.5201 15.6266 36.1362 16.0119 35.6628 16.0119C35.1895 16.0119 34.8059 15.6266 34.8059 15.1511C34.8059 14.6757 35.1895 14.29 35.6628 14.29C36.1362 14.29 36.5201 14.6757 36.5201 15.1511Z" fill="#3D4159"/>
<path d="M18.8166 43.6984C18.8166 44.2873 18.3414 44.7646 17.7555 44.7646C17.1693 44.7646 16.6941 44.2873 16.6941 43.6984C16.6941 43.1099 17.1693 42.6326 17.7555 42.6326C18.3414 42.6326 18.8166 43.1099 18.8166 43.6984Z" fill="#3D4159"/>
<path d="M21.6327 43.6984C21.6327 44.2873 21.1578 44.7646 20.5716 44.7646C19.9857 44.7646 19.5105 44.2873 19.5105 43.6984C19.5105 43.1099 19.9857 42.6326 20.5716 42.6326C21.1578 42.6326 21.6327 43.1099 21.6327 43.6984Z" fill="#3D4159"/>
<path d="M24.4494 43.6984C24.4494 44.2873 23.9743 44.7646 23.3883 44.7646C22.8021 44.7646 22.3269 44.2873 22.3269 43.6984C22.3269 43.1099 22.8021 42.6326 23.3883 42.6326C23.9743 42.6326 24.4494 43.1099 24.4494 43.6984Z" fill="#3D4159"/>
</svg>
