<svg width="60" height="61" viewBox="0 0 60 61" fill="none" xmlns="http://www.w3.org/2000/svg">
<path d="M58 30.135C58 45.682 45.4555 58.27 30 58.27C14.5445 58.27 2 45.682 2 30.135C2 14.588 14.5445 2 30 2C45.4555 2 58 14.588 58 30.135Z" fill="white" stroke="#E3711D" stroke-width="4"/>
<path d="M30.4575 11.518C29.9074 11.3038 29.2966 11.6243 29.145 12.197C28.8034 13.4866 27.562 14.8114 27.562 14.8114L30.4 16.5914L33.238 14.8115C33.2381 12.9498 31.6492 11.982 30.4575 11.518Z" fill="#F3F5E6"/>
<path d="M33.238 13.0034H27.5621C26.1805 13.0034 25.0605 14.1285 25.0605 15.5162V16.418L30.4 18.4885L35.7395 16.418V15.5162C35.7395 14.1285 34.6196 13.0034 33.238 13.0034Z" fill="#D7D9CC"/>
<path d="M35.7395 16.4182H25.0606C23.2969 16.4182 21.8672 17.8545 21.8672 19.626V20.5593L30.4 23.1383L38.9329 20.5593V19.626C38.933 17.8544 37.5032 16.4182 35.7395 16.4182Z" fill="#F3F5E6"/>
<path d="M20.3588 13.6238C19.3798 14.699 18.9948 16.4423 19.4927 18.1851C19.9907 19.9278 21.2376 21.2006 22.6353 21.5905C23.6145 20.5153 23.9994 18.772 23.5015 17.0293C23.0035 15.2865 21.7566 14.0137 20.3588 13.6238Z" fill="#2AAC92"/>
<path d="M16.5304 16.181C16.1927 17.5981 16.6968 19.3105 17.9731 20.5926C19.2494 21.8746 20.9541 22.381 22.3649 22.0417C22.7027 20.6246 22.1985 18.9122 20.9222 17.6302C19.646 16.3482 17.9412 15.8418 16.5304 16.181Z" fill="#4CC7B3"/>
<path d="M43.9517 29.7103L46.2032 40.9377C46.7079 43.455 44.7928 45.8053 42.2368 45.8053H18.5633C16.0073 45.8053 14.0922 43.455 14.597 40.9377L16.8485 29.7102L20.7129 25.8284H40.4591L43.9517 29.7103Z" fill="#FEEA61"/>
<path d="M22.9093 45.8052C20.3533 45.8052 18.4381 43.4549 18.943 40.9376L21.9728 25.8284H20.7128L16.8484 29.7102L14.7357 40.246L14.5969 40.9376C14.5496 41.1737 14.5235 41.4082 14.5174 41.6395C14.4903 42.6416 14.835 43.5824 15.4323 44.3155C15.5242 44.4283 15.6221 44.5361 15.7255 44.6385C16.4495 45.3553 17.445 45.8052 18.5632 45.8052H22.9093Z" fill="#FEC300"/>
<path d="M43.9515 29.7103C43.6224 29.565 43.2695 29.4931 42.9166 29.4931C42.3655 29.4931 41.8144 29.6696 41.3522 30.0242C40.89 30.3787 40.3389 30.5552 39.7878 30.5552C39.2367 30.5552 38.6856 30.3787 38.2234 30.0242C37.7613 29.6696 37.2102 29.4931 36.659 29.4931C36.1072 29.4931 35.556 29.6696 35.094 30.0242C34.6318 30.3787 34.0807 30.5552 33.5289 30.5552C32.9778 30.5552 32.4267 30.3787 31.9645 30.0242C31.5023 29.6696 30.9512 29.4931 30.4001 29.4931C29.849 29.4931 29.2979 29.6696 28.8357 30.0242C28.3736 30.3787 27.8224 30.5552 27.2713 30.5552C26.7195 30.5552 26.1683 30.3787 25.7063 30.0242C25.2441 29.6696 24.693 29.4931 24.1412 29.4931C23.5901 29.4931 23.0389 29.6696 22.5768 30.0242C22.1146 30.3787 21.5635 30.5552 21.0124 30.5552C20.4613 30.5552 19.9102 30.3787 19.448 30.0242C18.69 29.4437 17.6927 29.3391 16.8486 29.7104L18.0551 23.6942C18.4203 21.8714 20.0152 20.5593 21.8673 20.5593H38.9332C40.7855 20.5593 42.3802 21.8714 42.7454 23.6942L43.9515 29.7103Z" fill="#A8503C"/>
<path d="M23.387 37.5883C23.0869 37.5883 22.8438 37.344 22.8438 37.0426V35.7676C22.8438 35.4662 23.0869 35.2219 23.387 35.2219C23.6871 35.2219 23.9302 35.4662 23.9302 35.7676V37.0426C23.9303 37.344 23.6871 37.5883 23.387 37.5883Z" fill="#3B484A"/>
<path d="M37.4131 37.5883C37.113 37.5883 36.8699 37.344 36.8699 37.0426V35.7676C36.8699 35.4662 37.113 35.2219 37.4131 35.2219C37.7132 35.2219 37.9563 35.4662 37.9563 35.7676V37.0426C37.9564 37.344 37.7133 37.5883 37.4131 37.5883Z" fill="#3B484A"/>
<path d="M30.4 38.2689C29.5687 38.2689 28.7887 37.9205 28.26 37.3131C28.0625 37.0862 28.0856 36.7415 28.3114 36.5431C28.5373 36.3448 28.8805 36.3678 29.078 36.5948C29.4002 36.9652 29.8821 37.1775 30.3999 37.1775C30.9177 37.1775 31.3996 36.9652 31.7218 36.5948C31.9192 36.3678 32.2625 36.3447 32.4884 36.5431C32.7142 36.7415 32.7374 37.0862 32.5398 37.3131C32.0113 37.9206 31.2313 38.2689 30.4 38.2689Z" fill="#3B484A"/>
<path d="M34.3315 18.728C34.1854 18.728 34.04 18.6692 33.9328 18.5531C33.729 18.332 33.742 17.9868 33.9621 17.7819C36.8256 15.1172 36.6585 12.2596 36.6564 12.2311C36.6399 11.9964 36.7749 11.7774 36.9916 11.6879C37.2083 11.5982 37.4575 11.6583 37.6103 11.8367C38.8899 13.3316 38.9913 14.7745 38.8512 15.7216C38.6986 16.752 38.2303 17.4318 38.2104 17.4603C38.0381 17.7069 37.6993 17.7667 37.4537 17.5936C37.2088 17.4209 37.1491 17.0821 37.3195 16.8356C37.3677 16.7649 38.2239 15.4682 37.5652 13.8074C37.2781 15.0655 36.5454 16.8659 34.7005 18.5827C34.5959 18.6799 34.4635 18.728 34.3315 18.728Z" fill="#DE4B51"/>
<path d="M38.0129 20.5597C39.3198 20.5597 40.3792 19.4955 40.3792 18.1827C40.3792 16.8699 39.3198 15.8057 38.0129 15.8057C36.7059 15.8057 35.6465 16.8699 35.6465 18.1827C35.6465 19.4955 36.7059 20.5597 38.0129 20.5597Z" fill="#F9545B"/>
<path d="M34.3319 20.5597C35.6389 20.5597 36.6983 19.4955 36.6983 18.1827C36.6983 16.8699 35.6389 15.8057 34.3319 15.8057C33.025 15.8057 31.9656 16.8699 31.9656 18.1827C31.9656 19.4955 33.025 20.5597 34.3319 20.5597Z" fill="#FA7578"/>
<path d="M18.0289 23.8225L16.8484 29.7099C17.6924 29.3386 18.6898 29.4432 19.4478 30.0237C19.9099 30.3783 20.461 30.5548 21.0122 30.5548C21.0164 30.5548 21.0208 30.5546 21.025 30.5546L22.4008 23.6937C22.766 21.8711 24.3606 20.559 26.2127 20.5588H21.867C20.362 20.5588 19.0271 21.425 18.3835 22.7276C18.2845 22.9279 18.2018 23.1387 18.1374 23.3582C18.1053 23.4679 18.0776 23.5798 18.0548 23.6938L18.0289 23.8225Z" fill="#993E29"/>
</svg>
