<svg width="33" height="23" xmlns="http://www.w3.org/2000/svg"><g transform="translate(.458 .252)" fill="#EF7F1A" fill-rule="evenodd"><path d="M2.552 1.334l11.623 9.209c.527.413 1.256.599 1.96.566.706.033 1.43-.147 1.961-.566l11.625-9.209C30.649.599 30.439 0 29.258 0H3.015c-1.181 0-1.391.599-.463 1.334"/><path d="M30.559 3.761l-12.705 9.644c-.474.358-1.099.533-1.716.527-.62.006-1.243-.169-1.717-.527L1.716 3.761C.769 3.048 0 3.433 0 4.615v15.821c0 1.184.97 2.157 2.151 2.157h27.973a2.16 2.16 0 0 0 2.147-2.157V4.615c0-1.182-.769-1.567-1.712-.854"/></g></svg>