<svg width="1321" height="1320" xmlns="http://www.w3.org/2000/svg"><g fill="none"><path d="M1122.44 110.26C1122.44 49.53 1073.2.3 1012.48.3c-60.74 0-109.96 49.24-109.96 109.96 0 60.72 49.22 109.96 109.96 109.96 60.7-.07 109.89-49.26 109.96-109.96zm-109.96 65.98c-36.43 0-65.98-29.54-65.98-65.98 0-36.44 29.54-65.98 65.98-65.98 36.44 0 65.98 29.54 65.98 65.98 0 36.43-29.54 65.98-65.98 65.98z" fill="#727271"/><path d="M1254.4 220.22H858.54V88.27c0-36.44-29.54-65.98-65.98-65.98-36.44 0-65.98 29.54-65.98 65.98V286.2c0 36.44 29.54 65.98 65.98 65.98h65.98v102.66L783.77 554.9a66.259 66.259 0 0 0-13.2 39.59v241.52c0 12.15 9.85 21.99 22 21.99h87.97c12.15 0 21.99-9.85 21.99-21.99V616.97a21.918 21.918 0 0 1 5.81-14.91l47.81-51.94h56.34v285.9c0 12.15 9.85 21.99 22 21.99h87.97c12.15 0 21.99-9.85 21.99-21.99V352.19h43.98v87.97c0 36.44 29.54 65.98 65.98 65.98 36.44 0 65.98-29.54 65.98-65.98V286.21c0-36.43-29.54-65.98-65.98-65.98l-.01-.01zm21.99 219.93c0 12.15-9.85 21.99-21.99 21.99-12.15 0-21.99-9.85-21.99-21.99V330.19c0-12.14-9.85-21.99-21.99-21.99h-87.97c-12.15 0-21.99 9.85-21.99 21.99v483.83h-43.98v-285.9c0-12.15-9.85-21.99-21.99-21.99h-87.97c-6.14.01-12 2.58-16.16 7.11l-54.37 59.04a65.693 65.693 0 0 0-17.44 44.69v197.05h-43.98V594.43c0-4.76 1.54-9.4 4.39-13.2l79.17-105.89c2.86-3.81 4.41-8.44 4.41-13.2V330.18c0-12.14-9.85-21.99-21.99-21.99h-87.97c-12.15 0-22-9.85-22-21.99V88.27c0-12.15 9.85-22 22-22 12.14 0 21.99 9.85 21.99 22v153.94c0 12.15 9.85 21.99 21.99 21.99h417.85c12.15 0 21.99 9.85 21.99 21.99v153.95l-.01.01zm-769.73 87.96c0-60.72-49.24-109.96-109.96-109.96-60.74 0-109.96 49.24-109.96 109.96 0 60.73 49.22 109.96 109.96 109.96 60.69-.07 109.89-49.26 109.96-109.96zM396.7 594.09c-36.44 0-65.98-29.54-65.98-65.98 0-36.44 29.54-65.98 65.98-65.98 36.44 0 65.98 29.54 65.98 65.98 0 36.44-29.54 65.98-65.98 65.98z" fill="#727271"/><path d="M632.87 442.34a66.079 66.079 0 0 0-56.63 11.89 66.11 66.11 0 0 0-25.6 51.89v131.96H198.76c-60.7.07-109.89 49.26-109.96 109.96V858c0 36.44 29.54 65.98 65.98 65.98h109.96v65.32c0 2.03.28 4.04.84 6l41.45 145.72-83.37 145.83a21.994 21.994 0 0 0 19.09 32.99h87.97c7.87.01 15.15-4.18 19.09-11l87.97-153.95a22.009 22.009 0 0 0 2.06-16.93l-35.98-126.02h42.95l37.39 112.17-21.36 170.99a22.029 22.029 0 0 0 5.33 17.3 22.038 22.038 0 0 0 16.49 7.44h87.97c11.09 0 20.44-8.26 21.81-19.26l21.99-175.94c.36-2.85.17-5.74-.59-8.52l-65.2-239.07V770.03h65.98c36.44 0 65.98-29.54 65.98-65.98V508.53c.52-30.84-19.96-58.09-49.73-66.19zm5.74 261.71c0 12.15-9.85 21.99-21.99 21.99h-87.97c-12.15 0-21.99 9.85-21.99 21.99v131.95c0 1.96.26 3.9.77 5.79l64.83 237.71-19.05 152.37h-43.63l18.89-151.22c.42-3.25.09-6.57-.97-9.67L483.52 983a21.993 21.993 0 0 0-20.85-15.04H374.7c-6.91 0-13.4 3.23-17.56 8.74a22.016 22.016 0 0 0-3.59 19.28L395 1141.13l-77.04 134.72h-37.39l69.15-120.96a21.963 21.963 0 0 0 2.07-16.91l-43.06-151.77v-62.24c36.36-.18 65.8-29.62 65.98-65.98 0-36.43-29.54-65.98-65.98-65.98v-43.98c0-12.15-9.85-21.99-21.99-21.99h-65.98c-24.29 0-43.99 19.69-43.99 43.98V814c0 12.15 9.85 21.99 21.99 21.99h109.96c12.15 0 21.99 9.85 21.99 21.99a21.49 21.49 0 0 1-6.76 15.68 21.047 21.047 0 0 1-15.24 6.31H154.76c-12.15 0-21.99-9.85-21.99-21.99V748.02c0-36.44 29.54-65.98 65.98-65.98h373.87c12.15 0 21.99-9.85 21.99-21.99V506.1a21.433 21.433 0 0 1 6.73-15.65c5.35-5.56 13.31-7.7 20.74-5.59 10.19 3.28 16.94 12.96 16.52 23.66v195.52l.01.01zm-373.87 87.97h-43.98v-21.99h43.98v21.99z" fill="#727271"/><path d="M156.33 338.34a21.992 21.992 0 0 0 40.86 0l40.5-101.17 101.17-40.48a22.01 22.01 0 0 0 13.85-20.44c0-9-5.49-17.09-13.85-20.43l-101.17-40.51-40.5-101.17A21.982 21.982 0 0 0 176.76.29c-9.01 0-17.09 5.49-20.43 13.85l-40.48 101.17-101.17 40.48a22.006 22.006 0 0 0 0 40.88l101.17 40.48 40.48 101.19zm-15.39-185.65a22.044 22.044 0 0 0 12.26-12.28l23.56-58.93 23.55 58.93c2.23 5.59 6.68 10.03 12.27 12.28l58.93 23.55-58.93 23.55c-5.59 2.25-10.04 6.68-12.27 12.28l-23.55 58.92-23.56-58.92a22.074 22.074 0 0 0-12.26-12.28l-58.92-23.55 58.92-23.55zm989.67 970.77l-101.17-40.48-40.49-101.17a21.982 21.982 0 0 0-20.43-13.85c-9.01 0-17.1 5.48-20.44 13.85l-40.48 101.17-101.17 40.48a22.002 22.002 0 0 0-13.85 20.43c0 9 5.49 17.1 13.85 20.44l101.17 40.48 40.48 101.17a22.01 22.01 0 0 0 20.44 13.85c9 0 17.09-5.49 20.43-13.85l40.49-101.17 101.17-40.48a22.006 22.006 0 0 0 13.85-20.44c0-9-5.48-17.09-13.85-20.43zm-126.29 43.98a22.044 22.044 0 0 0-12.27 12.27l-23.55 58.93-23.56-58.93a22.057 22.057 0 0 0-12.26-12.27l-58.92-23.55 58.92-23.55a22.026 22.026 0 0 0 12.26-12.27l23.56-58.93 23.55 58.93a22.044 22.044 0 0 0 12.27 12.27l58.93 23.55-58.93 23.55zM550.64 326.4c-5.83 0-11.43-2.32-15.55-6.44l-62.2-62.2c-8.58-8.59-8.58-22.51 0-31.1l62.2-62.2c8.59-8.58 22.51-8.58 31.1 0l62.2 62.2c8.58 8.59 8.58 22.5 0 31.1l-62.2 62.2a22.004 22.004 0 0 1-15.55 6.44zm-31.1-84.19l31.1 31.1 31.09-31.1-31.09-31.1-31.1 31.1zm712.87 831.93c-5.83 0-11.43-2.32-15.55-6.44l-62.2-62.2c-8.58-8.59-8.58-22.51 0-31.1l62.2-62.2c8.59-8.58 22.51-8.58 31.1 0l62.2 62.2c8.58 8.59 8.58 22.51 0 31.1l-62.2 62.2a21.98 21.98 0 0 1-15.55 6.44zm-31.09-84.19l31.09 31.09 31.1-31.09-31.1-31.1-31.09 31.1z" fill="#EF7F1A"/></g></svg>