<svg width="1006" height="1325" xmlns="http://www.w3.org/2000/svg"><g fill="none"><path d="M15.91 323.3h125.78v15.67c0 25.96 21.14 47.11 47.11 47.11h30.03a214.821 214.821 0 0 1-9.2-31.41h-20.82c-8.67 0-15.7-7.05-15.7-15.7V323.3h32.17c.45 6.2 1.11 12.35 2.02 18.41-1.57-10.53-2.37-21.31-2.37-32.33 0-30.99 6.39-61.24 18.03-89.61-1.32 3.04-2.58 6.1-3.77 9.19h-30.36c-.43 0-.78.22-1.2.26-25.43.63-45.94 21.4-45.94 46.98v15.7H15.9c-8.68 0-15.7 7.02-15.7 15.7 0 8.69 7.03 15.69 15.72 15.69l-.01.01zm807.11 163.21c6.12-11.17 9.6-23.98 9.6-37.59v-.05l-.02-18.32c-.76 21.91-4.07 40.41-9.59 55.96h.01zm8.7-91.81c-.21-2.89-.46-5.76-.73-8.62.29 2.93.51 5.78.73 8.62zm-.73-8.62h1.5c25.98 0 47.11-21.15 47.11-47.11V323.3h110.06c8.69 0 15.7-7.02 15.7-15.7 0-8.69-7.02-15.7-15.7-15.7H879.6v-15.7c0-25.58-20.52-46.37-45.94-46.99-.41-.03-.77-.26-1.2-.26h-58.27c14.84 24.91 28.81 50.73 37.89 76.19 8.87 24.86 16.09 52.25 18.91 80.95v-.01zm1.49-31.41h-6.09a331.819 331.819 0 0 0-7.71-31.38h29.51v15.67c0 8.66-7.04 15.7-15.7 15.7l-.01.01zm-.61-94.33c.21.02.39.13.61.13 8.67 0 15.7 7.04 15.7 15.7v15.7h-40.63c-4.46-10.81-9.39-21.35-14.94-31.54h39.25l.01.01zm-643.07.13c.23 0 .4-.11.61-.13h20.42c-2.29 10.37-3.92 20.89-4.69 31.54h-32.05v-15.7c0-8.67 7.04-15.7 15.7-15.7l.01-.01z" fill="#727271"/><path d="M218.82 386.08h.39c31.71 82.53 111.56 141.36 205.12 141.36H754c.02 0 .04-.02.05-.02.02 0 .03.02.05.02 29.68 0 55.57-16.56 68.91-40.93 1.91-3.48 38.89-109.56 0 0 5.52-15.55 8.83-34.05 9.59-55.96l-.01-13c0-7.69-.32-15.31-.88-22.85-.22-2.84-.44-5.69-.73-8.62-2.82-28.7-10.04-56.09-18.91-80.95-9.08-25.46-23.05-51.28-37.89-76.19h-1.26c-59.69-85.23-158.44-141.2-270.18-141.2h-78.41c-38.37 0-75.66 9.99-108.74 28.81l-4.94-4.94-3.26-3.27-40.56-40.57c8.29-17.49 5.4-39.02-9.07-53.48-18.37-18.37-48.24-18.37-66.61 0L146.71 58.7c-18.37 18.37-18.37 48.24-.02 66.6 8.89 8.91 20.71 13.83 33.31 13.85h.03c7.12 0 13.93-1.73 20.16-4.74l44.14 44.14 1.26 1.26a219.5 219.5 0 0 0-22.65 39.94c-11.65 28.37-18.03 58.62-18.03 89.61 0 11.02.81 21.8 2.37 32.33l.12.79c.22 1.49.48 2.96.74 4.44.46 2.6.96 5.18 1.53 7.74h-.06c2.28 10.78 5.37 21.26 9.2 31.41l.01.01zm68.43-253.46l27.35 27.34c-4.51 2.88-8.7 6.09-12.4 9.79-3.72 3.72-6.88 7.99-9.78 12.45l-28.22-28.22-1.26-1.26-38.48-38.48 22.21-22.19 40.59 40.57h-.01zm-107.22-24.87c-4.2 0-8.14-1.64-11.11-4.65-6.12-6.13-6.12-16.07 0-22.19l44.4-44.41c6.15-6.15 16.07-6.15 22.21 0 6.14 6.14 6.14 16.09 0 22.24l-44.4 44.41c-2.96 2.95-6.9 4.61-11.1 4.61.01 0 .01 0 0 0v-.01zm144.37 84.21c12.72-12.72 32.27-15.37 46.41-15.37 40.08 0 92.85 21.38 120.15 48.7 36.73 36.72 36.73 96.51 0 133.22-17.81 17.81-41.48 27.61-66.65 27.61-25.17 0-48.81-9.8-66.61-27.61-19.53-19.54-37.06-53.59-44.63-86.75-8.11-35.43-3.96-64.5 11.33-79.8zm-44.54 22.11c-3.65 18.78-2.91 40.61 2.57 64.65 8.94 39.12 29.27 78.18 53.07 101.97 23.7 23.75 55.27 36.81 88.81 36.81 33.58 0 65.1-13.06 88.86-36.81 48.98-48.97 48.98-128.65 0-177.65-33.55-33.54-93.41-57.91-142.36-57.91-8.57 0-16.52.99-24.12 2.46l-7.88-7.89c26.38-13.45 55.54-20.61 85.5-20.61h78.43c164.56 0 298.43 133.87 298.43 298.42v.01l.03 31.31v.02c0 25.97-21.13 47.11-47.11 47.11H424.32c-103.91 0-188.44-84.54-188.44-188.44 0-37.62 11.37-74.36 32.21-105.3l11.78 11.81-.01.04z" fill="#EF7F1A"/><g fill="#727271"><path d="M951.23 753.1h-74c2.33-14.39 3.85-29.04 4.5-43.92 23.3-8.13 40.07-30.32 40.07-56.37 0-32.92-26.78-59.7-59.71-59.7H143.46c-32.93 0-59.7 26.78-59.7 59.7 0 26.04 16.76 48.23 40.06 56.37.66 14.88 2.18 29.53 4.5 43.91h-74c-11.17 0-20.22 9.06-20.22 20.23s9.06 20.23 20.22 20.23h82.85c27.87 100.5 96.14 184.35 186.17 232.89l-47.86 89.82c-.04.06-.06.1-.09.16L186 1284.18h-30.78c-11.17 0-20.23 9.06-20.23 20.23s9.06 20.23 20.23 20.23h85.83c11.17 0 20.23-9.06 20.23-20.23s-9.06-20.23-20.23-20.23h-9.22l73.53-137.98h399.65l73.52 137.98H764.5c-11.17 0-20.23 9.06-20.23 20.23s9.06 20.23 20.23 20.23h85.83c11.17 0 20.23-9.06 20.23-20.23s-9.06-20.23-20.23-20.23h-25.95l-89.41-167.77c-.02-.05-.05-.09-.07-.14l-48.96-91.87c88.18-48.83 154.96-131.74 182.44-230.84h82.85c11.17 0 20.23-9.06 20.23-20.23s-9.06-20.23-20.23-20.23zm-624.31 352.65l33.04-62.03c44.11 17.99 92.32 27.93 142.81 27.93 52.01 0 101.6-10.52 146.77-29.55l33.91 63.65H326.91h.01zm175.86-74.55c-180.08 0-327.81-141.17-338.3-318.67h676.61c-10.49 177.5-158.22 318.67-338.3 318.67h-.01zm359.31-359.13H143.46c-10.61 0-19.25-8.64-19.25-19.26 0-10.61 8.63-19.24 19.25-19.24h718.63c10.62 0 19.25 8.63 19.25 19.24 0 10.62-8.63 19.26-19.25 19.26z"/><path d="M502.77 995.6c105.06 0 201.19-53.32 257.17-142.64 5.93-9.46 3.07-21.95-6.4-27.89-9.47-5.93-21.95-3.06-27.88 6.4-48.54 77.43-131.86 123.67-222.9 123.67-11.17 0-20.22 9.06-20.22 20.22 0 11.17 9.06 20.23 20.22 20.23l.01.01zm253.92-219.62c3.3 7.89 11.39 12.99 19.94 12.44 8.1-.52 15.22-6 17.87-13.68 2.83-8.22-.15-17.71-7.2-22.82-6.51-4.72-15.43-5.15-22.33-1.03-8.48 5.07-12.08 15.94-8.28 25.08v.01z"/></g></g></svg>