<svg width="1380" height="855" xmlns="http://www.w3.org/2000/svg"><g fill="none"><path d="M1279.09 260.78c0 9.2-7.46 16.67-16.67 16.67-9.2 0-16.67-7.46-16.67-16.67 0-9.2 7.46-16.67 16.67-16.67s16.67 7.46 16.67 16.67zm-4.88-255.13c-6.51-6.51-17.06-6.51-23.57 0l-100 100a16.666 16.666 0 0 0-4.88 11.79v93.33h-76.67v-93.33c0-4.42-1.76-8.66-4.89-11.79l-100-100c-6.51-6.51-17.06-6.51-23.57 0l-100 100a16.676 16.676 0 0 0-4.89 11.79v93.33h-76.67v-93.33c0-4.42-1.76-8.66-4.89-11.79l-100-100c-6.51-6.51-17.06-6.51-23.57 0l-100 100a16.676 16.676 0 0 0-4.89 11.79v125.11h33.33v-118.2l83.34-83.34 83.33 83.34v118.2h143.35v-118.2l83.34-83.34 83.33 83.34v696.46H877.31v33.33h175.1c9.2 0 16.67-7.46 16.67-16.67V770.8h76.67v66.67c0 9.2 7.46 16.67 16.67 16.67h200.01c9.2 0 16.67-7.46 16.67-16.67V117.43c0-4.42-1.76-8.66-4.88-11.79l-100-100-.01.01zm-205.13 338.47h76.67v293.35h-76.67V344.12zm76.67-100v66.67h-76.67v-66.67h76.67zm-76.67 493.35V670.8h76.67v66.67h-76.67zm276.68 83.34h-166.67V124.35l83.33-83.34 83.34 83.34v696.46zM969.07 704.14c0 9.21-7.46 16.67-16.67 16.67-9.2 0-16.67-7.46-16.67-16.67s7.46-16.67 16.67-16.67c9.2 0 16.67 7.46 16.67 16.67zm0-443.35c0 9.2-7.46 16.67-16.67 16.67-9.2 0-16.67-7.46-16.67-16.67 0-9.2 7.46-16.67 16.67-16.67 9.2 0 16.67 7.46 16.67 16.67zm310.02 443.35c0 9.21-7.46 16.67-16.67 16.67-9.2 0-16.67-7.46-16.67-16.67s7.46-16.67 16.67-16.67 16.67 7.46 16.67 16.67z" fill="#EF7F1A"/><path d="M776.88 392.83c3.45 7.5 5.21 15.62 5.21 24.02 0 10.81-8.78 19.59-19.59 19.59s-19.59-8.78-19.59-19.59c0-2.78-1.18-7.66-3.47-10.8-2.78-3.82-7.92-7.84-15.15-7.84h-94.06c-10.82 0-19.59-8.78-19.59-19.59 0-10.82 8.78-19.59 19.59-19.59h94.06c9.01 0 17.61 2.02 25.55 5.98 0 0 7.23 3.98 10.03 6.33 9.15 7.66 16.32 19.95 17.01 21.5v-.01z" fill="#727271"/><path d="M782.09 416.85c0 10.81-8.78 19.59-19.59 19.59s-19.59-8.78-19.59-19.59c0-2.78-1.18-7.66-3.47-10.8-2.78-3.82-7.92-7.84-15.15-7.84h-94.06c-10.82 0-19.59-8.78-19.59-19.59 0-10.82 8.78-19.59 19.59-19.59h94.06c9.01 0 17.61 2.02 25.55 5.98 0 0 7.23 3.98 10.03 6.33 9.15 7.66 16.32 19.95 17.01 21.5 3.44 7.5 5.21 15.62 5.21 24.02v-.01z" fill="#727271"/><path d="M941.83 523.88l9.31-30.76 9.3 30.76h-18.61zM359.79 79.25h-3c-10.11.76-18.09 9.21-18.09 19.54 0 35.29-28.73 64.02-64.02 64.02H223.6c-35.29 0-64.02-28.72-64.02-64.02 0-10.33-7.96-18.78-18.09-19.54h-3c-10.11.76-18.09 9.21-18.09 19.54 0 30.82 13.58 58.53 35.07 77.44-1.06.84-2.07 1.7-3.07 2.62-17.4-13.09-38.66-20.32-61-20.32-36.15 0-69.87 19.46-87.98 50.75a19.537 19.537 0 0 0-2.63 9.81c0 3.39.87 6.77 2.63 9.81 18.11 31.33 51.81 50.79 87.98 50.79 16.46 0 32.47-4 46.77-11.42l12.85 93.23c-15.42 9.58-25.71 26.67-25.71 46.11v16.93c0 29.9 24.32 54.22 54.22 54.22h10.09v14.83c0 47.6 22.28 91.76 60.06 120.02l18.3 223.32c.83 10.17 9.33 17.99 19.52 17.99h138.61c10.21 0 18.7-7.81 19.54-17.99l15.83-193.4h60.57c1.84 3.47 3.84 6.84 5.94 10.11v52.52c0 10.83 8.78 19.59 19.6 19.59 10.83 0 19.59-8.76 19.59-19.59v-12.31c9.09 6.17 18.89 11.29 29.23 15.19v32.06c0 10.81 8.76 19.59 19.59 19.59 10.82 0 19.59-8.78 19.59-19.59v-23.4c3.51.26 23.85-.1 30.35-1.02l-1.7 118.37c-.06 5.25 1.96 10.31 5.64 14.03 3.69 3.74 8.72 5.83 13.95 5.83h142.34c9.62 0 17.81-6.97 19.34-16.48l28.41-176.18c.18-1.04.26-2.08.26-3.12V416.84c0-21.75-4.56-42.76-13.58-62.41-1.94-4.25-11.58-20.83-14.2-24.51a151.811 151.811 0 0 0-20.56-23.26c59.22 5.59 105.7 55.57 105.7 116.24v15.95l-28.55 94.39c-1.8 5.94-.69 12.37 3.02 17.34a19.58 19.58 0 0 0 15.74 7.91h58.78c6.19 0 12.03-2.94 15.74-7.91 3.7-4.98 4.81-11.41 3.02-17.34l-28.55-94.39V422.9c0-86-69.98-155.98-155.96-155.98h-358.7c15.89-8.8 29.45-21.81 38.81-38.01a19.565 19.565 0 0 0-.02-19.63c-18.13-31.31-51.83-50.75-87.96-50.75-22.36 0-43.62 7.23-61.02 20.34-1-.92-2.02-1.8-3.07-2.64 21.5-18.93 35.07-46.64 35.07-77.44 0-10.33-7.98-18.78-18.1-19.54zm475.2 337.6v240.72l-25.51 158.15h-35.39l2.14-148.59c.14-9.48-6.54-17.69-15.87-19.52-6.23-1.2-12.52-3.06-18.7-5.51-16.32-6.5-30.96-17.13-42.34-30.74a19.572 19.572 0 0 0-15.03-7.03H443.43c-10.21 0-18.69 7.81-19.54 17.99l-15.83 193.4h-32.14l-15.85-193.4c-.85-10.17-9.33-17.99-19.54-17.99h-.12c-.3-.02-.61-.02-.9-.02-21.54 0-42.41-6.19-60.35-17.89-31.53-20.54-50.36-55.24-50.36-92.84v-14.83h89.96c29.88 0 54.2-24.32 54.2-54.22V407.6c0-19.44-10.29-36.53-25.71-46.11l7.74-56.24c1.8.57 369.28.86 369.28.86 21.1 0 41.5 7.7 49.18 11.54.16.08 21.89 9.62 41.01 35 14.07 18.67 20.52 48.11 20.52 64.19l.01.01zM734.88 815.72h-31.15l1.59-110.67c11.3-5.25 21.91-11.99 31.47-20.05l-1.9 130.72h-.01zm-55.43-142.41c-10.6 3.7-21.79 5.59-33.25 5.59-30.24 0-58.1-13.27-77.03-35.37h106.36c7.23 7.6 15.26 14.4 23.91 20.26-6.29 3.88-12.99 7.09-19.99 9.52zM305.56 815.72L290.8 635.37a148.99 148.99 0 0 0 31.59 7.15l14.19 173.2h-31.02zM179.53 439.56c-8.29 0-15.03-6.74-15.03-15.03V407.6c0-8.29 6.74-15.03 15.03-15.03h139.24c8.27 0 15.01 6.74 15.01 15.03v16.93c0 8.29-6.74 15.03-15.01 15.03H179.53zm-2.35-230.08c4.21-4.82 10.05-7.48 16.46-7.48h111c6.41 0 12.25 2.67 16.46 7.48 4.19 4.82 6.04 10.98 5.15 17.3l-3.67 26.63c-3.49-4.35-8.8-7.15-14.79-7.15-10.43 0-18.89 8.44-18.89 18.87 0 10.43 8.47 18.87 18.89 18.87 4.13 0 7.95-1.35 11.07-3.6v.02l-10.07 72.97H189.48l-10.07-72.99v-.02c3.11 2.27 6.94 3.62 11.09 3.62 10.42 0 18.87-8.44 18.87-18.87 0-10.42-8.45-18.87-18.87-18.87-6 0-11.33 2.8-14.8 7.15l-3.69-26.63c-.88-6.33.96-12.48 5.15-17.3h.02zm229.73-11.76c18.12 0 35.27 7.98 47.01 21.38-11.74 13.42-28.87 21.4-47.01 21.4-15.29 0-29.94-5.62-41.27-15.61.08-3.67-.2-7.31-.78-10.88 11.43-10.44 26.31-16.28 42.05-16.28v-.01zm-274.27 27.14a62.198 62.198 0 0 1-41.25 15.64c-18.15 0-35.29-7.98-47.03-21.4 11.74-13.4 28.88-21.38 47.03-21.38 15.74 0 30.61 5.84 42.03 16.28-.59 3.59-.86 7.21-.78 10.85v.01z" fill="#727271"/><path d="M782.09 416.85c0 10.81-8.78 19.59-19.59 19.59s-19.59-8.78-19.59-19.59c0-2.78-1.18-7.66-3.47-10.8-2.78-3.82-7.92-7.84-15.15-7.84h-94.06c-10.82 0-19.59-8.78-19.59-19.59 0-10.82 8.78-19.59 19.59-19.59h94.06c9.01 0 17.61 2.02 25.55 5.98 0 0 7.23 3.98 10.03 6.33 9.15 7.66 16.32 19.95 17.01 21.5 3.44 7.5 5.21 15.62 5.21 24.02v-.01z" fill="#727271"/></g></svg>