<svg width="902" height="1045" xmlns="http://www.w3.org/2000/svg"><g fill="none"><path d="M417.97 399.25c-23.44 23.45-23.44 61.59 0 85.03l.06.06c11.72 11.72 27.12 17.58 42.52 17.58 15.39 0 30.8-5.86 42.51-17.58l20.4-20.39c23.44-23.45 23.44-61.59-.06-85.09-23.44-23.44-61.58-23.44-85.04 0l-20.39 20.39zm28.85 28.85l20.39-20.39c3.76-3.76 8.7-5.65 13.65-5.65 4.96 0 9.94 1.91 13.74 5.7 7.54 7.54 7.54 19.8 0 27.34l-20.39 20.39c-7.54 7.54-19.8 7.54-27.34 0l-.06-.06c-7.54-7.54-7.54-19.8 0-27.34l.01.01z" fill="#EF7F1A"/><path d="M858.17 356.02c28.34-38.16 43.67-84.2 43.67-132.59 0-59.56-23.2-115.54-65.31-157.66C794.42 23.67 738.44.48 678.89.48c-48.4 0-94.44 15.32-132.59 43.66l-16.71-16.71c-7.96-7.96-20.87-7.96-28.84 0-7.97 7.96-7.97 20.88 0 28.84l15.11 15.11c-35.37 37.89-56.28 86.46-59.47 138.19L68.68 705.71c-6.34 8.12-5.63 19.7 1.65 26.99l35.23 35.22-75.51 75.52c-38.85 38.85-39.07 101.91-.68 141.04.09.11.2.21.3.31l.36.36.31.31c39.12 38.4 102.19 38.17 141.04-.67l117.58-117.58c23.17-23.16 60.86-23.16 84.03 0 23.16 23.16 23.16 60.86 0 84.02l-58.8 58.8c-7.97 7.97-7.97 20.87 0 28.84a20.34 20.34 0 0 0 14.42 5.98c5.22 0 10.44-1.99 14.42-5.98l58.8-58.79c39.07-39.07 39.07-102.65 0-141.72-39.07-39.07-102.65-39.07-141.72 0L142.53 955.94c-23.11 23.11-60.67 23.17-83.85.19-22.97-23.19-22.91-60.73.19-83.84l75.51-75.51 37.06 37.05c7.43 7.43 19.06 7.67 27.24 1.44L692.8 445.94c51.7-3.2 100.25-24.11 138.13-59.46l19.33 19.34a20.38 20.38 0 0 0 14.43 5.98c5.22 0 10.44-2 14.42-5.98 7.97-7.96 7.97-20.88 0-28.85l-20.94-20.93v-.02zM111.93 716.61l37.5-47.99 85.68 85.68-47.66 37.81-75.51-75.5h-.01zm155.63 12.45l-92.82-92.82 304.37-389.5 176.53 176.53-388.07 305.8-.01-.01zm427.38-324.18L497.43 207.37c3.5-40.02 20.03-77.49 47.28-107.13l48.23 48.24c3.98 3.98 9.2 5.96 14.42 5.96 5.23 0 10.44-1.98 14.43-5.96 7.96-7.97 7.96-20.89 0-28.85l-46.22-46.22c30.16-20.86 65.87-32.13 103.32-32.13 48.65 0 94.39 18.94 128.79 53.34 34.41 34.41 53.36 80.15 53.36 128.81 0 37.45-11.27 73.15-32.13 103.32l-89.45-89.45c-7.97-7.97-20.88-7.97-28.85 0-7.96 7.97-7.97 20.89 0 28.84l91.46 91.46c-29.64 27.24-67.11 43.77-107.13 47.28z" fill="#727271"/><path d="M872.74 793.67V581.23c0-6.6-3.19-12.79-8.56-16.61a20.375 20.375 0 0 0-18.5-2.67l-196.93 68.04a20.405 20.405 0 0 0-13.72 19.28v164.77c-.76-.21-1.51-.42-2.28-.61-16.85-4.04-36.3-2.5-54.76 4.33-41.61 15.39-65.11 52.03-53.51 83.41 8.25 22.3 31.7 35.07 59.5 35.07 11.32 0 23.37-2.12 35.42-6.57 18.45-6.83 34.22-18.31 44.4-32.35 8.12-11.21 12.22-23.54 12.02-35.43 0-.07.01-.12.01-.19V663.79l156.13-53.95v136.6c-.75-.2-1.5-.41-2.26-.59-16.86-4.04-36.31-2.5-54.77 4.33-18.45 6.83-34.22 18.31-44.4 32.35-11.78 16.26-15.1 34.87-9.11 51.06 8.26 22.3 31.7 35.07 59.5 35.07 11.32 0 23.37-2.12 35.42-6.57 18.45-6.83 34.22-18.31 44.4-32.35 8.22-11.35 12.3-23.83 12-35.84 0-.08.01-.16.01-.24l-.01.01zm-241.98 79.7c-5.41 7.47-14.71 14.04-25.52 18.04-21.61 7.99-39.89 2.65-42.5-4.39-2.61-7.04 7.8-23 29.41-31 7.14-2.64 14.52-4 21.29-4 3.47 0 6.79.36 9.82 1.08 5.96 1.43 10.22 4.16 11.39 7.31 1.17 3.16-.29 8-3.89 12.96zM827.7 805.8c-5.41 7.46-14.71 14.04-25.52 18.04-21.62 8-39.89 2.65-42.5-4.39-1.16-3.16.29-7.99 3.89-12.96 5.41-7.46 14.71-14.03 25.52-18.03 7.14-2.65 14.52-4.01 21.29-4.01 3.48 0 6.78.36 9.83 1.08 5.96 1.43 10.21 4.16 11.39 7.31 1.16 3.15-.3 7.99-3.89 12.96h-.01zM25.25 296.31c48.4 0 87.79 39.39 87.79 87.79 0 11.27 9.13 20.4 20.4 20.4 11.27 0 20.4-9.13 20.4-20.4 0-48.4 39.39-87.79 87.8-87.79 11.26 0 20.4-9.13 20.4-20.4 0-11.26-9.13-20.4-20.4-20.4-48.41 0-87.8-39.38-87.8-87.8 0-11.26-9.13-20.4-20.4-20.4-11.27 0-20.4 9.14-20.4 20.4 0 48.41-39.39 87.8-87.79 87.8-11.27 0-20.4 9.13-20.4 20.4 0 11.27 9.13 20.4 20.4 20.4zm108.19-59.17c10 15.53 23.24 28.78 38.76 38.76-15.52 10-28.76 23.24-38.76 38.76a129.533 129.533 0 0 0-38.76-38.76c15.52-10 28.76-23.23 38.76-38.76z" fill="#EF7F1A"/><path d="M685.3 185.34c-3.34-8.01-11.63-13.17-20.3-12.54-8.47.61-15.81 6.58-18.15 14.74-2.33 8.16.78 17.26 7.72 22.19 6.88 4.88 16.17 5.02 23.2.37 8.01-5.29 11.22-15.91 7.53-24.76z" fill="#727271"/><path d="M313.8 154.46h19.61v19.6c0 11.27 9.13 20.4 20.39 20.4 11.27 0 20.4-9.13 20.4-20.4v-19.6h19.6c11.26 0 20.4-9.13 20.4-20.4 0-11.26-9.13-20.4-20.4-20.4h-19.6v-19.6c0-11.27-9.13-20.4-20.4-20.4-11.27 0-20.39 9.13-20.39 20.4v19.6H313.8c-11.26 0-20.4 9.13-20.4 20.4 0 11.27 9.14 20.4 20.4 20.4z" fill="#EF7F1A"/></g></svg>