<svg height="917" viewBox="0 0 1471 917" width="1471" xmlns="http://www.w3.org/2000/svg"><g fill="none"><path d="m361.69 12.77c-150.04 43.64-236.71 200.17-193.6 350.71 3.37 11.78 15.65 18.59 27.42 15.22l230.27-65.94 65.94 230.26c3.37 11.78 15.65 18.59 27.43 15.22 11.77-3.37 18.59-15.65 15.21-27.43l-65.94-230.26 230.27-65.94c11.78-3.37 18.59-15.65 15.22-27.43-44.39-155.04-208.38-239.17-352.22-194.41zm69.37 90.22c25.03 36.54 48.16 86.81 66.06 143.2l-124.46 35.64c-14.67-57.33-21.64-112.22-19.74-156.47 2.2-51.22 15.45-68.38 22.15-70.3s27.02 5.63 56 47.93zm-117.85-20.35c-12.59 63.17.67 148.71 16.79 211.41l-124.41 35.63c-18.89-99.35 27.24-196.52 107.62-247.03zm226.57 151.34c-19.45-61.57-53.47-141.26-97.65-188.26 94.87.31 185.48 58.27 222.06 152.63z" fill="#727271"/><g fill="#ef7f1a"><path d="m999.57 151c25.54 0 46.24 20.7 46.24 46.24s-20.7 46.24-46.24 46.24-46.24-20.7-46.24-46.24c.03-25.52 20.72-46.21 46.24-46.24zm-92.48 46.24c0 51.07 41.4 92.48 92.48 92.48 51.07 0 92.47-41.41 92.47-92.48s-41.4-92.48-92.47-92.48c-51.05.06-92.42 41.43-92.48 92.48z"/><path d="m976.44 58.52h46.25v-46.24h-46.25z"/><path d="m1138.28 220.35h46.24v-46.23h-46.24z"/><path d="m976.44 382.19h46.25v-46.24h-46.25z"/><path d="m814.61 220.35h46.24v-46.23h-46.24z"/><path d="m1081.18 82.82 32.68-32.71 32.71 32.69-32.68 32.71z"/><path d="m1081.28 311.66 32.71-32.68 32.68 32.7-32.71 32.69z"/><path d="m852.42 311.68 32.68-32.7 32.71 32.68-32.69 32.71z"/><path d="m852.42 82.79 32.71-32.69 32.68 32.71-32.7 32.68z"/></g><g transform="translate(0 512)"><path d="m1046.4 350.36c-7.13 0-14.14 2.91-19.19 7.95-5.04 5.04-7.95 12.05-7.95 19.19 0 7.13 2.91 14.14 7.95 19.19 5.05 5.05 12.06 7.95 19.19 7.95s14.14-2.91 19.19-7.95 7.95-12.05 7.95-19.19c0-7.13-2.9-14.14-7.95-19.19s-12.05-7.95-19.19-7.95z" fill="#ef7f1a"/><g fill="#727271"><path d="m1268.56.67h-1082.11v47.63h1082.11c81.46 0 147.72 72.91 147.72 154.35 0 81.46-66.26 147.72-147.72 147.72h-113.61c-14.98 0-27.14 12.15-27.14 27.14s12.16 27.14 27.14 27.14h113.61c111.38 0 202-90.61 202-201.99s-90.61-201.98-202-201.98z"/><path d="m202.64.67h1082.11v47.63h-1082.11c-81.46 0-147.72 72.91-147.72 154.35 0 81.46 66.26 147.72 147.72 147.72h735.56c14.97 0 27.13 12.15 27.13 27.14s-12.16 27.14-27.13 27.14h-735.56c-111.38 0-202-90.61-202-201.99s90.61-201.98 202-201.98z"/></g></g><path d="m899.96 683.89c-7.13 0-14.14 2.91-19.19 7.95-5.04 5.04-7.95 12.05-7.95 19.19 0 7.13 2.91 14.14 7.95 19.19 5.05 5.05 12.06 7.95 19.19 7.95s14.14-2.9 19.19-7.95c5.05-5.04 7.95-12.05 7.95-19.19 0-7.13-2.9-14.14-7.95-19.19s-12.05-7.95-19.19-7.95zm-218.77 59.66c-7.13 0-14.14 2.91-19.19 7.95-5.04 5.04-7.95 12.05-7.95 19.19 0 7.13 2.91 14.14 7.95 19.19 5.05 5.05 12.05 7.95 19.19 7.95s14.14-2.9 19.19-7.95c5.05-5.04 7.95-12.05 7.95-19.19 0-7.13-2.9-14.14-7.95-19.19s-12.05-7.95-19.19-7.95zm-389.49-112.7c-7.13 0-14.14 2.9-19.19 7.95s-7.95 12.05-7.95 19.19c0 7.13 2.91 14.14 7.95 19.19s12.05 7.95 19.19 7.95c7.13 0 14.14-2.9 19.19-7.95 5.04-5.04 7.95-12.05 7.95-19.19 0-7.13-2.91-14.14-7.95-19.19-5.05-5.05-12.06-7.95-19.19-7.95zm125 91.86c-7.13 0-14.14 2.91-19.19 7.95-5.04 5.04-7.95 12.05-7.95 19.19 0 7.13 2.91 14.14 7.95 19.19 5.05 5.05 12.06 7.95 19.19 7.95s14.14-2.91 19.19-7.95 7.95-12.05 7.95-19.19c0-7.13-2.9-14.14-7.95-19.19s-12.05-7.95-19.19-7.95zm831.3-98.49c-7.13 0-14.14 2.91-19.19 7.95-5.04 5.04-7.95 12.05-7.95 19.19 0 7.13 2.91 14.14 7.95 19.19s12.05 7.95 19.19 7.95c7.13 0 14.14-2.9 19.19-7.95 5.05-5.04 7.95-12.05 7.95-19.19 0-7.13-2.9-14.14-7.95-19.19s-12.06-7.95-19.19-7.95zm-92.81 122.65c-7.13 0-14.14 2.91-19.19 7.95-5.04 5.04-7.95 12.05-7.95 19.19 0 7.13 2.91 14.14 7.95 19.19s12.05 7.95 19.19 7.95c7.13 0 14.14-2.91 19.19-7.95 5.04-5.04 7.95-12.05 7.95-19.19 0-7.13-2.91-14.14-7.95-19.19-5.05-5.05-12.06-7.95-19.19-7.95zm-576.76-135.91c-7.13 0-14.14 2.91-19.19 7.95s-7.95 12.05-7.95 19.19c0 7.13 2.91 14.14 7.95 19.19s12.05 7.95 19.19 7.95c7.13 0 14.14-2.91 19.19-7.95 5.04-5.04 7.95-12.05 7.95-19.19 0-7.13-2.91-14.14-7.95-19.19-5.05-5.05-12.06-7.95-19.19-7.95z" fill="#ef7f1a"/></g></svg>