<svg width="1582" height="1290" xmlns="http://www.w3.org/2000/svg"><g fill="none"><path d="M465.02 810.65c127.09 0 250.44-61.03 312.67-97.41a180.756 180.756 0 0 1 90.93-24.57l366.61-.67c18.16-.04 34.07-12.2 38.86-29.72 4.79-17.53-2.71-36.1-18.33-45.38a203.852 203.852 0 0 0-53.37-14.17c-13.32-2.61-33.44-6.54-37.27-8.24a97.423 97.423 0 0 1-20.87-20.97 101.97 101.97 0 0 0-92.06-43.83c-29.47.48-58.53 6.98-85.4 19.06a264.71 264.71 0 0 1-87.76 21.06 2095.575 2095.575 0 0 0 92.47-279.89c17.38-79.7-10.59-211.18-36.73-263.15C928.2 8.56 913.7-.29 898.05.35c-15.44.12-29.43 9.1-35.99 23.06-39.35 82.79-176.11 247.08-321.65 329.95C418.23 253.29 403.25 156.34 384.77 34.64a40.622 40.622 0 0 0-21.36-29.83c-11.38-5.98-24.95-6.11-36.43-.3-48.02 23.97-185.15 128.96-185.15 291.98 0 96.42 50.62 184.75 108.3 246.65-41.17-3.43-87.52-9.47-121.96-13.95l-21.54-2.79a40.1 40.1 0 0 0-37.88 16.55c-8.73 12.26-10.01 28.33-3.36 41.83C120.56 697.04 275.51 810.67 465 810.67l.02-.02zM898.66 40.89c20.25 40.49 49.13 163.97 33.34 236.35a2169.35 2169.35 0 0 1-95.7 286.4 134.395 134.395 0 0 1-55.1-24.75l-89.33-68.64c31.37-33.67 128.18-150.41 99.71-277.14A737.05 737.05 0 0 0 898.66 40.89zm-142.57 190.7c4.33 99.67-75.44 191.48-96.53 213.85l-85.03-65.29a924.724 924.724 0 0 0 181.56-148.57v.01zM122.94 569.32c49.41 6.44 122.59 15.91 173.01 16.8a358.441 358.441 0 0 0 124.01 60.61c1.81.53 3.69.79 5.56.79 10.08-.02 18.62-7.46 20.02-17.44 1.4-9.98-4.76-19.48-14.44-22.26-41-10.78-79.42-29.67-112.99-55.56-.48-.61-.99-1.2-1.54-1.74-22.43-18.71-134.23-118.85-134.23-254.05.3-46.22 12.91-91.5 36.53-131.21 15.31 18.22 20.05 48.58 25.79 86.03 13.63 88.54 32.28 209.8 212.88 293.15 10.15 4.69 22.17.26 26.86-9.9 4.68-10.15.25-22.17-9.9-26.86-160.88-74.26-176.92-178.64-189.82-262.52-7.19-46.81-13.78-87.45-42.94-114.07a329.638 329.638 0 0 1 103.24-89.75c19.82 130.89 36.96 243.84 189.73 359.22L756.53 571a175.115 175.115 0 0 0 105.77 36.03c41.46-.1 82.45-8.63 120.5-25.11a177.12 177.12 0 0 1 69.44-15.76c24.15-2.97 47.83 8.33 60.72 28.95a135.352 135.352 0 0 0 29.65 28.97c16.45 7.64 34.06 12.5 52.09 14.37 13.34 2.61 35.7 6.98 40.83 9.13h-.3l-366.65.59c-39.11.04-77.52 10.42-111.33 30.09-58.7 34.42-174.69 91.89-292.22 91.89-171.08.02-314.81-104.67-363.39-203.59l21.29 2.77.01-.01z" fill="#727271"/><path d="M768.94 990.7c-5.96-23.43-18.09-43.71-29.63-58.92l200.94-18.13 4.69 51.91v.04l.83 9.15-176.84 15.96.01-.01zm-184.79 77.96c-29.54 11.85-55.52 3.06-72.9-7.22 23-8.02 50.77-13.57 82.87-16.47l11.26-1.02c-3.12 15.2-12.55 21.22-21.23 24.7v.01zm50.68-127.45l57.31-5.17c9.05 8.98 29.12 31.09 37.93 58.17l-65.61 5.92c-5.96-23.43-18.09-43.72-29.63-58.92zm946.83-33.11l-6.41-71a19.22 19.22 0 0 0-6.81-13c-.53-.44-1.08-.85-1.65-1.23l-.16-.11a19.11 19.11 0 0 0-12.2-3.03l-30.12 2.72-.44-4.94c-.95-10.55-10.27-18.33-20.81-17.37-10.54.95-18.32 10.27-17.37 20.81l.44 4.94-867.46 78.29c-47.51 4.29-92.67 18.34-134.23 41.79l-103.36 58.31c-9.6 5.41-21.14 5.59-30.89.46l-26.07-13.72c-15.95-8.39-34.25-10.18-51.52-5.02l-116.35 34.72c-10.15 3.03-15.92 13.71-12.89 23.85 3.02 10.14 13.7 15.91 23.85 12.89l116.35-34.72c7.61-2.27 15.67-1.48 22.7 2.21l26.07 13.71c21.33 11.22 46.59 10.85 67.58-.99l103.36-58.31c27.1-15.29 55.94-26.06 86.06-32.19 9.67 9.87 27.94 30.97 36.24 56.47l-34.91 3.15c-87.06 7.85-146.2 33.64-175.79 76.65-13.09 19.02-17.94 38.11-19.28 53.52-30.71-7.74-63.34-5.27-93 7.56L74 1243.35 42.4 1094.7l64.78-19.33c10.15-3.02 15.92-13.7 12.89-23.85-3.03-10.15-13.7-15.92-23.85-12.89l-81.73 24.39a19.126 19.126 0 0 0-10.54 7.84 19.14 19.14 0 0 0-2.73 14.51l40.14 188.85c1.05 4.96 4.02 9.27 8.21 12.03l.08.05c.54.35 1.09.67 1.66.96a19.122 19.122 0 0 0 16.4.56l250.09-108.13c28.94-12.51 61.73-11.63 89.96 2.41a19.161 19.161 0 0 0 20.77-2.41 19.153 19.153 0 0 0 6.21-19.97c-.07-.27-7-27.4 11.7-54.57 6.32-9.19 14.89-17.43 25.59-24.69 3.8 3.15 8.43 6.69 13.84 10.24 24.59 16.17 64.91 32.62 112.53 13.52 27.71-11.12 43.58-33.46 45.98-63.81l323.91-29.24c5.06-.46 9.74-2.9 12.99-6.81 3.26-3.9 4.83-8.94 4.38-14l-.83-9.18 141.39-12.76c10.55-.95 18.32-10.27 17.37-20.81-.95-10.55-10.28-18.33-20.81-17.37L981.39 943l-2.96-32.82 560.35-50.57 2.96 32.82-359.57 32.45c-10.55.95-18.32 10.27-17.37 20.81.96 10.55 10.28 18.32 20.81 17.37l378.67-34.18c6.09-.55 11.26-3.89 14.36-8.66 2.26-3.48 3.41-7.7 3.01-12.15l.01.03z" fill="#EF7F1A"/></g></svg>