<svg height="1275" viewBox="0 0 1275 1275" width="1275" xmlns="http://www.w3.org/2000/svg"><g fill="none"><path d="m555.07 1089.91h-20.55v-41.09c0-2.88-.59-5.71-1.76-8.34l-82.2-184.94c-3.290503-7.429198-10.65471-12.217109-18.78-12.21h-369.87c-11.37 0-20.55 9.18-20.55 20.55v226.03h-20.55c-11.37 0-20.55 9.18-20.55 20.55v82.2c0 11.37 9.18 20.55 20.55 20.55h64.57c9.18 35.37 41.07 61.65 79.27 61.65s70.09-26.28 79.28-61.65h88.03c9.18 35.37 41.08 61.65 79.28 61.65s70.09-26.28 79.27-61.65h64.57c11.37 0 20.55-9.18 20.55-20.55v-82.2c0-11.37-9.18-20.55-20.55-20.55zm-390.42 143.84c-22.66 0-41.09-18.43-41.09-41.09 0-22.67 18.43-41.1 41.09-41.1 22.67 0 41.1 18.43 41.1 41.1 0 22.66-18.43 41.09-41.1 41.09zm246.58 0c-22.67 0-41.1-18.43-41.1-41.09 0-22.67 18.43-41.1 41.1-41.1s41.09 18.43 41.09 41.1c0 22.66-18.43 41.09-41.09 41.09zm123.29-61.65h-44.02c-9.18-35.37-41.07-61.65-79.27-61.65s-70.09 26.28-79.28 61.65h-88.03c-9.18-35.37-41.08-61.65-79.28-61.65s-70.09 26.28-79.27 61.65h-44.02v-41.09h20.55c11.37 0 20.55-9.18 20.55-20.55v-226.03h335.99l74.98 168.74v57.29c0 11.37 9.18 20.55 20.55 20.55h20.55z" fill="#ef7f1a"/><path d="m409.78 938.44c-3.15-7.8-10.69-12.92-19.09-12.92h-82.19c-11.37 0-20.55 9.18-20.55 20.55v102.74c0 11.37 9.18 20.55 20.55 20.55h123.29c6.82 0 13.19-3.39 17.02-9.02 3.82-5.63 4.59-12.82 2.08-19.15l-41.1-102.74zm-80.74 89.82v-61.64h47.74l24.65 61.64zm-102.74-102.74h-82.19c-11.37 0-20.55 9.18-20.55 20.55v102.74c0 11.37 9.18 20.55 20.55 20.55h82.19c11.37 0 20.55-9.18 20.55-20.55v-102.74c0-11.37-9.18-20.55-20.55-20.55zm-20.55 102.74h-41.1v-61.64h41.1z" fill="#ef7f1a"/><path d="m349.59 781.68h616.45c56.65 0 102.74 46.09 102.74 102.74s-46.09 102.74-102.74 102.74h-349.32v41.09h349.32c79.3 0 143.84-64.54 143.84-143.84 0-79.29-64.54-143.84-143.84-143.84h-616.45c-169.96 0-308.22-138.27-308.22-308.22s138.27-308.22 308.22-308.22h595.9v-41.1h-595.9c-192.62 0-349.32 156.7-349.32 349.32s156.7 349.32 349.32 349.32z" fill="#727271"/><path d="m966.04 576.2h-308.22v-44.73c35.37-11.49 61.65-51.37 61.65-99.11 0-56.65-36.86-102.74-82.19-102.74s-82.19 46.09-82.19 102.74c0 47.74 26.28 87.6 61.65 99.11v44.73h-164.39v-44.73c35.37-11.49 61.65-51.37 61.65-99.11 0-56.65-36.86-102.74-82.19-102.74s-82.19 46.09-82.19 102.74c0 47.74 26.28 87.6 61.65 99.11v44.73h-61.65c-79.3 0-143.84-64.54-143.84-143.84 0-79.29 64.54-143.84 143.84-143.84h595.9v-41.09h-595.9c-101.98 0-184.94 82.96-184.94 184.93 0 101.98 82.96 184.94 184.94 184.94h616.45c147.29 0 267.13 119.84 267.13 267.13s-119.84 267.13-267.13 267.13h-349.32v41.1h349.32c169.96 0 308.23-138.27 308.23-308.23 0-169.95-138.27-308.22-308.23-308.22zm-369.87-143.84c0-33.41 18.82-61.65 41.1-61.65s41.09 28.24 41.09 61.65-18.82 61.65-41.09 61.65c-22.28 0-41.1-28.23-41.1-61.65zm-205.48 0c0-33.41 18.82-61.65 41.1-61.65s41.1 28.24 41.1 61.65-18.82 61.65-41.1 61.65-41.1-28.23-41.1-61.65z" fill="#727271"/><g fill="#ef7f1a"><path d="m883.84 206.33h61.65v-41.1h-61.65z"/><path d="m719.46 206.33h82.19v-41.1h-82.19z"/><path d="m555.07 206.33h82.19v-41.1h-82.19z"/><path d="m390.68 206.33h82.2v-41.1h-82.2z"/><path d="m236.59 236.56c23.35-13.5 48.66-22.63 75.31-27.09l-6.82-40.54c-31.51 5.3-61.46 16.06-89.08 32.08zm-104 39.96c-19.39 26.96-33.45 56.94-41.73 89.06l39.82 10.27c7-27.19 18.86-52.54 35.28-75.33zm-49.23 178.07c2.57 30.96 10.41 60.94 23.33 89.08l37.35-17.14c-10.92-23.78-17.55-49.13-19.7-75.31zm116.74 147.29-27.23 30.82c25.84 22.79 55.31 40.15 87.69 51.57l13.69-38.73c-27.35-9.68-52.3-24.37-74.14-43.67z"/><path d="m349.59 699.49h82.19v-41.1h-82.19z"/><path d="m513.97 699.49h82.2v-41.1h-82.2z"/><path d="m678.36 699.49h82.19v-41.1h-82.19z"/><path d="m842.75 699.49h82.19v-41.1h-82.19z"/><path d="m1101.7 703.6c-27.02-20.31-57.47-34-90.47-40.69l-8.14 40.29c26.96 5.46 51.82 16.67 73.94 33.26l24.66-32.87zm71.54 90.41-37.64 16.43c10.19 23.37 15.37 48.25 15.37 73.98h41.09c0-31.41-6.33-61.84-18.82-90.41zm-96.24 238.37 24.68 32.87c31.24-23.48 55.98-54.71 71.55-90.39l-37.62-16.46c-12.76 29.18-33.02 54.78-58.61 73.98zm-152.06 36.98v41.09h41.09c15.14 0 30.35-1.52 45.17-4.52l-8.15-40.29c-12.184836 2.47298-24.586745 3.7192-37.02 3.72z"/><path d="m760.55 1110.45h82.2v-41.09h-82.2z"/><path d="m616.72 1110.45h61.64v-41.09h-61.64z"/></g><path d="m1109.87 286.87v207.13h41.1v-207.13c69.58-10.02 123.29-69.88 123.29-142.19 0-79.29-64.55-143.84-143.84-143.84s-143.83 64.55-143.83 143.84c0 72.31 53.71 132.17 123.29 142.19zm20.55-244.93c56.65 0 102.74 46.09 102.74 102.74s-46.09 102.74-102.74 102.74-102.74-46.09-102.74-102.74 46.09-102.74 102.74-102.74z" fill="#727271"/><path d="m1192.07 144.68h-41.09c0 11.34-9.21 20.55-20.55 20.55v41.09c33.98 0 61.65-27.66 61.65-61.65z" fill="#727271"/></g></svg>