<svg width="1190" height="1027" xmlns="http://www.w3.org/2000/svg"><g fill="none" fill-rule="evenodd"><path d="M332.5 366.94c-43.55 0-78.99 35.43-78.99 78.99 0 43.56 35.44 78.98 78.99 78.98s78.99-35.43 78.99-78.98c0-43.56-35.44-78.99-78.99-78.99zm0 111.01c-17.66 0-32.04-14.37-32.04-32.02 0-17.67 14.37-32.04 32.04-32.04s32.04 14.37 32.04 32.04c0 17.66-14.36 32.02-32.04 32.02zm525.4-111.01c-43.56 0-78.98 35.43-78.98 78.99 0 43.56 35.43 78.98 78.98 78.98 43.55 0 78.98-35.43 78.98-78.98 0-43.56-35.43-78.99-78.98-78.99zm0 111.01c-17.67 0-32.02-14.37-32.02-32.02 0-17.67 14.35-32.04 32.02-32.04 17.66 0 32.02 14.37 32.02 32.04 0 17.66-14.36 32.02-32.02 32.02z" fill="#EF7F1A" fill-rule="nonzero"/><path d="M730.39 372.33c-9.99 0-18.09 8.1-18.09 18.09v37.42h-30.93v-37.42c0-9.99-8.11-18.09-18.09-18.09-9.99 0-18.09 8.1-18.09 18.09v37.42h-31.17v-37.42c0-10-8.09-18.09-18.09-18.09-9.99 0-18.08 8.1-18.08 18.09v37.42h-31.16v-37.42c0-9.99-8.1-18.09-18.09-18.09s-18.09 8.1-18.09 18.09v37.42h-29.04v-37.42c0-9.99-8.1-18.09-18.09-18.09s-18.08 8.1-18.08 18.09v111.01c0 9.99 8.09 18.08 18.08 18.08 9.99 0 18.09-8.09 18.09-18.08v-37.42h29.04v37.42c0 10 8.09 18.08 18.09 18.08 9.99 0 18.09-8.09 18.09-18.08v-37.42h31.16v37.42c0 9.99 8.09 18.08 18.08 18.08 10 0 18.09-8.09 18.09-18.08v-37.42h31.17v37.42c0 9.99 8.09 18.08 18.09 18.08 9.99 0 18.09-8.09 18.09-18.08v-37.42h30.93v37.42c0 10 8.09 18.08 18.09 18.08 9.99 0 18.09-8.09 18.09-18.08V390.42c0-9.99-8.1-18.09-18.09-18.09z" fill="#727271"/><path d="M204.06 267.54l-64.13-88.47c-11.7-16.13-30.6-25.78-50.53-25.78H63.29c-34.4 0-62.4 27.99-62.4 62.4v15.98c0 34.4 28 62.4 62.4 62.4h118.79l26.74 37.8-2.31 3.83a61.894 61.894 0 0 0-8.53 25.43l-3.11 29.37h-70.98c-3.86 0-7.7.26-11.53.79-45.55 6.3-78.9 46.52-78.9 92.19v23.57c0 12.37 10.07 22.45 22.44 22.45 6.41 0 12.54-2.81 16.76-7.63 16.94-19.33 41.48-30.36 67.17-30.36h44.37l-2.79 26.19c-.23 2.16-.33 4.34-.33 6.51 0 6.63 1.08 13.19 3.16 19.49l2.98 9.01h-69.83c-34.65 0-62.83 28.19-62.83 62.83v348.54c0 34.64 28.19 62.83 62.83 62.83H273.7c34.65 0 62.83-28.18 62.83-62.83V847.95h59.66l44.34 62.36c3.12 4.38 8.17 6.98 13.55 6.98h282.64c5.38 0 10.42-2.6 13.54-6.98l44.34-62.36h59.11v116.13c0 34.64 28.19 62.83 62.83 62.83h156.3c34.65 0 62.83-28.18 62.83-62.83V615.53c0-34.64-28.19-62.83-62.83-62.83h-70.01l2.99-9.02a61.7 61.7 0 0 0 2.83-25.97l-2.76-26.19h45.26a89.43 89.43 0 0 1 67.11 30.34c4.25 4.83 10.37 7.62 16.8 7.62 12.36 0 22.46-10.06 22.46-22.43v-23.57c0-45.7-33.38-85.86-78.94-92.17-3.81-.53-7.66-.81-11.5-.81H995.2l-3.11-29.37a61.95 61.95 0 0 0-8.47-25.35l-2.3-3.83 26.81-37.9h118.8c34.4 0 62.4-27.99 62.4-62.39v-15.99c0-34.4-28-62.39-62.4-62.39h-26.11c-19.93 0-38.83 9.64-50.52 25.78l-64.06 88.38c-.07.11-.1.15-.26.39l-24.63 34.8-31.78-219.45c-6.81-47.01-47.8-82.5-95.29-82.5H352.44c-47.5 0-88.49 35.49-95.3 82.5l-31.18 215.31-21.72-30.72c-.06-.09-.11-.17-.17-.25l-.01.02zM63.3 260.82c-16.07 0-29.14-13.08-29.14-29.15v-15.98c0-16.07 13.06-29.15 29.14-29.15h26.11c9.32 0 18.13 4.5 23.6 12.04l45.11 62.24H63.3zm5.8 205.72c6.36-22.02 24.76-39.1 47.65-42.28 2.37-.33 4.76-.5 7.15-.5h67.46l-3.65 34.52h-47.87c-21.31 0-42.25 5.57-60.75 16.12l-14.66 8.37 4.69-16.22-.02-.01zm997.98-42.78c2.32 0 4.65.18 6.95.5 22.95 3.18 41.45 20.16 47.85 42.25l4.7 16.22-14.67-8.35a122.724 122.724 0 0 0-60.74-16.09h-48.79l-3.65-34.52h68.36l-.01-.01zM290.04 87.95c4.46-30.81 31.26-54.01 62.39-54.01h481.85c31.12 0 57.93 23.2 62.39 54l31.56 217.95h-41.86L856.8 93.7c-1.55-11.11-11.33-19.46-22.51-19.46H552.68c-9.19 0-16.62 7.44-16.62 16.63 0 9.18 7.44 16.62 16.62 16.62h272.46l27.65 198.4H333.46l28.1-198.4h12.8c9.18 0 16.63-7.44 16.63-16.62 0-9.19-7.44-16.63-16.63-16.63h-21.93c-11.22 0-20.94 8.41-22.52 19.53l-30.04 212.12h-41.38l31.55-217.94zm-16.33 905.72h-61.52V652.38c0-9.19-7.44-16.62-16.63-16.62-9.19 0-16.63 7.43-16.63 16.62v341.29H117.4c-16.31 0-29.58-13.27-29.58-29.58v-38.76l19.79 21.59c3.17 3.46 7.57 5.37 12.25 5.37 4.19 0 8.16-1.55 11.23-4.39 6.75-6.2 7.21-16.74 1.01-23.49l-44.28-48.2v-75.14l19.79 21.57a16.54 16.54 0 0 0 12.25 5.37c4.18 0 8.16-1.54 11.24-4.37 6.75-6.2 7.21-16.74 1-23.5l-44.28-48.2v-75.15l19.79 21.59c3.16 3.45 7.58 5.37 12.25 5.37 4.19 0 8.16-1.56 11.24-4.39 6.75-6.2 7.2-16.74 1-23.49l-44.28-48.2v-12.13c0-16.32 13.26-29.59 29.58-29.59h156.31c16.31 0 29.57 13.28 29.57 29.59v12.13L259 675.87c-6.2 6.75-5.74 17.29 1 23.49 3.08 2.83 7.06 4.39 11.24 4.39 4.67 0 9.09-1.92 12.24-5.37l19.79-21.59v75.15l-44.28 48.2c-6.2 6.75-5.74 17.29 1 23.49 3.08 2.83 7.06 4.38 11.24 4.38 4.68 0 9.08-1.93 12.25-5.38l19.78-21.54v75.12l-44.28 48.2c-6.2 6.76-5.74 17.29 1 23.49 3.08 2.83 7.06 4.38 11.24 4.38 4.67 0 9.08-1.92 12.24-5.37l19.79-21.56v38.73c0 16.31-13.26 29.58-29.57 29.58l.03.01zm580.01-378.13v119.93H800.4v-87.74l34.59-61.77h25.31l-3.14 9.09a62.695 62.695 0 0 0-3.45 20.49h.01zM767.14 752.1v62.6H421.42V662.76h130.3c9.17 0 16.62-7.45 16.62-16.63 0-9.19-7.43-16.63-16.62-16.63H414.53l-24.38-43.53h406.72l-24.36 43.53h-42.66c-9.19 0-16.62 7.44-16.62 16.63 0 9.18 7.44 16.63 16.62 16.63h37.3v89.15c0 .21-.01.42-.01.19zm-415.1-166.14l36.13 64.52v85h-51.62V615.55c0-6.98-1.17-13.9-3.45-20.49l-3.14-9.09h22.08v-.01zm36.12 228.74h-51.61v-45.98h51.61v45.98zm340 69.34H462.69L437 847.95h316.82l-25.67 36.09h.01zm72.25-69.34v-45.98h53.32v45.98h-53.32zm302.04-199.16v12.13l-44.28 48.2c-6.2 6.76-5.74 17.29 1.01 23.49 3.08 2.83 7.05 4.39 11.24 4.39 4.67 0 9.08-1.93 12.24-5.37l19.79-21.57v75.15l-44.28 48.2c-6.2 6.75-5.74 17.3 1 23.49 3.08 2.83 7.06 4.38 11.24 4.38 4.67 0 9.08-1.92 12.24-5.37l19.79-21.57v75.13l-44.28 48.2c-6.2 6.76-5.74 17.29 1.01 23.5 3.08 2.83 7.05 4.39 11.24 4.39 4.67 0 9.08-1.92 12.24-5.37l19.79-21.59v38.75c0 16.31-13.27 29.58-29.58 29.58h-61.52v-341.3c0-9.18-7.45-16.62-16.63-16.62-9.19 0-16.62 7.44-16.62 16.62v341.3h-61.54c-16.31 0-29.58-13.26-29.58-29.58v-38.75l19.79 21.59c3.16 3.45 7.57 5.37 12.25 5.37 4.19 0 8.15-1.56 11.23-4.39 6.75-6.21 7.2-16.74 1-23.5l-44.28-48.2v-75.11l19.78 21.55c3.17 3.45 7.58 5.37 12.26 5.37 4.19 0 8.15-1.55 11.23-4.38 6.75-6.2 7.2-16.74 1-23.49l-44.28-48.2v-75.15l19.79 21.57c3.17 3.45 7.58 5.37 12.26 5.37 4.19 0 8.15-1.56 11.23-4.39 6.75-6.2 7.2-16.74 1-23.49l-44.28-48.2v-12.13c0-16.31 13.27-29.58 29.58-29.58h156.31c16.31 0 29.57 13.27 29.57 29.58h.04zM948.88 345.69c.08.07.16.13.24.2a28.498 28.498 0 0 1 9.93 18.75l16.56 156.55c.1 1 .16 2.01.16 3.02 0 15.7-12.78 28.5-28.49 28.5H242.85c-15.71 0-28.49-12.77-28.49-28.49 0-1 .05-2.01.15-3.01l16.57-156.57c1.54-14.52 13.72-25.5 28.33-25.5h671.3c6.66 0 13.06 2.32 18.18 6.57l-.01-.01v-.01zm207.23-114.02c0 16.07-13.07 29.15-29.15 29.15h-94.81l45.11-62.24a29.197 29.197 0 0 1 23.6-12.04h26.11c16.07 0 29.15 13.07 29.15 29.15v15.98h-.01z" fill="#727271"/><path d="M447.54 97.89c2.91 7.02 10.27 11.76 17.89 11.36 7.66-.4 14.47-5.69 16.7-13.04 2.12-6.98-.27-14.92-5.91-19.55-6.15-5.04-15.26-5.53-21.88-1.1-7.16 4.8-10.12 14.35-6.8 22.33zm212.61 541.33c-2.9-6.95-10.14-11.58-17.68-11.18-7.52.41-14.15 5.64-16.36 12.83-2.19 7.16.51 15.33 6.53 19.79 5.89 4.35 14.12 4.7 20.35.83 7.36-4.57 10.49-14.27 7.16-22.28v.01z" fill="#727271"/></g></svg>