<svg width="1461" height="1363" xmlns="http://www.w3.org/2000/svg"><g fill="none"><path d="M1442.74 659.89l-84.27-84.27c-.3-.35-.62-.7-.94-1.03-10.27-10.26-24.77-14.15-38.81-10.39-13.93 3.71-24.48 14.21-28.22 28.1-2.67 9.89-7.94 19-15.26 26.3l-2.33 2.35c-23.05 23.05-60.56 23.05-83.62 0-23.04-23.06-23.04-60.56.01-83.62l2.33-2.33c7.31-7.31 16.41-12.59 26.31-15.26 13.87-3.73 24.38-14.28 28.1-28.21 3.74-14.05-.14-28.56-10.41-38.82-.32-.32-.66-.63-1-.94l-84.29-84.3c-10.56-10.57-24.35-16.75-39.15-17.65-.89-14.25-6.76-28.24-17.63-39.12l-85.26-85.25c-10.26-10.26-24.77-14.16-38.81-10.41-13.93 3.72-24.48 14.22-28.22 28.1-2.68 9.91-7.95 19-15.25 26.31l-2.35 2.35c-23.06 23.05-60.56 23.05-83.62 0-23.05-23.05-23.05-60.56 0-83.62l2.34-2.33c7.32-7.31 16.41-12.58 26.31-15.26 13.88-3.74 24.38-14.29 28.11-28.22 3.75-14.03-.14-28.55-10.41-38.82l-85.25-85.24c-23.7-23.69-62.25-23.69-85.93 0l-84 83.99c-4.68-16.21-13.45-31.04-25.43-43.04l-2.35-2.35c-39.13-39.13-102.8-39.13-141.92 0-39.13 39.13-39.13 102.8.01 141.92l2.33 2.34c12 11.99 26.83 20.76 43.04 25.44l-84.09 84.09c-11.47 11.48-17.8 26.74-17.8 42.96 0 16.24 6.32 31.5 17.8 42.97l83.91 83.91c-16.06 4.7-30.77 13.44-42.66 25.34l-2.35 2.35c-18.95 18.95-29.39 44.15-29.39 70.95 0 26.81 10.44 52.01 29.39 70.96 18.96 18.94 44.15 29.39 70.96 29.39 26.81 0 52.01-10.45 70.96-29.39l2.34-2.34c11.89-11.89 20.63-26.62 25.33-42.67l83.92 83.91c10.56 10.57 24.35 16.76 39.14 17.67.89 14.25 6.76 28.25 17.63 39.11l85.26 85.25c10.26 10.27 24.78 14.17 38.81 10.41 13.93-3.72 24.48-14.24 28.23-28.11 2.67-9.9 7.94-19 15.26-26.31l2.33-2.33c23.05-23.06 60.56-23.06 83.61 0 11.17 11.16 17.31 26.01 17.31 41.8 0 15.79-6.15 30.64-17.31 41.81l-2.33 2.33c-7.32 7.31-16.42 12.59-26.31 15.26-13.87 3.74-24.38 14.29-28.1 28.21-3.76 14.04.13 28.56 10.4 38.82l85.25 85.26c11.47 11.47 26.73 17.8 42.97 17.8 16.22 0 31.48-6.33 42.96-17.8l82.12-82.11c5 14.04 12.91 26.54 23.55 37.18l2.35 2.35c39.13 39.13 102.79 39.13 141.92 0 39.11-39.12 39.11-102.8 0-141.91l-2.35-2.35c-10.64-10.64-23.14-18.56-37.19-23.55l82.02-82.02c23.69-23.7 23.69-62.24-.01-85.93v.01zm-783.61-85.26c-10.27-10.26-24.78-14.15-38.82-10.4-13.93 3.72-24.48 14.22-28.22 28.11-2.68 9.89-7.95 18.99-15.26 26.3l-2.34 2.35c-11.17 11.17-26.01 17.31-41.81 17.31-15.78 0-30.64-6.15-41.8-17.31-11.17-11.16-17.31-26.02-17.31-41.8 0-15.79 6.15-30.64 17.31-41.8l2.35-2.35a58.98 58.98 0 0 1 26.3-15.25c13.88-3.74 24.39-14.3 28.11-28.22 3.74-14.04-.14-28.56-10.41-38.81l-85.25-85.26c-3.7-3.68-5.73-8.6-5.73-13.81 0-5.21 2.03-10.11 5.73-13.82l85.44-85.44c10.14-10.13 14.11-25.03 10.39-38.89-3.77-13.95-14.32-24.49-28.26-28.19a59.024 59.024 0 0 1-26.54-15.33l-2.33-2.33c-23.06-23.04-23.06-60.56 0-83.61 23.05-23.05 60.56-23.05 83.6 0l2.35 2.35a59.044 59.044 0 0 1 15.31 26.53c3.7 13.93 14.23 24.48 28.19 28.24 13.86 3.72 28.76-.25 38.89-10.38l85.36-85.35c7.61-7.62 20-7.61 27.62 0l83.91 83.91c-16.06 4.71-30.77 13.44-42.68 25.33l-2.33 2.34c-18.96 18.95-29.39 44.16-29.39 70.96 0 26.8 10.44 52 29.39 70.96 39.12 39.13 102.79 39.13 141.92 0l2.35-2.33c11.9-11.91 20.62-26.61 25.32-42.68l83.91 83.91c7.62 7.62 7.62 20.01.01 27.62h-.01l-82.01 82.02c-5-14.05-12.93-26.54-23.57-37.19l-2.33-2.34c-39.13-39.13-102.79-39.13-141.93 0-39.11 39.12-39.11 102.78.01 141.92l2.33 2.33c9.59 9.61 20.7 16.98 33.1 22l2.51 3.14-80.53 80.53a19.394 19.394 0 0 1-13.81 5.72c-5.22 0-10.13-2.03-13.81-5.72l-85.25-85.26.02-.01zm754.46 142.03l-83.28 83.28c-9.91 9.91-13.91 24.01-10.69 37.67 3.19 13.56 12.98 24.28 26.14 28.68 8.71 2.91 16.45 7.71 23 14.26l2.35 2.34c23.05 23.04 23.05 60.56 0 83.61-23.05 23.06-60.56 23.06-83.61 0l-2.34-2.34c-6.56-6.56-11.35-14.31-14.26-23-4.4-13.17-15.12-22.95-28.68-26.14-13.66-3.22-27.76.78-37.67 10.69l-83.37 83.38c-7.62 7.61-20.01 7.61-27.62 0l-83.91-83.92c16.05-4.7 30.77-13.44 42.67-25.34l2.34-2.33c18.96-18.95 29.39-44.16 29.39-70.96 0-26.81-10.43-52-29.39-70.96-39.13-39.13-102.78-39.13-141.92 0l-2.33 2.35c-11.9 11.89-20.63 26.6-25.33 42.66l-83.91-83.91c-7.61-7.61-7.61-20 0-27.62l93.56-93.55c7.42-7.43 8.09-19.24 1.53-27.46l-17.58-22.02c-2.5-3.11-5.82-5.43-9.58-6.7-8.71-2.9-16.46-7.69-23.02-14.26l-2.33-2.33c-23.04-23.06-23.04-60.57 0-83.62 11.17-11.17 26.02-17.31 41.81-17.31 15.8 0 30.63 6.15 41.8 17.3l2.33 2.35c6.56 6.56 11.35 14.3 14.26 23.01 4.39 13.17 15.11 22.93 28.67 26.13 13.67 3.22 27.75-.76 37.68-10.69l83.27-83.27c3.7-3.7 8.6-5.73 13.81-5.73 5.21 0 10.12 2.03 13.81 5.73l83.89 83.9c-16.04 4.7-30.73 13.43-42.62 25.31l-2.35 2.33c-39.13 39.13-39.13 102.8 0 141.92 39.14 39.13 102.8 39.13 141.93 0l2.33-2.35c11.89-11.89 20.62-26.58 25.33-42.62l83.89 83.89c7.62 7.63 7.62 20.02 0 27.63v.01z" fill="#EF7F1A"/><path d="M593.5 281.33c-8.05-8.04-21.11-8.04-29.16 0L506.67 339c-8.05 8.05-8.05 21.11 0 29.16l57.58 57.57c4.03 4.02 9.3 6.04 14.57 6.04 5.28 0 10.55-2.02 14.58-6.04 8.05-8.06 8.05-21.11 0-29.15l-42.99-43 43.08-43.08c8.05-8.06 8.05-21.11.01-29.16v-.01zm39.45 163.32c-5.44 0-10.74 2.2-14.57 6.04-3.86 3.84-6.04 9.15-6.04 14.58 0 5.41 2.19 10.73 6.04 14.57 3.83 3.84 9.13 6.04 14.57 6.04 5.43 0 10.74-2.2 14.58-6.04 3.83-3.85 6.04-9.16 6.04-14.57 0-5.43-2.2-10.73-6.04-14.58-3.83-3.83-9.15-6.04-14.58-6.04z" fill="#EF7F1A"/><path d="M350.03 1229.31l-16.11-24.17c-39.56-59.34-62.11-131.7-64.03-204.82h22.33c37.18 0 67.43-30.25 67.43-67.43 0-26.81-15.72-50-38.43-60.86l17.56-52.67c6.93-20.81 3.56-42.95-9.27-60.75-12.83-17.79-32.76-28-54.7-28H224.8v-44.95h22.47c12.41 0 22.48-10.06 22.48-22.48 0-12.41-10.06-22.48-22.48-22.48H224.8v-22.48c0-12.41-10.06-22.47-22.48-22.47-12.41 0-22.48 10.06-22.48 22.47v22.48h-22.47c-12.42 0-22.48 10.06-22.48 22.48 0 12.41 10.06 22.48 22.48 22.48h22.47v44.95h-50.01c-21.94 0-41.87 10.21-54.7 28-12.83 17.8-16.2 39.94-9.27 60.75l17.56 52.67c-22.71 10.86-38.43 34.06-38.43 60.87 0 37.18 30.25 67.43 67.43 67.43h22.33c-1.91 73.12-24.46 145.48-64.02 204.82l-16.11 24.17c-31.05 6.02-54.57 33.41-54.57 66.19v44.95c0 12.41 10.06 22.47 22.48 22.47h359.61c12.41 0 22.47-10.06 22.47-22.47v-44.95c0-32.78-23.52-60.16-54.57-66.18l-.01-.02zM111.6 784.9c4.28-5.94 10.92-9.33 18.23-9.33h144.98c7.31 0 13.95 3.4 18.23 9.33 4.27 5.93 5.39 13.31 3.09 20.24l-20.11 60.32h-147.4l-20.1-60.32c-2.31-6.94-1.19-14.31 3.08-20.24zM89.94 932.89c0-12.39 10.09-22.48 22.48-22.48h179.87c12.37.04 22.41 10.1 22.41 22.47 0 12.39-10.09 22.47-22.48 22.47h-179.8c-12.39 0-22.48-10.08-22.48-22.47v.01zm89.77 67.43h45.22c1.91 81.08 26.66 161.5 70.25 227.75H109.45c43.6-66.25 68.35-146.67 70.26-227.75zm179.94 317.65H45v-22.48c0-12.39 10.08-22.47 22.48-22.47h269.7c12.39 0 22.48 10.08 22.48 22.47v22.48h-.01zM767.2 887.94v-44.95c0-12.41-10.06-22.48-22.48-22.48h-269.7c-12.41 0-22.48 10.06-22.48 22.48v44.95c0 41.57 22.72 77.93 56.36 97.36a67.077 67.077 0 0 0-11.41 37.49c0 29.19 18.65 54.1 44.65 63.46-1.94 48.91-14.28 98.24-35.29 140.27l-1.59 3.19c-30.13 6.73-52.72 33.66-52.72 65.78v44.95c0 12.41 10.06 22.47 22.48 22.47h269.7c12.42 0 22.48-10.06 22.48-22.47v-44.95c0-32.13-22.59-59.06-52.72-65.79l-1.59-3.19c-21.02-42.03-33.36-91.36-35.3-140.26 26-9.36 44.65-34.27 44.65-63.46 0-13.86-4.21-26.76-11.41-37.49 33.65-19.43 56.36-55.78 56.36-97.36h.01zm-134.41 202.28c2.16 47.46 13.01 95.25 31.31 137.85H555.64c18.3-42.6 29.15-90.39 31.31-137.85H632.79zm89.46 227.75H497.49v-22.48c0-12.37 10.05-22.44 22.42-22.47h179.91c12.37.03 22.43 10.09 22.43 22.47v22.48zm-44.95-295.18c0 12.39-10.08 22.48-22.47 22.48h-89.9c-12.39 0-22.48-10.08-22.48-22.48 0-12.39 10.08-22.47 22.48-22.47h89.9c12.39 0 22.47 10.08 22.47 22.47zm44.95-134.85c0 37.18-30.25 67.43-67.43 67.43h-89.9c-37.18 0-67.43-30.25-67.43-67.43v-22.48h44.95v33.72c0 12.41 10.06 22.47 22.48 22.47 12.41 0 22.47-10.06 22.47-22.47v-33.72h44.95v33.72c0 12.41 10.06 22.47 22.48 22.47 12.41 0 22.47-10.06 22.47-22.47v-33.72h44.95v22.48h.01z" fill="#727271"/></g></svg>