<svg width="1192" height="1421" xmlns="http://www.w3.org/2000/svg"><g fill="none"><path d="M283.28 498.24a14.29 14.29 0 0 0 14.17-12.23c1.04-7.03-3.25-13.76-10.05-15.8-29.57-8.87-61.67-41.32-88.11-89.01-3.83-6.92-12.53-9.42-19.44-5.59-6.92 3.83-9.42 12.55-5.59 19.46 30.05 54.17 68.26 91.59 104.9 102.55 1.33.41 2.72.61 4.12.61v.01zm147.79-318.03a157.964 157.964 0 0 1 13.58 63.31c0 7.9 6.41 14.31 14.31 14.31s14.31-6.41 14.31-14.31c-.1-25.74-5.53-51.17-15.94-74.71a193.852 193.852 0 0 0-61.34-78.42c-6.31-4.74-15.28-3.46-20.03 2.86-4.74 6.33-3.46 15.3 2.86 20.04a165.092 165.092 0 0 1 52.25 66.92zM301.54 86.1c13.05.05 26 2.25 38.33 6.51 7.48 2.54 15.62-1.46 18.16-8.94 2.54-7.48-1.46-15.62-8.94-18.16-15.3-5.27-31.36-7.98-47.55-8.03-7.9 0-14.31 6.41-14.31 14.31s6.41 14.31 14.31 14.31zm272.07 498.65c-29.57-8.87-61.67-41.33-88.1-89.02-3.83-6.92-12.54-9.42-19.45-5.59-6.92 3.83-9.42 12.54-5.59 19.46 30.06 54.16 68.26 91.59 104.9 102.55 4.93 1.57 10.31.36 14.09-3.16a14.32 14.32 0 0 0 4.16-13.83 14.282 14.282 0 0 0-10.01-10.41zM682.2 204.87c-6.33-4.74-15.29-3.46-20.04 2.87-4.74 6.32-3.46 15.3 2.86 20.03a165.035 165.035 0 0 1 52.22 66.83 157.949 157.949 0 0 1 13.61 63.4c0 7.9 6.41 14.31 14.31 14.31 7.91 0 14.31-6.41 14.31-14.31-.1-25.73-5.53-51.17-15.94-74.7a193.78 193.78 0 0 0-61.33-78.42v-.01zm-46.91-24.88c-15.3-5.27-31.36-7.98-47.54-8.03-7.9 0-14.31 6.41-14.31 14.31s6.41 14.31 14.31 14.31c13.04.05 25.99 2.25 38.32 6.51 7.48 2.55 15.62-1.46 18.16-8.94 2.54-7.48-1.46-15.62-8.94-18.16z" fill="#EF7F1A"/><path d="M587.56 114.72h-.23c-28.87.13-57.38 6.35-83.68 18.23C466.86 53.99 388.62 2.62 301.54.23 179.58.23 72.58 113.91 72.58 243.51c0 112.09 76.93 264.46 178.01 304.41l-6.08 36.69c-.69 4.15.48 8.39 3.2 11.6 2.71 3.21 6.71 5.06 10.91 5.06h23.07l-9.06 27.19a99.527 99.527 0 0 0 11.76 87.3l10.62 15.94a71.144 71.144 0 0 1 8.35 62.33l-15.33 46.05c-2.5 7.51 1.57 15.61 9.06 18.11 7.51 2.5 15.63-1.56 18.12-9.07l15.26-46.07a99.552 99.552 0 0 0-11.75-87.3l-10.63-15.94a71.09 71.09 0 0 1-8.37-62.33l12.14-36.22h32.63c4.2 0 8.2-1.85 10.91-5.06 2.72-3.2 3.89-7.45 3.2-11.6l-6.09-36.66a186.036 186.036 0 0 0 48.31-28.52c30.06 60.32 77.48 120 135.95 143.18l-6.05 36.49c-.69 4.15.48 8.39 3.2 11.6 2.71 3.21 6.71 5.06 10.91 5.06h23.07l-9.06 27.19a99.557 99.557 0 0 0 11.75 87.3l10.61 15.91c1.15 1.72 2.21 3.49 3.19 5.28a14.3 14.3 0 0 0 12.57 7.45c2.39 0 4.74-.61 6.83-1.76 6.94-3.78 9.5-12.46 5.72-19.4-1.43-2.52-2.86-5-4.49-7.43l-10.62-15.94a71.112 71.112 0 0 1-8.38-62.32l12.04-36.28h32.63c4.2 0 8.2-1.85 10.91-5.06 2.72-3.21 3.89-7.45 3.2-11.6l-6.02-36.23c40.99-16 79.98-51.05 113.06-102.67a400.84 400.84 0 0 0 64.88-202.65c-.3-129.44-107.33-242.83-229.16-242.83v.01zm-486.37 128.8c0-114.36 93.62-214.66 200.35-214.66 76.84 0 148.3 50.47 182.08 128.63a214.912 214.912 0 0 1 18.26 86.03c-.03 10.53-.72 21.04-2.07 31.48a321.35 321.35 0 0 1-7.15 37.11 374.492 374.492 0 0 1-96.8 173.91 161.728 161.728 0 0 1-63.6 39.07 103.657 103.657 0 0 1-46.16 3.5c-5.2-.79-10.34-1.96-15.38-3.51-93.89-28.26-169.53-177.09-169.53-281.56zM275.5 572.66l2.72-16.42c.85.15 1.68.2 2.52.34.85.15 2.09.27 3.14.41 5.78.84 11.6 1.29 17.44 1.35h.45c5.84-.05 11.66-.5 17.44-1.33 1.04-.15 2.1-.24 3.15-.42 1.05-.17 1.68-.19 2.52-.34l2.72 16.4h-52.09l-.01.01zm338.3 114.48h-52.09l2.72-16.42c1.61.29 3.24.43 4.84.66 1.35.19 2.67.39 4.02.55 4.8.56 9.63.86 14.46.9h.39c7.67-.02 15.33-.72 22.89-2.06l2.77 16.37zm114-142.39c-32.29 50.34-71.21 83.54-110.09 94.97-4.5 1.34-9.09 2.38-13.72 3.11l-1.92.27c-9.53 1.36-19.22 1.36-28.76 0-1.2-.17-2.37-.45-3.55-.67-3.91-.67-7.79-1.54-11.61-2.63-58.09-16.63-106.14-78.91-135.18-140.24.85-.86 1.67-1.83 2.5-2.7 1.79-1.88 3.55-3.8 5.31-5.72 2.09-2.31 4.16-4.66 6.21-7.06 1.74-2.05 3.44-4.12 5.15-6.24 2-2.46 3.98-4.97 5.93-7.53 1.68-2.21 3.34-4.44 4.98-6.7 1.91-2.6 3.77-5.24 5.58-7.91 1.62-2.35 3.21-4.7 4.78-7.15 1.79-2.72 3.54-5.48 5.27-8.27 1.53-2.46 3.04-4.94 4.53-7.46 1.68-2.87 3.31-5.72 4.91-8.59 1.43-2.59 2.86-5.17 4.29-7.77 1.56-2.87 3.06-5.87 4.55-8.81 1.35-2.66 2.68-5.31 3.97-7.99 1.43-3.02 2.86-6.06 4.2-9.09 1.22-2.7 2.44-5.39 3.62-8.11 1.31-3.07 2.56-6.19 3.82-9.29 1.08-2.73 2.2-5.45 3.24-8.19 1.19-3.15 2.29-6.3 3.41-9.45.97-2.74 1.96-5.46 2.87-8.21 1.06-3.21 2.01-6.39 2.99-9.61.83-2.7 1.67-5.41 2.45-8.11.91-3.25 1.72-6.5 2.54-9.76.68-2.65 1.43-5.3 2-7.95.78-3.33 1.43-6.63 2.09-9.93.52-2.55 1.09-5.11 1.54-7.65.61-3.46 1.09-6.87 1.59-10.29.34-2.35.77-4.71 1.05-7.04.48-3.77.78-7.5 1.09-11.22.17-1.92.41-3.86.54-5.73.36-5.57.55-11.1.55-16.52 0-7.77-.45-15.53-1.22-23.24-.26-2.55-.71-5.08-1.04-7.62-.69-5.18-1.43-10.34-2.44-15.48-.59-2.96-1.33-5.91-2.04-8.86-1.13-4.73-2.35-9.42-3.75-14.1-.92-3.01-1.9-6.02-2.94-9.01-.72-2.13-1.28-4.29-2.07-6.39a176.936 176.936 0 0 1 72.29-15.47h.2c106.59 0 200.35 100.08 200.56 214.26a370.847 370.847 0 0 1-60.31 187.15h.04zm450.63 407.53c-10.09-2.77-18.64 3.43-22.09 12.54-5.91 15.63-28.13 24.98-44.21 27.08-24.21 3.16-47.81-7.44-69.21-17.37-25.38-11.77-51.54-23-80.07-22.76-28.71.24-56.74 11.71-80.13 27.83-26.32 18.15-47.47 41.84-68.15 65.94-6.31 7.35-7.23 18.17 0 25.39 6.46 6.46 19.05 7.39 25.39 0 33.22-38.71 77-89.78 134.11-82.75 26.96 3.32 51.1 18.36 75.85 28.41 25.43 10.33 53.33 15.2 80.3 8.12 26.72-7.02 50.8-23.97 60.76-50.34.59-1.56.86-3.16.87-4.76.03-7.71-6.18-15.33-13.41-17.32l-.01-.01zm-315.3-121.27c-9.77 13.94-20.04-1.26-25.5-11.07-7.43-13.35-11.45-28.58-12.17-43.77-.07-1.57-.08-3.16-.09-4.74.89.04 1.77.07 2.67.15 26.31 2.21 51.86 35.52 35.09 59.44v-.01zm-73.24-49.37c1.57 19.7 7.1 39.16 16.73 56.43 13.37 23.98 38.74 43.88 66.78 30.48 22.64-10.82 32.58-38.66 29.7-62.29-2.91-23.87-16.42-45.49-36.61-58.62-11.25-7.31-23.48-11.17-35.9-12.15 6.14-20.24 17.63-38.83 34.43-51.7 7.69-5.89 11.77-15.46 6.44-24.57-4.43-7.56-16.82-12.38-24.57-6.44-28.66 21.96-47.8 53.46-54.66 88.28-23.44 8.53-44.28 25.74-56.29 47.13-32.28 57.47-11.89 124.65 20.6 176.9 12.18 19.59 43.26 1.57 31.01-18.13-21.19-34.07-39.05-74.93-29.8-115.83 4.49-19.85 15.88-38.46 32.14-49.47v-.02z" fill="#EF7F1A"/><path d="M976.09 891.19c23.11 0 23.15-35.91 0-35.91-23.11 0-23.15 35.91 0 35.91zm22.39-87.86c-23.11 0-23.15 35.91 0 35.91 23.11 0 23.15-35.91 0-35.91zm35.09 81.73c23.11 0 23.14-35.91 0-35.91-23.11 0-23.15 35.91 0 35.91zm-622.03 322.33l26.2 103.59-103.8 51.83 77.59-155.41.01-.01zm125.03-250.41l203.2 203.19-109.51 54.68-30.57-74.51c-3.77-9.17-14.25-13.56-23.43-9.8s-13.56 14.26-9.8 23.43l31.58 76.96-127.42 63.62-34.5-136.41 72.48-145.18 19.94 48.61c2.85 6.94 9.55 11.15 16.62 11.15 2.27 0 4.58-.43 6.81-1.35 9.17-3.76 13.56-14.25 9.8-23.43l-31.86-77.65 6.65-13.32.01.01zm-242.7 463.86c2.72 0 5.47-.62 8.02-1.89l476.22-237.78c5.17-2.58 8.78-7.48 9.7-13.19.93-5.7-.94-11.5-5.02-15.57L544.35 913.97a17.95 17.95 0 0 0-28.76 4.67l-21.44 42.93-216.34 433.3a17.951 17.951 0 0 0 3.37 20.72 17.92 17.92 0 0 0 12.7 5.26l-.01-.01zm787.19-233.41c0-20.26 16.48-36.74 36.73-36.74 20.27 0 36.76 16.48 36.76 36.74s-16.49 36.75-36.76 36.75c-20.25 0-36.73-16.49-36.73-36.75zm109.4 0c0-40.06-32.59-72.65-72.67-72.65-40.06 0-72.65 32.59-72.65 72.65 0 40.07 32.59 72.67 72.65 72.67 40.07 0 72.67-32.6 72.67-72.67z" fill="#727271"/><path d="M1013.62 668.79l-46.81-46.81 46.81-46.82 46.82 46.82-46.82 46.81zm90.17-46.81c0-4.76-1.89-9.33-5.26-12.7l-72.22-72.22c-7.014-7.013-18.386-7.013-25.4 0l-72.2 72.22c-7.01 7.01-7.01 18.38 0 25.39l72.2 72.2a17.89 17.89 0 0 0 12.7 5.26c4.59 0 9.19-1.75 12.69-5.26l72.22-72.2c3.37-3.37 5.26-7.93 5.26-12.7l.01.01z" fill="#EF7F1A"/><path d="M562.59 1119.37c23.11 0 23.15-35.91 0-35.91-23.11 0-23.15 35.91 0 35.91zM90.19 871.12l-46.81-46.81 46.81-46.82 46.82 46.82-46.82 46.81zm90.17-46.81c0-4.76-1.89-9.33-5.26-12.7l-72.22-72.21c-7.014-7.013-18.386-7.013-25.4 0l-72.2 72.22c-7.01 7.01-7.01 18.38 0 25.39l72.2 72.19c3.5 3.51 8.1 5.26 12.69 5.26s9.19-1.75 12.7-5.26l72.22-72.2c3.37-3.37 5.26-7.93 5.26-12.7l.01.01zm-9.49 192.11c16.91-1.97 12.38 15.81 8.68 26.41-5.04 14.43-13.74 27.55-24.61 38.19-1.13 1.1-2.31 2.16-3.48 3.22-.56-.69-1.12-1.37-1.66-2.09-15.84-21.12-7.94-62.35 21.07-65.73zm11.8 87.54c13.68-14.27 24.54-31.34 31.04-50.01 9.03-25.93 7.03-58.11-21.62-70.15-23.13-9.72-50.54 1.36-66.28 19.22-15.89 18.04-23.06 42.5-19.45 66.31 2.01 13.27 7.27 24.97 14.79 34.9-19.2 8.87-40.73 12.64-61.52 8.65-9.5-1.83-19.37 1.48-22.63 11.52-2.71 8.33 1.94 20.8 11.52 22.64 35.46 6.81 71.72.18 102.29-17.85 21.95 11.84 48.66 15.97 72.62 10.73 64.39-14.08 101.02-73.98 118.46-132.98 6.54-22.12-27.58-33.36-34.15-11.12-11.37 38.48-30.02 78.98-66.73 99.26-17.81 9.84-39.28 13.7-58.33 8.87l-.01.01z" fill="#727271"/></g></svg>