<svg height="1200" viewBox="0 0 1634 1200" width="1634" xmlns="http://www.w3.org/2000/svg"><g fill="none"><path d="m197.42 80.98c-12.09 0-21.9 9.81-21.9 21.91v182.53h-43.81v-182.53c0-12.09-9.81-21.91-21.91-21.91-12.09 0-21.9 9.81-21.9 21.91v182.53h-43.81v-182.53c0-12.09-9.81-21.91-21.9-21.91s-21.9 9.81-21.9 21.91v262.84c0 52.89 37.69 97.14 87.61 107.31v520.58c0 12.09 9.81 21.9 21.9 21.9s21.91-9.81 21.91-21.9v-520.58c49.93-10.17 87.61-54.42 87.61-107.31v-262.84c0-12.09-9.81-21.91-21.91-21.91zm-87.61 350.45c-36.23 0-65.71-29.48-65.71-65.71v-36.51h131.42v36.51c0 36.23-29.48 65.71-65.71 65.71zm1502.22-350.45c-60.39 0-109.52 49.13-109.52 109.52v401.56c0 12.09 9.81 21.91 21.9 21.91h65.71v379.65c0 12.09 9.81 21.9 21.9 21.9s21.9-9.81 21.9-21.9v-890.73c0-12.09-9.81-21.91-21.9-21.91zm-21.9 489.17h-43.81v-379.65c0-28.56 18.31-52.92 43.81-61.96zm-330-394c-113.26-113.26-263.85-175.64-424.03-175.64-160.17 0-310.77 62.38-424.03 175.64s-175.64 263.85-175.64 424.03c0 160.17 62.38 310.77 175.64 424.03s263.85 175.63 424.03 175.63c160.17 0 310.77-62.37 424.03-175.63s175.64-263.86 175.64-424.03-62.38-310.77-175.64-424.03zm-25.19 822.87c-106.54 106.54-248.18 165.2-398.84 165.2s-292.3-58.67-398.84-165.2c-106.54-106.54-165.2-248.18-165.2-398.84s58.67-292.3 165.2-398.84c106.54-106.53 248.18-165.2 398.84-165.2s292.3 58.67 398.84 165.2c106.54 106.54 165.2 248.18 165.2 398.84s-58.67 292.3-165.2 398.84z" fill="#727271"/><path d="m1292.7 295.74c-38.08949-13.899067-78.71281-19.484177-119.14-16.38 6.6-39.56 4.86-80.51-5.7-119.98-2.38-8.89-11.14-14.51-20.19-12.96-44.77 7.62-86.62 25.68-122.5 52.59-15.63-41.77-41.01-79.77-74.58-110.37-6.8-6.19-17.2-6.19-24 0-23.64 21.55-43.22 46.78-58.2 74.39-10.71-.77-21.53-1.17-32.29-1.17-121.8 0-239.07 51.29-321.76 140.7-6.69 7.23-6.24 18.5.98 25.17 3.285001 3.052956 7.60539 4.746806 12.09 4.74 4.8 0 9.57-1.92 13.08-5.72 75.97-82.15 183.72-129.27 295.61-129.27 5.44 0 10.9.15 16.34.36-12.05 31.78-18.44 65.77-18.44 100.36 0 79.55 33.75 155.93 92.59 209.55 1.75 1.6 3.74 2.78 5.85 3.55l.06.03c31.39 11.44 64.26 17.11 97.07 17.11 45.38 0 90.6-10.84 131.52-32.26 19.02-9.96 36.69-22 52.77-35.78 16.53 44.6 24.93 91.5 24.93 139.77 0 222.05-180.65 402.69-402.69 402.69-222.05 0-402.69-180.65-402.69-402.69 0-78.36 22.52-154.29 65.12-219.58 5.37-8.24 3.06-19.27-5.19-24.65-8.24-5.37-19.27-3.06-24.65 5.19-46.39 71.1-70.91 153.76-70.91 239.06 0 241.68 196.62 438.31 438.31 438.31s438.31-196.63 438.31-438.31c0-57.89-11.06-113.98-32.91-166.93 29.31-33.02 50.89-72.77 62.31-116.25 2.34-8.91-2.48-18.12-11.12-21.26zm-190.03 70.77c-26.82 41.81-65.53 74.29-110.45 93.7 32.83-47.18 50.96-103.73 50.96-162.02 0-21.17-2.41-42.1-7.03-62.46 29.29-24.52 63.8-41.89 101.09-50.83 12.23 62.44-.03 127.76-34.56 181.61zm-233.04-68.31c0-63.95 24.94-125.56 68.96-171.51 44.01 45.95 68.96 107.56 68.96 171.51s-24.95 125.57-68.96 171.52c-44.02-45.95-68.96-107.57-68.96-171.52zm274.94 166.42c-42.08 22.02-89.39 31.25-135.98 27.3 50.41-22.31 93.84-59.06 124.07-106.18 14-21.83 24.78-45.32 32.27-69.72 33.40597-4.13977 67.30511-1.431377 99.63 7.96-20.32 60.3-63.34 110.98-119.99 140.63z" fill="#727271"/><g fill="#ef7f1a"><path d="m691.26 416.19c-27.7 0-52.36 13.31-67.91 33.86-15.56-20.55-40.19-33.86-67.9-33.86-46.94 0-85.12 38.19-85.12 85.13 0 43.12 32.25 78.85 73.89 84.35-4.359784 10.395666-6.600237 21.557135-6.59 32.83 0 46.94 38.19 85.12 85.12 85.12 46.94 0 85.13-38.19 85.13-85.12 0-11.57-2.33-22.61-6.53-32.69 42.19-5.01 75.03-40.98 75.03-84.5 0-46.94-38.19-85.13-85.13-85.13zm-185.32 85.13c0-27.3 22.21-49.5 49.5-49.5 27.3 0 49.5 22.2 49.5 49.5 0 27.29-22.2 49.5-49.5 49.5s-49.5-22.21-49.5-49.5zm116.81 166.69c-27.29 0-49.5-22.21-49.5-49.5 0-27.3 22.21-49.5 49.5-49.5 27.3 0 49.51 22.21 49.51 49.5s-22.22 49.5-49.51 49.5zm68.51-117.19c-27.3 0-49.5-22.21-49.5-49.5 0-27.3 22.21-49.5 49.5-49.5 27.3 0 49.5 22.2 49.5 49.5 0 27.29-22.21 49.5-49.5 49.5zm395.63 141.74c8.92-4.15 12.79-14.74 8.65-23.66-10.13-21.81-23.96-41.58-41.15-58.78-38.92-38.92-90.65-60.35-145.68-60.35-55.02 0-106.75 21.43-145.67 60.35-38.92 38.91-60.35 90.65-60.35 145.68s21.44 106.76 60.35 145.66c38.92 38.92 90.65 60.35 145.67 60.35 55.03 0 106.76-21.43 145.68-60.35 41.39-41.39 63.26-98.65 60-157.1-.55-9.83-8.97-17.32-18.78-16.79-9.81.54-17.34 8.95-16.79 18.77 2.69 48.35-15.39 95.7-49.62 129.93-32.19 32.19-74.98 49.91-120.48 49.91-45.52 0-88.3-17.72-120.49-49.91-32.18-32.17-49.9-74.96-49.9-120.47 0-45.52 17.72-88.31 49.9-120.49 32.19-32.19 74.98-49.92 120.49-49.92 45.5 0 88.29 17.73 120.47 49.91 14.22 14.24 25.67 30.6 34.05 48.61 4.13 8.91 14.73 12.79 23.65 8.65z"/><path d="m807.72 706c-16.09 5.75-27.12 19.88-28.81 36.89-3.87 39.08 9.83 77.4 37.58 105.16 24.65 24.64 57.65 38.2 92.11 38.2 4.33 0 8.67-.22 13.04-.65 17-1.69 31.14-12.73 36.89-28.81 5.74-16.08 1.82-33.56-10.26-45.63l-94.91-94.91c-12.07-12.07-29.56-15.99-45.63-10.25zm115.35 130.35c3.16 3.15 2.54 6.64 1.9 8.44-.52 1.45-2.23 4.9-6.85 5.35-28.43 2.81-56.28-7.13-76.44-27.3-20.18-20.17-30.13-48.04-27.31-76.46.46-4.62 3.9-6.33 5.35-6.85.73-.26 1.75-.52 2.9-.52 1.69 0 3.67.55 5.55 2.42l94.91 94.91zm71.77-28.13c4.95 0 9.97-.85 14.85-2.6 16.09-5.74 27.13-19.87 28.83-36.87 3.9-39.08-9.79-77.43-37.55-105.19s-66.1-41.46-105.2-37.56c-17 1.69-31.13 12.74-36.88 28.82-5.74 16.07-1.81 33.54 10.26 45.61l94.93 94.94c8.4 8.39 19.42 12.85 30.76 12.85zm-102.4-141.41c.52-1.46 2.23-4.91 6.86-5.37 3.19-.31 6.35-.47 9.51-.47 25.05 0 49.04 9.86 66.97 27.78 20.19 20.19 30.13 48.06 27.3 76.47-.46 4.63-3.9 6.34-5.35 6.86-1.8.65-5.29 1.25-8.44-1.89l-94.93-94.94c-3.16-3.15-2.54-6.65-1.9-8.44z"/></g></g></svg>