<svg width="1217" height="1215" xmlns="http://www.w3.org/2000/svg"><g fill="none"><path d="M187.02 584.87h202.99a21.26 21.26 0 0 1 2.53-14.37c5.61-9.72 17.87-13.44 27.91-8.48 10.42 5.14 23.04 2 29.82-7.45 6.78-9.45 5.72-22.42-2.5-30.63l-34.76-34.76c-8.33-8.32-8.33-21.87 0-30.19 8.33-8.33 21.87-8.33 30.2 0l1.57 1.56a23.763 23.763 0 0 0 25.88 5.15 23.763 23.763 0 0 0 14.66-21.94v-47.53c0-11.78 9.58-21.35 21.35-21.35 11.77 0 21.35 9.58 21.35 21.35v47.53c0 9.61 5.79 18.27 14.67 21.94a23.763 23.763 0 0 0 25.88-5.15l1.56-1.56c3.86-3.86 8.85-5.91 13.93-6.19.11 0 .21.01.32 0 .14 0 .27-.03.41-.04 5.61-.12 11.26 1.94 15.54 6.22 4.03 4.03 6.26 9.4 6.26 15.1 0 5.7-2.22 11.06-6.26 15.09l-34.75 34.76c-8.22 8.22-9.28 21.19-2.51 30.63 6.78 9.45 19.4 12.6 29.82 7.46 10.04-4.96 22.3-1.24 27.91 8.48 2.57 4.46 3.39 9.54 2.53 14.36l-233.29.01h542.21-103.52c.52-1.52 1.02-3.04 1.44-4.61a68.485 68.485 0 0 0-.36-36.81c36.81-1.31 66.37-31.67 66.37-68.81 0-22.47-10.82-42.46-27.54-55.04l6.87-6.87c13-13.01 20.17-30.3 20.17-48.69 0-18.39-7.17-35.68-20.17-48.68-13-13-30.29-20.17-48.69-20.17-18.39 0-35.68 7.17-48.69 20.17l-6.87 6.87a69.388 69.388 0 0 0-16.03-15.36l6.02-6.02c26.85-26.85 26.85-70.53 0-97.37-13-13-30.3-20.17-48.68-20.17-18.39 0-35.68 7.17-48.69 20.17l-6.87 6.87a69.39 69.39 0 0 0-19.86-17.83c10.94-12.53 16.93-28.39 16.93-45.19 0-18.39-7.16-35.68-20.17-48.69-15.89-15.89-37.68-22.37-58.39-19.45v-9.72c0-37.97-30.89-68.85-68.85-68.85-37.96 0-68.85 30.89-68.85 68.85v9.72c-20.7-2.91-42.5 3.56-58.39 19.45-25.71 25.71-26.78 66.85-3.24 93.87a69.43 69.43 0 0 0-19.87 17.83l-6.87-6.87c-13-13-30.3-20.17-48.69-20.17-18.39 0-35.68 7.17-48.68 20.17-26.85 26.85-26.85 70.53 0 97.37l7.02 7.02a69.355 69.355 0 0 0-14.62 14.36l-6.87-6.87c-13.01-13-30.3-20.17-48.69-20.17-18.39 0-35.68 7.17-48.68 20.17-13.01 13-20.17 30.3-20.17 48.68 0 18.39 7.17 35.68 20.17 48.69l6.87 6.87c-16.71 12.58-27.54 32.57-27.54 55.04 0 37.14 29.55 67.5 66.37 68.81a68.483 68.483 0 0 0-.37 36.81c.42 1.57.93 3.09 1.45 4.61v.01zm-19.95-110.23c0-11.77 9.57-21.35 21.35-21.35h2.21c9.61 0 18.26-5.79 21.94-14.66a23.726 23.726 0 0 0-5.15-25.88l-33.61-33.61c-8.33-8.33-8.33-21.87 0-30.2 4.04-4.03 9.39-6.25 15.09-6.25 5.7 0 11.06 2.22 15.1 6.26l33.61 33.61c6.79 6.79 17 8.82 25.88 5.15a23.743 23.743 0 0 0 14.66-21.94v-2.21c0-11.77 9.57-21.35 21.35-21.35 11.77 0 21.35 9.58 21.35 21.35v49.15c0 11.63 8.42 21.54 19.89 23.43 11.48 1.89 22.63-4.8 26.36-15.81 3.59-10.61 14.89-16.65 25.73-13.74 3.06.82 5.8 2.31 8.14 4.26-7.83 3.35-15.18 8.18-21.56 14.56-26.26 26.26-26.83 68.63-1.72 95.59a68.394 68.394 0 0 0-26.28 25.77 69.12 69.12 0 0 0-6.16 14.07l-87.34 22.15c-.1.03-.2.05-.31.08-11.37 3.05-23.1-3.72-26.15-15.09-2.9-10.84 3.14-22.13 13.74-25.73 11.01-3.73 17.7-14.88 15.81-26.35-1.89-11.47-11.81-19.89-23.43-19.89h-49.15c-11.77 0-21.35-9.58-21.35-21.35v-.02zm118.59-237.57c8.32-8.33 21.86-8.33 30.19 0l33.61 33.6c6.79 6.79 17 8.82 25.88 5.15A23.753 23.753 0 0 0 390 253.88v-2.21c0-11.77 9.58-21.35 21.35-21.35 11.78 0 21.35 9.58 21.35 21.35v49.16c0 11.62 8.42 21.54 19.89 23.43 11.47 1.89 22.63-4.8 26.35-15.81 3.33-9.81 13.53-15.89 23.73-14.17 2.63.45 5.32.45 7.96 0 10.2-1.72 20.4 4.36 23.72 14.17 3.73 11.02 14.88 17.7 26.36 15.81 11.47-1.89 19.89-11.81 19.89-23.43v-49.16c0-11.77 9.58-21.35 21.35-21.35 11.77 0 21.35 9.58 21.35 21.35v2.21c0 9.61 5.79 18.26 14.66 21.94a23.726 23.726 0 0 0 25.88-5.15l33.61-33.6c8.33-8.33 21.87-8.33 30.2 0 4.03 4.03 6.26 9.39 6.26 15.09 0 5.7-2.22 11.06-6.26 15.1l-29.99 29.99c-28.22 7.9-49.17 33.36-50.26 63.81-11.66-3.37-24.33-3.71-36.81-.36-14.63 3.92-27.11 12.57-36.08 23.95-5.52-32.47-33.84-57.28-67.86-57.28-33.1 0-60.81 23.48-67.37 54.66-8.83-10.2-20.6-17.7-34.16-21.33a68.485 68.485 0 0 0-36.81.36c-1.13-31.6-23.66-57.82-53.49-64.63l-29.17-29.17c-4.03-4.04-6.25-9.39-6.25-15.1 0-5.7 2.22-11.06 6.26-15.09zM413 132.24c8.33-8.32 21.87-8.32 30.21.02l1.56 1.56c6.8 6.78 17 8.81 25.88 5.13a23.73 23.73 0 0 0 14.65-21.93V69.49c0-11.78 9.58-21.35 21.35-21.35 11.77 0 21.35 9.58 21.35 21.35v47.53c0 9.6 5.78 18.26 14.65 21.93a23.742 23.742 0 0 0 25.88-5.13l1.57-1.57c8.32-8.32 21.86-8.33 30.19 0 4.04 4.04 6.26 9.4 6.26 15.1 0 5.7-2.22 11.06-6.26 15.1l-26.37 26.37c-23.28 10.42-39.78 33.39-40.79 60.26-8.41-2.39-17.38-3.19-26.5-2.17-9.13-1.01-18.09-.21-26.5 2.17-1.01-26.87-17.5-49.83-40.78-60.26l-26.37-26.37c-8.33-8.32-8.33-21.87 0-30.2l.02-.01zm365.11 250.31l33.61-33.61a21.17 21.17 0 0 1 15.09-6.26c5.7 0 11.07 2.22 15.1 6.26 4.04 4.03 6.25 9.39 6.25 15.09 0 5.7-2.22 11.06-6.25 15.09l-33.61 33.61a23.76 23.76 0 0 0-5.15 25.88 23.753 23.753 0 0 0 21.94 14.66h2.21c11.77 0 21.35 9.58 21.35 21.35 0 11.78-9.58 21.35-21.35 21.35h-49.15c-11.63 0-21.55 8.42-23.44 19.89-1.89 11.47 4.8 22.62 15.81 26.35 10.61 3.59 16.64 14.89 13.74 25.72-3.05 11.37-14.79 18.15-26.15 15.1-.1-.03-.2-.06-.31-.08l-89.98-22.82a69.57 69.57 0 0 0-5.93-13.41 68.417 68.417 0 0 0-26.29-25.77c11.91-12.78 18.44-29.34 18.44-46.9 0-18.39-7.17-35.68-20.17-48.69a68.315 68.315 0 0 0-19.91-13.87c2.48-2.3 5.5-4.04 8.91-4.95 10.83-2.9 22.13 3.13 25.72 13.74 3.73 11.02 14.88 17.7 26.36 15.81 11.47-1.89 19.89-11.81 19.89-23.43v-49.15c0-11.77 9.58-21.35 21.35-21.35 11.77 0 21.35 9.58 21.35 21.35v2.21c0 9.61 5.79 18.27 14.66 21.94a23.764 23.764 0 0 0 25.89-5.15l.02.04z" fill="#727271"/><path d="M1104.51 417.22c-4.42-4.41-10.52-6.93-16.79-6.93-6.25 0-12.37 2.52-16.79 6.93-4.42 4.44-6.96 10.55-6.96 16.79 0 6.27 2.54 12.4 6.96 16.82 4.41 4.41 10.54 6.96 16.79 6.96 6.28 0 12.37-2.54 16.79-6.96 4.44-4.42 6.96-10.55 6.96-16.82 0-6.24-2.52-12.35-6.96-16.79zM606.47 630.63l-1.28 151.72H485.06c12.86 13.62 22.93 29.38 28.78 47.5h90.94l-2.85 337.21h-76.55c-19.03 19.3-44.1 34.98-71.49 47.5h564.92c11.09 0 20.71-7.69 23.16-18.51l132.26-584.24c.05-.22.07-.45.11-.67l39.26-173.46c1.91-8.44 2.84-16.96 2.83-25.4-.04-25.33-8.6-50.03-24.81-70.33-21.62-27.06-53.89-42.58-88.52-42.58-53.3 0-98.73 36.3-110.5 88.28l-44.18 195.17H110.83c-7.28 0-14.15 3.33-18.65 9.05a23.734 23.734 0 0 0-4.44 20.25l28.68 119.44 43.45-14.44 1.63-.4.2-.05-20.73-86.35h185.76l14.39 81.9c5.8 1.09 11.58 2.3 17.31 3.65l.48.11.47.12c10.61 2.76 21.5 6.05 32.39 9.93l-16.81-95.71 231.53.3-.02.01zm45.4 536.44l1.78-337.21h201.1l-54.45 337.21H651.87zm435.05-384.71h-175.6l23.86-152.03h186.15l-34.41 152.03zm-235.99 384.71l52.93-337.21h172.3l-76.34 337.21H850.93zM654.69 782.36V630.33h232.26l-26.7 152.03H654.69zm384.24-384.22c6.83-30.19 33.22-51.27 64.17-51.27 20.12 0 38.85 9.01 51.41 24.72 12.56 15.72 17.21 35.98 12.77 55.6l-35.23 155.62H997.12l41.81-184.68v.01z" fill="#EF7F1A"/><path d="M47.94 1076.88c0-20.51 20.44-42.09 56.09-59.2 41.71-20.03 97.71-31.05 157.66-31.05s115.94 11.03 157.66 31.05c35.65 17.11 56.09 38.69 56.09 59.2 0 20.51-20.44 42.09-56.09 59.2-40.63 19.5-94.82 30.44-153.02 31h-4.64c-.29 0-.57.04-.86.04-59.62-.1-115.28-11.11-156.8-31.04-35.64-17.11-56.09-38.69-56.09-59.2zm45.12-210.19c0-34.19 72.11-72.44 168.62-72.44s168.62 38.24 168.62 72.44c0 34.19-72.11 72.44-168.62 72.44S93.06 900.89 93.06 866.69zm33.12-94.42c-3.8 1.66-7.54 3.35-11.15 5.16-44.8 22.4-69.47 54.1-69.47 89.26 0 35.16 24.67 66.85 69.47 89.26 2.42 1.21 4.89 2.39 7.4 3.53-13.83 4.45-26.88 9.59-38.96 15.38-53.54 25.7-83.03 61.93-83.03 102.02 0 40.09 29.49 76.32 83.03 102.02 39.9 19.15 90.36 31.15 144.69 34.65 21.28 1.37 43.54 1.62 64.82-.25 87.58-7.72 228.93-50.48 226.7-130.76-.34-12.19-1.35-28.54-8.54-43.97-9.68-20.77-29.34-41.12-62.09-59.09-2.96-1.57-6.02-3.12-9.15-4.62-12.07-5.8-25.13-10.94-38.96-15.38 2.51-1.15 4.98-2.32 7.39-3.53 44.8-22.4 69.47-54.09 69.47-89.26 0-64.73-76.57-96.6-128.94-110.21-27.07-6.36-56.68-9.72-87.19-9.72-31.67 0-62.36 3.63-90.26 10.47l-45.24 15.04h.01z" fill="#727271"/><path d="M232.99 1102.1c-74.18-8.41-104.15-33.54-104.15-42.6 0-13.11-10.63-23.75-23.75-23.75-13.11 0-23.75 10.64-23.75 23.75 0 45.16 56.06 79.57 146.3 89.8.91.1 1.81.15 2.71.15 11.92 0 22.19-8.95 23.57-21.07 1.48-13.03-7.89-24.8-20.93-26.27v-.01zm81.62 47.59h.11c13.11 0 23.7-10.63 23.7-23.75 0-13.11-10.69-23.75-23.8-23.75-13.11 0-23.75 10.63-23.75 23.75 0 13.11 10.63 23.75 23.75 23.75h-.01z" fill="#727271"/></g></svg>