<svg width="35" height="35" xmlns="http://www.w3.org/2000/svg"><g transform="translate(.316 .44)" fill="#EF7F1A" fill-rule="evenodd"><path d="M19.705 17.414h1.988v-2.025h-1.988v2.025zm-6.84 0h1.989v-2.025h-1.989v2.025zm14.692-8.709a.494.494 0 0 1-.039-.044c.844-1.874.814-3.898-.09-5.873-.692-1.506-1.663-2.461-1.705-2.502L25.429 0h-2.764l-.007 1.003c-.034 3.909-2.713 5.045-3.816 5.441h-3.125c-1.105-.396-3.784-1.532-3.816-5.441L11.89 0H9.126l-.294.286c-.042.041-1.013.996-1.701 2.502-.908 1.975-.936 3.999-.09 5.873a1.737 1.737 0 0 0-.039.044H0v2.567a5.066 5.066 0 0 0 5.063 5.062h.529l2.33 8.292c.032-.036.068-.071.103-.106a7.052 7.052 0 0 1 4.834-2.078 7.055 7.055 0 0 1 2.479.382 5.908 5.908 0 0 0 3.881 0 7.082 7.082 0 0 1 7.418 1.802l2.328-8.292h.531c2.79 0 5.062-2.27 5.062-5.062V8.705h-7.001z"/><path d="M21.651 24.466a5.033 5.033 0 0 0-1.772.273 8.024 8.024 0 0 1-5.199 0 5.036 5.036 0 0 0-1.772-.273 5.052 5.052 0 0 0-4.939 4.936 5.023 5.023 0 0 0 1.436 3.665 5.02 5.02 0 0 0 3.212 1.511v-2.956h2.023v2.711a2.26 2.26 0 0 0 .075-.024 7.717 7.717 0 0 1 5.127 0l.075.024v-2.711h2.025v2.956a5.017 5.017 0 0 0 3.21-1.511 5.033 5.033 0 0 0 1.438-3.665 5.057 5.057 0 0 0-4.939-4.936"/></g></svg>