<svg width="33" height="32" xmlns="http://www.w3.org/2000/svg"><g transform="translate(.903 .323)" fill="#EF7F1A" fill-rule="evenodd"><path d="M24.038 20.917c-1.033-1.02-2.323-1.02-3.347 0-.783.777-1.567 1.553-2.336 2.342-.212.218-.39.264-.645.119-.508-.277-1.046-.5-1.534-.803-2.27-1.428-4.172-3.263-5.855-5.33-.835-1.026-1.58-2.125-2.098-3.361-.107-.25-.087-.415.116-.619.784-.757 1.547-1.533 2.317-2.31 1.07-1.079 1.07-2.342-.007-3.428-.611-.618-1.225-1.223-1.836-1.842-.63-.631-1.256-1.27-1.894-1.895-1.033-1.006-2.323-1.006-3.35.007-.788.776-1.547 1.572-2.348 2.335C.477 6.837.1 7.699.023 8.705c-.125 1.639.278 3.185.844 4.691 1.155 3.119 2.919 5.889 5.059 8.429 2.887 3.435 6.335 6.152 10.369 8.113 1.816.881 3.697 1.559 5.743 1.671 1.408.079 2.634-.276 3.613-1.375.67-.751 1.428-1.435 2.139-2.152 1.054-1.066 1.06-2.355.01-3.408a784.176 784.176 0 0 0-3.762-3.757m-1.256-5.244l2.428-.415a10.832 10.832 0 0 0-3.034-5.855 10.789 10.789 0 0 0-6.185-3.086l-.342 2.441a8.378 8.378 0 0 1 4.79 2.388 8.365 8.365 0 0 1 2.343 4.527m3.797-10.554A17.912 17.912 0 0 0 16.313 0l-.341 2.441a15.515 15.515 0 0 1 8.869 4.422 15.519 15.519 0 0 1 4.35 8.389l2.428-.415a18.043 18.043 0 0 0-5.04-9.718"/></g></svg>