<svg width="32" height="32" xmlns="http://www.w3.org/2000/svg"><g fill="none"><path fill="#FFF" d="M11.429 3.429H26.286V32H11.429z"/><path d="M27.673 0H4.31A4.31 4.31 0 0 0 0 4.31v23.363a4.31 4.31 0 0 0 4.31 4.31h11.523l.02-11.429h-2.97a.7.7 0 0 1-.7-.698l-.015-3.684a.7.7 0 0 1 .7-.703h2.965v-3.56c0-4.13 2.523-6.38 6.208-6.38h3.024a.7.7 0 0 1 .7.7v3.107a.7.7 0 0 1-.7.7l-1.855.001c-2.005 0-2.393.953-2.393 2.35v3.082h4.404a.7.7 0 0 1 .696.783l-.437 3.684a.7.7 0 0 1-.696.618h-3.947l-.02 11.43h6.857a4.31 4.31 0 0 0 4.31-4.31V4.31A4.31 4.31 0 0 0 27.673 0z" fill="#475993"/></g></svg>