<svg width="1162" height="1162" xmlns="http://www.w3.org/2000/svg"><g fill="none"><path d="M844.11 775.95c0 12.53-10.16 22.69-22.69 22.69-12.53 0-22.69-10.16-22.69-22.69 0-12.53 10.16-22.69 22.69-22.69 12.53 0 22.69 10.16 22.69 22.69z" fill="#EF7F1A"/><path d="M1139.05 1116.26h-45.37c-12.51 0-22.69-10.17-22.69-22.69V390.26h22.69a22.686 22.686 0 1 0 17.81-36.74L839.24 8.67c-9.05-11.47-26.5-11.54-35.61 0L531.38 353.52a22.666 22.666 0 0 0-2.61 23.94 22.666 22.666 0 0 0 20.41 12.8h22.69v230.02c-175.22 2.85-221.25 76.61-274.25 161.43L180.29 969.47c-4.18 6.68-11.37 10.67-19.24 10.67H95.43c-12.53 0-22.69 10.16-22.69 22.69v136.12c0 12.53 10.16 22.69 22.69 22.69h60.69c55.1 0 105.44-27.9 134.67-74.64l138.78-222.07c39.81-63.71 105.27-67.92 142.3-67.06v295.7c0 12.52-10.17 22.69-22.69 22.69h-45.37c-12.53 0-22.69 10.16-22.69 22.69 0 12.53 10.16 22.69 22.69 22.69h45.37c37.53 0 68.06-30.53 68.06-68.06V798.65h45.37v340.31c0 12.53 10.16 22.69 22.69 22.69 12.53 0 22.69-10.16 22.69-22.69v-68.06h226.87v68.06c0 12.53 10.16 22.69 22.69 22.69 12.53 0 22.69-10.16 22.69-22.69V798.65h45.38v294.93c0 37.53 30.53 68.06 68.06 68.06h45.37c12.53 0 22.69-10.16 22.69-22.69 0-12.53-10.16-22.69-22.69-22.69zM821.43 59.35l225.43 285.54H596L821.43 59.35zM391.1 840.89l-138.78 222.06c-20.89 33.39-56.84 53.32-96.2 53.32h-38v-90.75h42.93c23.6 0 45.18-11.96 57.71-32L336.1 805.77c51.37-82.2 86.16-137.74 235.77-140.12v86.83c-44.09-.94-128.45 4.67-180.77 88.41zm316.89 184.63v-90.75h226.87v90.75H707.99zm226.87-136.13H707.99v-90.75h11.35c12.53 0 22.69-10.16 22.69-22.69 0-12.53-10.16-22.69-22.69-22.69H617.25v-363h408.37v363H923.53c-12.53 0-22.69 10.16-22.69 22.69 0 12.53 10.16 22.69 22.69 22.69h11.34v90.75h-.01z" fill="#727271"/><path d="M957.55 571.77c0-75.06-61.06-136.13-136.13-136.13-75.06 0-136.12 61.06-136.12 136.13 0 75.06 61.06 136.12 136.12 136.12s136.13-61.06 136.13-136.12zm-226.87 0c0-50.04 40.71-90.75 90.75-90.75s90.75 40.71 90.75 90.75-40.71 90.75-90.75 90.75-90.75-40.71-90.75-90.75z" fill="#EF7F1A"/><path d="M.15 204.23c0 37.53 30.53 68.06 68.06 68.06h363c37.53 0 68.06-30.53 68.06-68.06s-30.53-68.06-68.06-68.06h-24.96c-10.54-51.71-56.38-90.75-111.16-90.75-13.89 0-27.51 2.52-40.28 7.37C234.33 20.48 198.36.04 158.97.04 96.42.04 45.53 50.93 45.53 113.48c0 8.66 1.04 17.24 2.98 25.6C20.56 147.55.15 173.54.15 204.23zM158.96 45.42c23.66 0 45.24 12.28 57.52 31.68-16.62 15.97-27.97 36.56-32.55 59.07H94.8a68.199 68.199 0 0 1-3.9-22.69c0-37.54 30.53-68.06 68.06-68.06zM68.21 181.54h136.13c12.53 0 22.69-10.16 22.69-22.69 0-37.24 30.12-68.06 68.06-68.06 37.53 0 68.06 30.53 68.06 68.06 0 12.53 10.16 22.69 22.69 22.69h45.37c12.51 0 22.69 10.17 22.69 22.69 0 12.51-10.17 22.69-22.69 22.69h-363c-12.51 0-22.69-10.18-22.69-22.69 0-12.52 10.17-22.69 22.69-22.69z" fill="#727271"/></g></svg>