<svg height="1029" viewBox="0 0 1031 1029" width="1031" xmlns="http://www.w3.org/2000/svg"><g fill="none"><path d="m943.51 992.22c-14.32 0-27.78-5.57-37.91-15.69l-166.16-166.18 75.82-75.82 166.18 166.19c10.12 10.1 15.69 23.56 15.69 37.9 0 29.56-24.06 53.6-53.61 53.6zm-490.32-330.67h-26.91c-8.675146-12.375684-18.527747-23.882665-29.42-34.36 132.56-12.88 236.53-124.87 236.53-260.76 0-69.98-27.24-135.79-76.74-185.29l-38.06-38.05c-49.48-49.5-115.28-76.75-185.28-76.75-144.49 0-262.04 117.56-262.04 262.06 0 69.99 27.25 135.79 76.75 185.29l38.05 38.04c4.8 4.8 9.93 9.22 15.09 13.62-15.82 2.45-31.12 6.46-45.72 11.97l-7.54-5.52c-69.72-64.22-109.7-155.28-109.7-250.05 0-159.07 129.42-288.48 288.49-288.48 187.36 0 339.78 152.44 339.78 339.8v75.21c0 104.43 38.69 202.86 109.17 279.12l-43.31 43.31c-76.24-70.48-174.69-109.17-279.12-109.17zm-282.73-198.4h66.13v66.14h-26.11c-.33-.33-.72-.61-1.04-.95l-38.06-38.04c-.33-.33-.6-.7-.93-1.03v-26.12zm-33.07-99.2v66.13h-9.13c-10.32-20.76-17.36-42.98-20.95-66.13h30.07zm0-132.26h-11.35c3.43-7.29 7.21-14.35 11.35-21.21zm99.2-99.2h-21.21c6.86-4.13 13.92-7.94 21.21-11.35zm99.2 0h-66.13v-23.88c20.24-5.87 41.55-9.19 63.64-9.19.84 0 1.65.11 2.49.11v32.95zm99.2 0h-66.13v-30.07c23.15 3.59 45.37 10.63 66.13 20.95zm99.2 99.2h-66.14v-66.13h26.12c.33.33.69.61 1.03.94l38.06 38.05c.33.32.59.69.93 1.02v26.13zm33.06 99.2v-66.13h9.13c10.31 20.77 17.36 42.99 20.94 66.13zm0 132.27h11.34c-3.42 7.29-7.2 14.35-11.34 21.21zm-99.2 99.2h21.21c-6.84 4.13-13.92 7.93-21.21 11.34zm-98.87 33.05-.16 8.85c-.05-.03-.1-.08-.15-.12v-41.78h66.14v23.87c-20.26 5.87-41.57 9.19-63.65 9.19l-2.17-.02zm-99.53-33.05h66.13v22.65c-20.904954-9.974876-43.201816-16.721591-66.13-20.01zm66.13-99.2v66.14h-66.13v-66.14zm-66.13-99.2h66.13v66.13h-66.13zm-33.06 0v66.13h-66.13v-66.13zm0-99.2v66.13h-66.13v-66.13zm99.2-33.06h-66.13v-66.13h66.13zm33.07 0v-66.13h66.13v66.13zm-33.07 99.2h-66.13v-66.13h66.13zm99.2 0h-66.13v-66.13h66.13zm33.07 0v-66.13h66.14v66.13zm0 99.2v-66.13h66.14v66.13zm-99.2 0v-66.13h66.13v66.13zm66.13 33.07v66.14h-66.13v-66.14zm97.08 66.14h-64.02v-66.14h66.14v64.02c-.7.71-1.41 1.43-2.12 2.12zm-359.5-363.74h64.02v66.13h-66.13v-64.02c.69-.71 1.4-1.42 2.11-2.11zm427.75 200.88c0 22.11-3.32 43.42-9.19 63.65h-23.87v-66.13h32.95c0 .83.11 1.65.11 2.48zm-496-38.03c0-22.1 3.32-43.41 9.19-63.65h23.88v66.13h-32.95c0-.83-.11-1.65-.11-2.48zm900.47 548.93-189.54-189.56-15.97 15.97c-64.21-69.98-99.76-159.89-99.76-255.45v-75.21c0-205.61-167.27-372.86-372.86-372.86-177.29 0-321.54 144.25-321.54 321.54 0 102.42 42.64 200.84 117.04 271.11-11.832182 6.769314-23.0484151 14.562455-33.52 23.29l43.73-8.11 99.66-29.07 95.51 28.03 73.84 49.98 61.62 96.3 1.65 1.29c-3.7-21.09-10.29-41.19-19.24-59.96h7.79c95.58 0 185.49 35.54 255.46 99.76l-15.97 15.97 189.56 189.57c16.39 16.35 38.14 25.36 61.28 25.36 47.8 0 86.68-38.89 86.68-86.67 0-23.18-9.01-44.94-25.39-61.29z" fill="#727271"/><path d="m947.53 926.08c9.13 0 16.54 7.41 16.54 16.54s-7.41 16.54-16.54 16.54-16.54-7.41-16.54-16.54 7.41-16.54 16.54-16.54z" fill="#727271"/><g fill="#ef7f1a" transform="translate(0 559)"><path d="m235.39 434.35c-109.41 0-198.4-89-198.4-198.4 0-17 2.38-33.41 6.41-49.17 32.39 2.17 61.96 20.31 78.69 49.55 16.58 29.05 43.38 50.41 75.42 60.15l9.61-31.64c-23.94-7.26-43.94-23.21-56.85-45.81-20.22-35.38-55.83-59.04-95.61-64.51 31.17-68.85 100.37-116.96 180.73-116.96 18 0 35.45 2.42 52.03 6.94l-.12-.04-64.8-17.63-95.5 31.14h-39.16c-51.19 42.46-83.91 106.41-83.91 177.98 0 127.64 103.83 231.47 231.47 231.47 127.63 0 231.46-103.83 231.46-231.47 0-22.11-3.2-43.45-9.09-63.68l-70.2-92.5-73.35-25.83c45.16 19.68 81.61 55.73 101.91 100.59-39.78 5.49-75.48 29.24-96.13 65.42-12.39 21.69-32.38 37.63-56.31 44.89l9.59 31.64c32.04-9.72 58.84-31.08 75.96-61.02 16.24-28.4 45.8-46.49 78.17-48.66 4.02 15.74 6.4 32.16 6.4 49.15 0 109.4-89 198.4-198.4 198.4z"/><path d="m234.74 430.4c53.98 0 102.85-21.88 138.22-57.25s57.25-84.24 57.25-138.22-21.88-102.86-57.25-138.23-84.24-57.25-138.22-57.25-102.86 21.88-138.23 57.25-57.25 84.25-57.25 138.23 21.88 102.85 57.25 138.22 84.25 57.25 138.23 57.25zm165.96-29.51c-42.47 42.47-101.16 68.75-165.96 68.75-64.81 0-123.5-26.28-165.97-68.75s-68.75-101.15-68.75-165.96 26.28-123.5 68.75-165.96c42.47-42.47 101.15-68.75 165.97-68.75 64.8 0 123.49 26.28 165.96 68.75s68.75 101.16 68.75 165.96c0 64.81-26.28 123.49-68.75 165.96z"/></g></g></svg>