<svg height="1030" viewBox="0 0 925 1030" width="925" xmlns="http://www.w3.org/2000/svg"><g fill="none"><g fill="#727271"><path d="m823.93 483.39c11.09 0 20.09-9 20.09-20.09s-9-20.09-20.09-20.09c-11.1 0-20.09 9-20.09 20.09s9 20.09 20.09 20.09z"/><path d="m.15 101.65v442.02c0 33.23 27.05 60.28 60.28 60.28h83.83c8.29 23.38 30.62 40.17 56.81 40.17h5.57c19.53 60.46 31.33 127.91 36.53 192.01 4.76 59.01 4.13 118.29-1.79 171.45-2.04 18.28 19.52 29.26 33.18 17.35l87.66-76.5 86.77 76.44c3.667698 3.23461 8.389735 5.01959 13.28 5.02 4.74 0 9.48-1.68 13.28-5.02l86.77-76.44 87.66 76.5c13.87 12.09 35.18.57 33.19-17.35-5.91-53.2-6.53-112.5-1.78-171.46 5.15-63.21 16.87-131.15 36.52-192h5.56c26.79 0 48.77-17.3 56.85-40.17h83.8c33.23 0 60.27-27.04 60.27-60.28v-442.02c0-33.24-27.04-60.28-60.27-60.28h-268.59l-1.03 24.46 58.87 44.16 11.19 1.2c-6.754387-10.452412-14.317542-20.3594095-22.62-29.63h222.17c11.07 0 20.09 9.01 20.09 20.09v442.02c0 11.07-9.01 20.09-20.09 20.09h-83.83c-8.3-23.39-30.63-40.19-56.82-40.19h-522.39c-26.78 0-48.77 17.31-56.85 40.19h-83.79c-11.08 0-20.09-9.02-20.09-20.09v-442.02c0-11.08 9.02-20.12 20.09-20.12h222.17l47.94-10.8-1.51-29.37h-268.59c-33.23 0-60.28 27.04-60.28 60.28zm273.68 652.87c-3.88-24.22-8.56-47.64-14.06-70.14l48.02 41.92zm8.63 70.08c-.69-7.71-1.46-15.41-2.31-23.09l58.3-48.46 93.26 81.39-69.37 60.54-79.88-70.39zm87.3-97.57 92.51-76.88 92.51 76.88-92.51 80.74zm216.33 26.02 58.27 48.43c-.85 7.62-1.61 15.36-2.31 23.15l-79.86 70.36-69.36-60.54zm64.65 1.48-33.99-28.24 48.05-41.94c-5.51 22.52-10.19 45.96-14.06 70.18zm-65.29-54.26-67.57-56.16h131.91zm-246.36 0-64.35-56.16h131.92zm-53.79 261.96c1.33-26.33 1.56-53.53.65-81l45.87 40.4zm176.97 20.78-69.51-61.24 69.51-60.65 69.5 60.65zm176.33-101.81c-.9 27.48-.69 54.68.64 81.03l-46.52-40.61zm84.86-277.26h-522.39c-11.07 0-20.09-9.02-20.09-20.09 0-11.09 9-20.09 20.09-20.09h522.39c11.08 0 20.09 9.02 20.09 20.09 0 11.09-9 20.09-20.09 20.09z"/><path d="m823.93 403.02c11.09 0 20.09-9 20.09-20.1v-200.91c0-11.1-9-20.09-20.09-20.09-11.11 0-20.09 9-20.09 20.09v200.91c0 11.1 8.99 20.1 20.09 20.1z"/></g><path d="m554.67 17.76c-28.55-11.61-59.19-17.63-90.65-17.63-41.51 0-79.61 14.55-117.31 30.45-38.71 16.33-75.55 58.17-93.66 94.03-18.29 36.21-30.13 75.71-30.13 116.62 0 55.61 19.39 109.85 54.57 152.77.07.08.12.16.2.25.01.01.02.03.04.04 46.02 55.95 113.93 88.04 186.3 88.04s140.27-32.09 186.29-88.04l.04-.04c.07-.09.13-.17.2-.27 35.19-42.91 54.57-97.15 54.57-152.76 0-34.64-8.63-68.02-21.47-99.31-25.35-61.77-74.49-101.98-128.98-124.15zm109.22 203.38h-58.17c3.07-30.41 13.04-59.8 29.08-85.72 16.05 25.93 26.02 55.31 29.09 85.72zm-344.67 159.37c24.81-35.07 39.89-76.35 43.49-119.19h81.22v179.81c-47.49-4.73-91.54-26.1-124.71-60.63zm-25.98-245.09c16.04 25.93 26.01 55.31 29.09 85.72h-58.17c3.07-30.41 13.04-59.8 29.09-85.72zm29.08 125.91c-3.07 30.41-13.04 59.81-29.08 85.74-16.071186-26.004344-26.015471-55.324254-29.08-85.74h58.17zm161.8 0h81.22c3.6 42.84 18.68 84.11 43.49 119.18-33.17 34.54-77.22 55.91-124.7 60.63v-179.81zm150.69 85.74c-16.05-25.94-26.02-55.35-29.09-85.76h58.17c-3.07 30.43-13.04 59.84-29.08 85.76zm-55.24-270.22c14.71 10.35 23.66 22.32 27.5 26.22-14 23.41-36.67 57.91-41.73 118.08h-81.22v-179.8c34.35 3.41 67.02 15.48 95.44 35.5zm-135.63 144.3h-81.22c-3.6-42.83-18.68-84.09-43.48-119.15 8.94-9.3 18.73-17.74 29.26-25.16 28.43-20.02 61.09-32.09 95.44-35.49z" fill="#ef7f1a"/></g></svg>