<svg width="1149" height="1060" xmlns="http://www.w3.org/2000/svg"><g fill="none" fill-rule="evenodd"><circle fill="#EF7F1A" cx="488.2" cy="488.34" r="97.72"/><path d="M702.5 277.66a22.353 22.353 0 0 0 15.85 6.57c5.74 0 11.48-2.19 15.85-6.57 8.76-8.76 8.76-22.96 0-31.71l-.3-.31c-8.76-8.76-22.96-8.76-31.72 0-8.75 8.76-8.75 22.96 0 31.72l.31.3h.01z" fill="#727271" fill-rule="nonzero"/><path d="M1064.27 489.83l78.16-78.16a22.434 22.434 0 0 0 4.86-24.44 22.439 22.439 0 0 0-20.72-13.84H964.55c-21.17-86.69-65.62-165.69-129.16-229.23C743.07 51.83 620.3.97 489.72.97c-130.57 0-253.34 50.85-345.67 143.19C51.72 236.49.86 359.25.86 489.83S51.71 743.17 144.05 835.5c27.45 27.46 57.62 51.22 89.86 71.08l-67.56 119.36a22.417 22.417 0 0 0 .15 22.34 22.411 22.411 0 0 0 19.37 11.13h115.49c8.07 0 15.54-4.34 19.52-11.38l47.76-84.39c39.1 9.92 79.7 15.04 121.08 15.04 41.39 0 81.98-5.13 121.08-15.04l47.77 84.39a22.416 22.416 0 0 0 19.52 11.38h115.48c7.98 0 15.36-4.24 19.38-11.12 4.01-6.89 4.06-15.4.14-22.35l-67.56-119.35c32.24-19.88 62.41-43.63 89.86-71.09 63.52-63.51 107.99-142.54 129.16-229.23h162.02a22.423 22.423 0 0 0 15.86-38.28l-78.16-78.16zm-41-22.43h-156.5l49.17-49.17h156.51l-49.17 49.17h-.01zm-734.99 547.16h-63.94l48.81-86.23c16.75 8.3 33.94 15.63 51.54 21.92l-36.4 64.31h-.01zm466.83 0h-63.94l-36.41-64.31a483.61 483.61 0 0 0 51.54-21.92l48.81 86.23zm48.57-210.77c-29.63 29.63-62.71 54.52-98.33 74.36-.44.22-.88.42-1.31.67-.27.15-.52.32-.78.49a438.718 438.718 0 0 1-85.98 36.01c-1.18.23-2.33.58-3.48 1.01-39.81 11.52-81.48 17.51-124.08 17.51-42.59 0-84.26-5.99-124.08-17.51-1.15-.43-2.3-.77-3.48-1.01-29.87-8.91-58.65-20.98-85.98-36.01-.26-.16-.51-.33-.78-.49-.43-.24-.87-.44-1.31-.66-35.62-19.85-68.7-44.74-98.33-74.37C91.91 719.92 45.72 608.42 45.72 489.83c0-118.59 46.19-230.09 130.04-313.96C259.62 92.02 371.12 45.83 489.72 45.83c118.6 0 230.09 46.19 313.96 130.04 55.1 55.11 94.4 122.98 114.58 197.52h-11.61a22.42 22.42 0 0 0-15.85 6.57l-59.51 59.51c-6.01-40.77-19.19-80.41-39.09-116.46-5.98-10.84-19.63-14.78-30.46-8.79-10.85 5.98-14.79 19.63-8.8 30.46 21.28 38.56 33.18 80.48 36.22 122.72h-98.88c-4.98-45.42-25.06-87.5-57.84-120.28C594.32 309 543.64 288 489.73 288c-53.91 0-104.59 21-142.71 59.11-38.11 38.12-59.11 88.81-59.11 142.71 0 53.91 21 104.59 59.11 142.71 38.12 38.11 88.8 59.11 142.71 59.11 53.91 0 104.59-21 142.71-59.11 32.78-32.78 52.85-74.86 57.84-120.29h98.78c-5.35 70.1-34.93 138.13-86.85 190.06-56.76 56.75-132.22 88.01-212.48 88.01-80.26 0-155.72-31.26-212.48-88.01-56.76-56.76-88.01-132.22-88.01-212.48 0-80.26 31.25-155.72 88.01-212.47 94.15-94.15 241.2-115 357.63-50.72 10.83 5.98 24.48 2.05 30.46-8.8 5.99-10.85 2.06-24.48-8.78-30.48-64.24-35.46-139.87-49.59-212.97-39.78-75.54 10.13-144.03 44.04-198.05 98.06-65.22 65.22-101.15 151.95-101.15 244.19 0 92.25 35.93 178.97 101.15 244.19s151.94 101.15 244.19 101.15 178.97-35.92 244.19-101.15c52.99-53 86.62-119.91 97.45-193.75l59.43 59.44c4.2 4.2 9.91 6.56 15.85 6.56h11.61c-20.18 74.54-59.5 142.44-114.57 197.52l-.01.01zM562.96 447.55c-6.19-10.73-19.91-14.4-30.63-8.21l-53.81 31.07c-6.94 4-11.21 11.41-11.21 19.42 0 8.02 4.27 15.42 11.21 19.42l53.81 31.07c3.53 2.04 7.39 3 11.2 3 7.74 0 15.29-4.02 19.44-11.21 3.63-6.3 3.85-13.63 1.24-19.85h80.89c-4.75 33.42-20.08 64.28-44.38 88.57-29.64 29.65-69.06 45.98-110.99 45.98-41.93 0-81.35-16.33-110.99-45.98-29.65-29.64-45.98-69.06-45.98-110.99 0-41.93 16.33-81.35 45.98-110.99 29.64-29.65 69.06-45.98 110.99-45.98 41.93 0 81.35 16.33 110.99 45.98 24.3 24.29 39.63 55.15 44.39 88.57h-80.89c2.6-6.24 2.39-13.56-1.24-19.85l-.02-.02zm352.97 113.87l-49.17-49.17h156.5l49.17 49.17H915.92h.01z" fill="#727271" fill-rule="nonzero"/></g></svg>