<svg width="1179" height="930" xmlns="http://www.w3.org/2000/svg"><g transform="translate(.9 .86)" fill="none"><path d="M376.38 46.01c6.05 0 11.97-2.46 16.25-6.74 4.28-4.28 6.75-10.21 6.75-16.26 0-6.04-2.46-11.98-6.75-16.26-4.28-4.28-10.2-6.74-16.25-6.74-6.06 0-11.98 2.46-16.26 6.74-4.28 4.28-6.74 10.21-6.74 16.26 0 6.05 2.45 11.98 6.74 16.26 4.28 4.28 10.2 6.74 16.26 6.74zm349.6 837.06H225.73c-99.11 0-179.74-80.63-179.74-179.74v-11.52c0-92.76 75.46-168.23 168.23-168.23 76.73 0 139.16-62.42 139.16-139.15 0-76.72-62.43-139.15-139.16-139.15H197.1c-54.94 0-99.64-44.7-99.64-99.64S142.16 46 197.1 46h87.29c12.7 0 23-10.3 23-23s-10.3-23-23-23H197.1C116.8 0 51.47 65.33 51.47 145.63S116.8 291.26 197.1 291.26h17.12c51.37 0 93.17 41.79 93.17 93.15 0 51.37-41.8 93.16-93.17 93.16C96.1 477.57 0 573.67 0 691.79v11.52c0 124.47 101.26 225.73 225.73 225.73h500.25c12.7 0 23-10.3 23-23s-10.3-23-23-23v.03zm91.99 0c-6.05 0-11.98 2.46-16.26 6.74-4.28 4.28-6.74 10.21-6.74 16.26 0 6.04 2.46 11.98 6.74 16.26 4.28 4.28 10.21 6.74 16.26 6.74 6.04 0 11.98-2.46 16.26-6.74 4.28-4.28 6.74-10.21 6.74-16.26 0-6.05-2.46-11.98-6.74-16.26-4.28-4.28-10.22-6.74-16.26-6.74zm188.26-296.34h-54.19c-41.57 0-75.39-33.82-75.39-75.39s33.82-75.39 75.39-75.39h7.41c120.18 0 217.96-97.78 217.96-217.97C1177.41 97.8 1079.63.02 959.45.02H468.38c-12.69 0-23 10.3-23 23s10.3 23 23 23h491.07c94.82 0 171.96 77.15 171.96 171.97s-77.15 171.97-171.96 171.97h-7.41c-66.93 0-121.38 54.45-121.38 121.39 0 66.93 54.45 121.39 121.38 121.39h54.19c69.03 0 125.18 56.15 125.18 125.17 0 69.02-56.15 125.18-125.18 125.18h-96.28c-12.69 0-23 10.3-23 23s10.3 23 23 23h96.28c94.38 0 171.17-76.79 171.17-171.17 0-94.38-76.79-171.16-171.17-171.16v-.03z" fill="#727271"/><path d="M414.31 621.66c-49.6 0-96.77 20.5-130.65 55.87l-58.03-58.03a23 23 0 0 0-25.06-4.98 22.99 22.99 0 0 0-14.19 21.24v151.76a22.984 22.984 0 0 0 22.99 22.99c5.99 0 11.87-2.33 16.27-6.74l58.03-58.03c33.88 35.37 81.06 55.87 130.66 55.87 58.68 0 113.95-28.68 147.86-76.72 5.6-7.95 5.6-18.57 0-26.52-33.91-48.04-89.18-76.73-147.87-76.73l-.01.02zM232.36 732.01v-40.72l20.37 20.36-20.37 20.36zm82.35-20.36c25.41-27.8 61.55-44 99.6-44 11.63 0 23.07 1.54 34.09 4.42-12.17 24.89-12.17 54.26 0 79.15a134.322 134.322 0 0 1-34.09 4.42c-38.05 0-74.19-16.19-99.6-43.99zm175.54 20.46c-6.7-12.76-6.7-28.16 0-40.94 8.6 5.87 16.56 12.69 23.68 20.47-7.11 7.78-15.08 14.61-23.68 20.46v.01zm89.94-439.26a23.012 23.012 0 0 0 25.07-4.99l58.03-58.03c33.88 35.36 81.06 55.87 130.66 55.87 58.69 0 113.96-28.68 147.85-76.73a22.998 22.998 0 0 0 0-26.52c-33.9-48.04-89.17-76.72-147.85-76.72-49.6 0-96.78 20.51-130.66 55.87l-58.03-58.03a23 23 0 0 0-25.06-4.98 23.013 23.013 0 0 0-14.19 21.25v151.77c0 9.3 5.59 17.69 14.19 21.24h-.01zm313.36-97.13c-7.11 7.78-15.08 14.61-23.68 20.47-3.29-6.23-5.04-13.21-5.04-20.47 0-7.25 1.75-14.23 5.04-20.48 8.59 5.87 16.57 12.69 23.68 20.48zm-99.61-43.99c11.61 0 23.04 1.53 34.04 4.41-5.97 12.17-9.15 25.63-9.15 39.58 0 13.96 3.17 27.41 9.15 39.58-11 2.89-22.43 4.41-34.04 4.41-38.06 0-74.19-16.19-99.61-43.99 25.42-27.8 61.56-43.99 99.61-43.99zm-181.95 23.63l20.36 20.37-20.36 20.36v-40.73z" fill="#EF7F1A"/><path d="M953.67 739.3c8.98-8.98 8.98-23.54 0-32.52-8.98-8.98-23.54-8.98-32.52 0-6.29 6.29-14.66 9.76-23.55 9.76s-17.26-3.47-23.54-9.76a23.027 23.027 0 0 0-16.27-6.74c-6.1 0-11.95 2.43-16.26 6.74-12.98 12.98-34.12 12.98-47.1 0-8.98-8.98-23.54-8.98-32.53 0-6.29 6.29-14.65 9.76-23.55 9.76-8.89 0-17.26-3.47-23.54-9.76-8.98-8.98-23.54-8.98-32.53 0-8.98 8.97-8.98 23.54 0 32.52 25.95 25.95 65.55 30.12 95.88 12.52 24.52 14.22 55.08 14.23 79.61.01 11.96 6.98 25.61 10.7 39.83 10.7 21.18 0 41.09-8.26 56.07-23.23zM519.83 440.32c-8.98-8.97-23.54-8.97-32.53 0-6.29 6.3-14.65 9.76-23.54 9.76-8.9 0-17.26-3.46-23.55-9.76-8.98-8.97-23.54-8.97-32.53 0-8.97 8.98-8.97 23.54 0 32.53 25.95 25.94 65.55 30.12 95.89 12.52 24.52 14.22 55.07 14.22 79.6.02 11.96 6.98 25.61 10.69 39.83 10.69 21.18 0 41.09-8.24 56.08-23.22 8.98-8.98 8.98-23.54 0-32.53-8.98-8.97-23.54-8.97-32.53 0-6.29 6.29-14.65 9.76-23.55 9.76-8.89 0-17.26-3.47-23.54-9.76a23.003 23.003 0 0 0-16.26-6.74c-6.1 0-11.95 2.43-16.27 6.74-12.98 12.99-34.12 12.99-47.09 0l-.01-.01zM263.57 123.84c-8.98-8.98-23.54-8.98-32.53 0-8.98 8.98-8.98 23.54 0 32.52 14.97 14.98 34.89 23.23 56.07 23.23 14.22 0 27.87-3.71 39.84-10.69 30.33 17.59 69.92 13.41 95.85-12.53 8.98-8.98 8.98-23.54 0-32.52-8.98-8.98-23.54-8.98-32.52 0-12.99 12.99-34.12 12.99-47.11 0-8.98-8.98-23.54-8.98-32.52 0-6.29 6.3-14.65 9.76-23.56 9.76-8.89 0-17.26-3.46-23.54-9.76l.02-.01z" fill="#727271"/></g></svg>