<svg height="1331" width="1367" xmlns="http://www.w3.org/2000/svg"><g fill="none" transform="translate(0 .5)"><path d="m151.01 795.8c7.42-9.26 5.92-22.78-3.34-30.2a21.452 21.452 0 0 0 -13.44-4.72h-24.3l49.34-74.02c6.59-9.87 3.92-23.21-5.95-29.79a21.523 21.523 0 0 0 -11.92-3.61h-15.37l72.66-145.31 72.66 145.31h-15.37c-11.86 0-21.48 9.62-21.48 21.48 0 4.24 1.26 8.39 3.61 11.92l49.35 74.02h-24.31c-11.87 0-21.48 9.61-21.49 21.48 0 4.89 1.66 9.62 4.71 13.44l58.02 72.51h-211.38l58.01-72.51zm472.65 0c7.42-9.26 5.93-22.78-3.34-30.2a21.445 21.445 0 0 0 -13.43-4.72h-24.31l49.35-74.02c6.58-9.87 3.92-23.21-5.95-29.79a21.523 21.523 0 0 0 -11.92-3.61h-15.37l72.65-145.31 72.66 145.31h-15.37c-11.87 0-21.48 9.62-21.48 21.48 0 4.24 1.26 8.39 3.61 11.92l49.35 74.02h-24.31c-11.87 0-21.49 9.61-21.49 21.48 0 4.89 1.66 9.62 4.72 13.44l58.01 72.51h-211.38l58.01-72.51zm472.65 0c7.42-9.26 5.93-22.78-3.33-30.2a21.452 21.452 0 0 0 -13.44-4.72h-24.3l49.34-74.02c6.59-9.87 3.92-23.21-5.95-29.79a21.523 21.523 0 0 0 -11.92-3.61h-15.37l72.66-145.31 72.65 145.31h-15.37c-11.86 0-21.48 9.62-21.48 21.48 0 4.24 1.26 8.39 3.61 11.92l49.35 74.02h-24.31c-11.86 0-21.48 9.61-21.49 21.48 0 4.89 1.66 9.62 4.72 13.44l58.01 72.51h-211.38l58.01-72.51zm69.16 176.09v-60.62h128.91c11.87 0 21.49-9.61 21.49-21.48 0-4.88-1.66-9.62-4.71-13.43l-58.01-72.51h19.75c11.87 0 21.48-9.62 21.48-21.48 0-4.24-1.25-8.39-3.61-11.92l-49.35-74.02h9.99c11.87 0 21.49-9.63 21.48-21.5 0-3.33-.78-6.61-2.26-9.59l-107.43-214.84c-6.32-10.61-20.05-14.09-30.67-7.77a22.49 22.49 0 0 0 -7.77 7.77l-107.42 214.84c-5.3 10.62-1 23.53 9.63 28.83 2.98 1.49 6.26 2.26 9.59 2.26h9.98l-49.34 74.02c-6.59 9.87-3.92 23.21 5.95 29.79 3.53 2.35 7.68 3.61 11.92 3.61h19.75l-58.01 72.51c-7.42 9.26-5.93 22.78 3.34 30.2 3.81 3.05 8.55 4.72 13.43 4.71h128.9v60.62zm-472.65 0v-60.62h128.9c11.87 0 21.49-9.61 21.49-21.48 0-4.88-1.67-9.62-4.72-13.43l-58.01-72.51h19.75c11.87 0 21.48-9.62 21.48-21.48 0-4.24-1.26-8.39-3.61-11.92l-49.34-74.02h9.98c11.87 0 21.49-9.63 21.48-21.5 0-3.33-.78-6.61-2.26-9.59l-107.42-214.84c-6.32-10.61-20.06-14.09-30.67-7.77a22.376 22.376 0 0 0 -7.76 7.77l-107.42 214.84c-5.31 10.62-1 23.53 9.63 28.83 2.98 1.49 6.26 2.26 9.59 2.26h9.99l-49.35 74.02c-6.58 9.87-3.92 23.21 5.95 29.79 3.54 2.35 7.68 3.61 11.92 3.61h19.76l-58.02 72.51c-7.41 9.26-5.92 22.78 3.34 30.2 3.81 3.05 8.55 4.72 13.44 4.71h128.9v60.62zm-472.65 0v-60.62h128.91c11.87 0 21.49-9.61 21.49-21.48 0-4.88-1.66-9.62-4.72-13.43l-58.01-72.51h19.75c11.86 0 21.48-9.62 21.48-21.48 0-4.24-1.26-8.39-3.61-11.92l-49.35-74.02h9.99c11.87 0 21.49-9.63 21.48-21.5 0-3.33-.78-6.61-2.26-9.59l-107.42-214.84c-6.33-10.61-20.06-14.09-30.67-7.77a22.32 22.32 0 0 0 -7.77 7.77l-107.42 214.84c-5.3 10.62-.99 23.53 9.63 28.83 2.98 1.49 6.26 2.26 9.59 2.26h9.99l-49.35 74.02c-6.58 9.87-3.92 23.21 5.96 29.79 3.53 2.35 7.68 3.61 11.92 3.61h19.75l-58.01 72.51c-7.42 9.26-5.92 22.78 3.34 30.2 3.81 3.05 8.55 4.72 13.43 4.71h128.91v60.62zm730.46-837.9a98.365 98.365 0 0 0 -64.45-39.1l-.01 42.97a76.053 76.053 0 0 1 42.98 42.97h42.97a76.065 76.065 0 0 1 42.97-42.97v-42.97a98.38 98.38 0 0 0 -64.45 39.1zm236.32 46.83h42.97a76.065 76.065 0 0 1 42.97-42.97v-42.97a98.404 98.404 0 0 0 -64.45 39.1 98.365 98.365 0 0 0 -64.45-39.1l-.01 42.97a76.082 76.082 0 0 1 42.98 42.97zm-107.41 103.56a98.365 98.365 0 0 0 -64.45-39.1l-.01 42.96a76.082 76.082 0 0 1 42.98 42.97h42.97a76.077 76.077 0 0 1 42.96-42.97v-42.96a98.404 98.404 0 0 0 -64.45 39.1z" fill="#727271"/><g fill="#ef7f1a"><path d="m431.32 128.9c23.73 0 42.96 19.24 42.96 42.97s-19.24 42.97-42.96 42.97c-23.73 0-42.97-19.24-42.97-42.97.03-23.72 19.25-42.94 42.97-42.97zm-85.94 42.97c0 47.46 38.47 85.94 85.94 85.94 47.46 0 85.93-38.48 85.93-85.94s-38.47-85.94-85.93-85.94c-47.44.05-85.89 38.5-85.94 85.94z"/><path d="m409.83 42.97h42.97v-42.97h-42.97z"/><path d="m560.22 193.35h42.97v-42.96h-42.97z"/><path d="m409.83 343.74h42.97v-42.96h-42.97z"/><path d="m259.44 193.35h42.97v-42.96h-42.97z"/><path d="m507.16 65.55 30.38-30.4 30.39 30.38-30.38 30.39z"/><path d="m507.26 278.2 30.39-30.37 30.37 30.39-30.39 30.38z"/><path d="m294.57 278.22 30.37-30.39 30.4 30.37-30.38 30.4z"/><path d="m294.58 65.52 30.39-30.38 30.38 30.4-30.4 30.37z"/></g><g fill="#727271" transform="translate(0 954.5)"><path d="m972.26 325.41c-6.63 0-13.14 2.7-17.83 7.39s-7.39 11.2-7.39 17.83 2.7 13.14 7.39 17.83 11.2 7.39 17.83 7.39 13.14-2.7 17.83-7.39 7.39-11.2 7.39-17.83-2.7-13.14-7.39-17.83-11.2-7.39-17.83-7.39z"/><path d="m1178.7.44h-1005.59v50.44h1005.6c75.7 0 137.28 61.57 137.28 137.26 0 75.7-61.58 137.27-137.28 137.27h-105.57c-13.92 0-25.22 11.29-25.22 25.22s11.3 25.22 25.22 25.22h105.57c103.51 0 187.71-84.2 187.71-187.7s-84.2-187.7-187.71-187.7l-.01-.01z"/><path d="m188.16.44h1005.59v50.44h-1005.59c-75.7 0-137.28 61.57-137.28 137.26 0 75.7 61.58 137.27 137.28 137.27h683.54c13.92 0 25.22 11.29 25.22 25.22s-11.3 25.22-25.22 25.22h-683.54c-103.5 0-187.71-84.2-187.71-187.7s84.2-187.7 187.71-187.7z"/><path d="m985.67 125.83c-9.85-9.84-25.81-9.84-35.67 0-6.9 6.91-16.07 10.7-25.82 10.7-9.76 0-18.93-3.79-25.83-10.7-9.85-9.84-25.81-9.84-35.67 0-9.84 9.85-9.84 25.82 0 35.67 28.46 28.45 71.88 33.03 105.16 13.72 26.89 15.6 60.4 15.6 87.29.02 13.12 7.66 28.09 11.72 43.68 11.72 23.23 0 45.07-9.04 61.5-25.46 9.84-9.85 9.84-25.82 0-35.67-9.85-9.84-25.82-9.84-35.67 0-6.89 6.89-16.07 10.7-25.83 10.7-9.75 0-18.93-3.8-25.82-10.7a25.213 25.213 0 0 0 -35.67 0c-14.23 14.24-37.41 14.24-51.65 0zm-390.84 86.66c-9.85-9.84-25.81-9.84-35.67 0-6.89 6.91-16.06 10.7-25.81 10.7-9.76 0-18.94-3.79-25.83-10.7-9.85-9.84-25.81-9.84-35.67 0-9.84 9.85-9.84 25.82 0 35.67 28.46 28.45 71.88 33.03 105.16 13.72 26.88 15.6 60.39 15.6 87.29.02 13.12 7.66 28.08 11.72 43.68 11.72 23.23 0 45.07-9.04 61.5-25.46 9.84-9.85 9.84-25.82 0-35.67-9.85-9.84-25.82-9.84-35.67 0-6.9 6.89-16.07 10.7-25.83 10.7-9.75 0-18.92-3.8-25.82-10.7a25.213 25.213 0 0 0 -35.67 0c-14.23 14.24-37.41 14.24-51.65 0zm-314.35-93.93c-9.85-9.84-25.81-9.84-35.67 0-6.9 6.91-16.07 10.7-25.82 10.7-9.76 0-18.93-3.79-25.83-10.7-9.85-9.84-25.81-9.84-35.67 0-9.84 9.85-9.84 25.82 0 35.67 28.46 28.45 71.88 33.03 105.16 13.72 26.89 15.6 60.4 15.6 87.29.02 13.12 7.66 28.09 11.72 43.68 11.72 23.23 0 45.07-9.04 61.5-25.46 9.84-9.85 9.84-25.82 0-35.67-9.85-9.84-25.82-9.84-35.67 0-6.89 6.9-16.07 10.7-25.83 10.7-9.75 0-18.92-3.8-25.81-10.7a25.213 25.213 0 0 0 -35.67 0c-14.23 14.24-37.41 14.24-51.65 0z"/></g></g></svg>