<svg height="853" viewBox="0 0 1040 853" width="1040" xmlns="http://www.w3.org/2000/svg"><g fill="#727271"><path d="m86.36 324.14c-5.38 0-10.57-2.13-14.37-5.94l-60.52-60.51c-7.31-7.31-11.27-17.04-11.15-27.39.14-10.3 4.31-19.89 11.77-26.97 137.52-130.73 317.81-202.72 507.68-202.72 189.86 0 370.16 71.99 507.67 202.72 7.46 7.09 11.63 16.66 11.77 26.97.13 10.35-3.84 20.08-11.15 27.39l-48.19 48.15c-14.65 14.63-37.93 14.92-53.02.68-110.46-104.37-255.03-161.85-407.08-161.85-158.3 0-307.13 61.63-419.08 173.52-3.8 3.81-8.96 5.94-14.34 5.94zm-44.32-93.27 44.54 44.52c117.81-110.62 270.83-171.29 433.2-171.29 161.64 0 315.39 60.81 433.18 171.26l44.55-44.5c-129.7-122.34-299.23-189.67-477.73-189.67s-348.04 67.34-477.74 189.68z"/><path d="m806.48 463.48c-9.17 0-18.36-3.33-25.63-10.02-54.88-50.52-122.57-83.81-195.75-96.29-11.04-1.88-18.47-12.37-16.59-23.41 1.89-11.04 12.33-18.49 23.41-16.59 80.07 13.65 154.19 49.83 214.51 104.69l44.56-44.54c-90.52-83.3-208.04-129.14-331.21-129.14-123.18 0-240.69 45.84-331.22 129.14l44.56 44.54c52.83-48.03 117.19-82.2 186.27-98.88 10.91-2.63 21.85 4.07 24.48 14.96s-4.07 21.85-14.96 24.48c-63.22 15.26-122.09 46.74-170.2 91.03-15.01 13.81-38.08 13.29-52.53-1.15l-48.2-48.19c-7.36-7.35-11.31-17.13-11.13-27.54.19-10.28 4.61-20.19 12.15-27.21 98.31-91.43 226.44-141.78 360.78-141.78 134.33 0 262.46 50.35 360.77 141.78 7.54 7.02 11.96 16.93 12.15 27.21.18 10.41-3.76 20.19-11.13 27.54l-48.2 48.18c-7.44 7.43-17.16 11.18-26.89 11.18z"/><path d="m659.92 610.14c-8.72 0-17.5-3.04-24.73-9.18-32.16-27.28-73.15-42.31-115.42-42.31s-83.26 15.03-115.41 42.31c-15.26 12.94-37.35 12.1-51.39-1.93l-48.4-48.38c-7.41-7.4-11.46-17.64-11.14-28.11.31-10.39 4.95-20.29 12.73-27.15 58.97-52.11 134.84-80.81 213.62-80.81s154.65 28.7 213.62 80.81c7.77 6.85 12.41 16.75 12.73 27.15.32 10.46-3.74 20.7-11.15 28.11l-48.4 48.38c-7.38 7.38-16.98 11.11-26.66 11.11zm-140.15-92.07c51.11 0 100.7 17.91 139.91 50.47l44.66-44.64c-51.24-44.36-116.66-68.74-184.57-68.74s-133.33 24.39-184.57 68.74l44.67 44.64c39.2-32.56 88.8-50.47 139.91-50.47zm.12 334.75c-63.78 0-115.66-51.87-115.66-115.62 0-30.87 12.02-59.91 33.86-81.77 21.85-21.85 50.89-33.87 81.8-33.87 30.87 0 59.91 12.02 81.77 33.85 21.86 21.87 33.89 50.92 33.89 81.78 0 63.76-51.89 115.62-115.66 115.62zm0-190.68c-20.07 0-38.93 7.81-53.1 21.98-14.17 14.19-21.98 33.04-21.98 53.07 0 41.37 33.67 75.04 75.07 75.04s75.07-33.67 75.07-75.04c0-20.04-7.81-38.89-22-53.08-14.18-14.17-33.04-21.97-53.08-21.97zm-12.5-310.59c-11.21 0-20.31-9.08-20.31-20.29s9.08-20.29 20.28-20.29h.02c11.21 0 20.29 9.08 20.29 20.29s-9.08 20.29-20.29 20.29z"/></g></svg>