<svg xmlns="http://www.w3.org/2000/svg" width="32" height="32" viewBox="0 0 32 32"><g><g><path fill="#0081de" d="M26.608 20.265c-1.143-1.112-2.571-1.112-3.705 0-.866.847-1.734 1.693-2.585 2.554-.235.237-.432.287-.714.13-.563-.303-1.158-.546-1.698-.876-2.513-1.557-4.619-3.558-6.481-5.811-.925-1.12-1.748-2.317-2.323-3.665-.118-.272-.096-.452.129-.675.867-.825 1.712-1.671 2.564-2.518 1.186-1.177 1.186-2.554-.007-3.738-.677-.674-1.356-1.333-2.033-2.008-.697-.688-1.39-1.385-2.096-2.066C6.515.495 5.087.495 3.95 1.599c-.872.846-1.712 1.714-2.599 2.546C.528 4.914.113 5.854.025 6.95c-.138 1.787.308 3.473.935 5.115 1.278 3.4 3.23 6.42 5.6 9.19 3.195 3.745 7.012 6.708 11.477 8.846 2.01.96 4.093 1.7 6.357 1.821 1.559.087 2.916-.3 4-1.499.743-.819 1.58-1.564 2.367-2.346 1.167-1.162 1.174-2.568.013-3.716a861.822 861.822 0 0 0-4.166-4.096z"/></g></g></svg>